<?xml version="1.0" encoding="UTF-8"?>
<svg width="273px" height="300px" viewBox="0 0 273 300" version="1.1" xmlns="http://www.w3.org/2000/svg" xmlns:xlink="http://www.w3.org/1999/xlink">
    <title>矩形备份</title>
    <g id="页面-1" stroke="none" stroke-width="1" fill="none" fill-rule="evenodd">
        <g id="桌面端-HD" transform="translate(-496.000000, -745.000000)" fill="#F5BA5D" stroke="#F5BA5D" stroke-width="5">
            <path d="M730,747.5 C733.45178,747.5 736.57678,748.89911 738.838835,751.161165 C741.10089,753.42322 742.5,756.54822 742.5,760 L742.5,760 L742.5,835.67158 C742.5,850.731773 748.823152,865.100049 759.927829,875.273326 C763.862575,878.878046 765.963716,883.736379 766.179992,888.677217 C766.396267,893.618055 764.727676,898.6414 761.122956,902.576145 C760.983484,902.728386 760.841582,902.878382 760.697303,903.026075 L760.697303,903.026075 L759.722759,904.023679 C748.681445,915.326268 742.5,930.499905 742.5,946.30051 L742.5,946.30051 L742.5,1030 C742.5,1033.45178 741.10089,1036.57678 738.838835,1038.83883 C736.57678,1041.10089 733.45178,1042.5 730,1042.5 L730,1042.5 L511,1042.5 C507.54822,1042.5 504.42322,1041.10089 502.161165,1038.83883 C499.89911,1036.57678 498.5,1033.45178 498.5,1030 L498.5,1030 L498.5,941.307864 C498.5,934.514335 500.844745,927.928994 505.138185,922.664167 L505.138185,922.664167 L515.878099,909.494358 C520.778737,903.484957 523.099781,896.131733 522.883424,888.853943 C522.667067,881.576153 519.913309,874.373795 514.664342,868.666124 L514.664342,868.666124 L506.286074,859.555686 C501.278937,854.110978 498.5,846.983869 498.5,839.586824 L498.5,839.586824 L498.5,760 C498.5,756.54822 499.89911,753.42322 502.161165,751.161165 C504.42322,748.89911 507.54822,747.5 511,747.5 L511,747.5 Z" id="矩形备份"></path>
        </g>
    </g>
</svg>