<?xml version="1.0" encoding="UTF-8"?>
<svg width="557px" height="532px" viewBox="0 0 557 532" version="1.1" xmlns="http://www.w3.org/2000/svg" xmlns:xlink="http://www.w3.org/1999/xlink">
    <title>Group 2</title>
    <g id="页面-1" stroke="none" stroke-width="1" fill="none" fill-rule="evenodd">
        <g id="桌面端-HD" transform="translate(-713.000000, -583.000000)">
            <g id="Group-2" transform="translate(716.000000, 587.000000)">
                <g id="编组" transform="translate(0.000000, 210.000000)">
                    <path d="M206.583931,104.132762 C218.664564,104.124842 228.451498,114.013266 228.443532,126.219742 C228.48346,65.1885295 179.53736,34.9692474 119.135347,35.0088108 C58.7327574,35.0484524 9.74705089,65.3319433 9.70709844,126.363155 C9.71508908,114.15668 19.5149775,104.255413 31.5956105,104.247493 C43.5241845,104.239672 53.2099054,113.883731 53.4433897,125.878207 L53.4664289,125.878192 C53.7150411,113.8834 63.4133968,104.226632 75.3425467,104.21881 C87.4035964,104.210903 97.1767271,114.067909 97.2004333,126.247011 L97.2033132,126.247009 C97.2423889,114.067866 107.029009,104.198035 119.090059,104.190127 C131.170116,104.182207 140.956474,114.070632 140.948483,126.277107 C140.956474,114.070632 150.756362,104.169366 162.836995,104.161445 C174.917052,104.153525 184.703986,114.041949 184.695995,126.248424 C184.703986,114.041949 194.503298,104.140683 206.583931,104.132762" id="Fill-1" fill="#F7D8A8" transform="translate(119.075315, 80.685983) rotate(-20.000000) translate(-119.075315, -80.685983) "></path>
                    <path d="M206.583931,104.132762 C218.664564,104.124842 228.451498,114.013266 228.443532,126.219742 C228.48346,65.1885295 179.53736,34.9692474 119.135347,35.0088108 C58.7327574,35.0484524 9.74705089,65.3319433 9.70709844,126.363155 C9.71508908,114.15668 19.5149775,104.255413 31.5956105,104.247493 C43.5241845,104.239672 53.2099054,113.883731 53.4433897,125.878207 L53.4664289,125.878192 C53.7150411,113.8834 63.4133968,104.226632 75.3425467,104.21881 C87.4035964,104.210903 97.1767271,114.067909 97.2004333,126.247011 L97.2033132,126.247009 C97.2423889,114.067866 107.029009,104.198035 119.090059,104.190127 C131.170116,104.182207 140.956474,114.070632 140.948483,126.277107 C140.956474,114.070632 150.756362,104.169366 162.836995,104.161445 C174.917052,104.153525 184.703986,114.041949 184.695995,126.248424 C184.703986,114.041949 194.503298,104.140683 206.583931,104.132762 Z" id="Stroke-3" stroke="#756750" stroke-width="5" stroke-linejoin="round" transform="translate(119.075315, 80.685983) rotate(-20.000000) translate(-119.075315, -80.685983) "></path>
                    <line x1="50.8439956" y1="152.604437" x2="148.297052" y2="254.777009" id="Stroke-5" stroke="#756750" stroke-width="5" stroke-linecap="round" transform="translate(99.570524, 203.690723) rotate(-20.000000) translate(-99.570524, -203.690723) "></line>
                    <line x1="87.4647081" y1="143.541696" x2="137.547583" y2="211.057953" id="Stroke-7" stroke="#756750" stroke-width="5" stroke-linecap="round" transform="translate(112.506145, 177.299825) rotate(-20.000000) translate(-112.506145, -177.299825) "></line>
                    <line x1="129.080618" y1="134.200251" x2="149.087236" y2="201.736227" id="Stroke-9" stroke="#756750" stroke-width="5" stroke-linecap="round" transform="translate(139.083927, 167.968239) rotate(-20.000000) translate(-139.083927, -167.968239) "></line>
                    <line x1="169.905523" y1="127.15208" x2="156.192071" y2="191.971688" id="Stroke-11" stroke="#756750" stroke-width="5" stroke-linecap="round" transform="translate(163.048797, 159.561884) rotate(-20.000000) translate(-163.048797, -159.561884) "></line>
                    <line x1="212.505814" y1="116.811409" x2="167.802911" y2="184.389812" id="Stroke-13" stroke="#756750" stroke-width="5" stroke-linecap="round" transform="translate(190.154362, 150.600611) rotate(-20.000000) translate(-190.154362, -150.600611) "></line>
                    <line x1="262.054404" y1="110.392579" x2="172.671306" y2="210.861998" id="Stroke-15" stroke="#756750" stroke-width="5" stroke-linecap="round" transform="translate(217.362855, 160.627288) rotate(-20.000000) translate(-217.362855, -160.627288) "></line>
                    <path d="M107.030325,57.8257319 L102.483706,60.1823148 C82.5897343,70.495103 66.8395793,87.0440053 57.7823653,107.150603 L57.7823653,107.150603" id="Stroke-17" stroke="#756750" stroke-width="5" stroke-linecap="round" transform="translate(82.406345, 82.488168) rotate(-20.000000) translate(-82.406345, -82.488168) "></path>
                    <path d="M129.181461,32.2686243 L133.724999,34.6192473 C153.605486,44.9059575 169.333988,61.4342209 178.364885,81.5289594 L178.364885,81.5289594" id="Stroke-19" stroke="#756750" stroke-width="5" stroke-linecap="round" transform="translate(153.773173, 56.898792) rotate(-20.000000) translate(-153.773173, -56.898792) "></path>
                    <path d="M122.947707,45.6090155 L125.069718,48.6716118 C134.356678,62.0728892 139.033812,78.3574899 138.344788,94.8915025" id="Stroke-21" stroke="#756750" stroke-width="5" stroke-linecap="round" transform="translate(130.679525, 70.250259) rotate(-20.000000) translate(-130.679525, -70.250259) "></path>
                    <path d="M114.107094,54.5340803 L111.981058,57.5994618 C102.677046,71.0129283 97.9785581,87.3036761 98.6453777,103.8368" id="Stroke-23" stroke="#756750" stroke-width="5" stroke-linecap="round" transform="translate(106.345066, 79.185440) rotate(-20.000000) translate(-106.345066, -79.185440) "></path>
                    <path d="M227.172969,267.797344 C227.159946,287.6816 210.827598,303.812226 190.693035,303.825435 C170.559053,303.838628 154.247809,287.729404 154.260818,267.845149 C154.268476,256.159405 160.898338,246.881354 168.651804,239.186733 C171.116601,236.74045 175.966135,231.054421 178.647482,229.894452 L202.653942,229.878712 C205.034102,230.974103 210.332883,236.845845 212.820072,239.158347 C220.812333,246.58959 227.180612,256.111601 227.172969,267.797344" id="Fill-25" fill="#F5BA5D" transform="translate(190.716894, 266.852074) rotate(-20.000000) translate(-190.716894, -266.852074) "></path>
                    <path d="M188.681278,231.688627 L164.892313,231.704225 C163.156207,231.705363 161.749292,230.32395 161.750408,228.618592 L161.752342,225.66572 C161.753458,223.960912 163.162183,222.577103 164.898289,222.575964 L188.687254,222.560367 C190.423359,222.559229 191.829714,223.941193 191.828599,225.646 L191.826665,228.598872 C191.825549,230.30423 190.417384,231.687489 188.681278,231.688627 Z" id="Stroke-27" stroke="#3A393D" stroke-width="6" fill="#D8D8D8" transform="translate(176.789503, 227.132296) rotate(-20.000000) translate(-176.789503, -227.132296) "></path>
                    <path d="M151.379786,209.092517 C152.850202,207.682675 154.849601,206.813926 157.051848,206.81248 C160.509348,206.810215 163.457192,208.948529 164.64893,211.966205 C165.91745,209.10623 168.787662,207.106973 172.128924,207.104783 C175.518618,207.10256 178.424353,209.154158 179.660028,212.078258 C180.987707,209.368487 183.774647,207.495148 187.005939,207.493029 C189.070296,207.491676 190.95467,208.251858 192.392574,209.506149 L192.392004,209.506716 L183.685148,223.225881 L160.092471,223.026474 L153.238481,211.652791 L151.380355,209.09365 L151.379786,209.092517 Z" id="Fill-29" fill="#F5BA5D" transform="translate(171.886180, 215.019180) rotate(-20.000000) translate(-171.886180, -215.019180) "></path>
                    <path d="M151.379786,209.092517 C152.850202,207.682675 154.849601,206.813926 157.051848,206.81248 C160.509348,206.810215 163.457192,208.948529 164.64893,211.966205 C165.91745,209.10623 168.787662,207.106973 172.128924,207.104783 C175.518618,207.10256 178.424353,209.154158 179.660028,212.078258 C180.987707,209.368487 183.774647,207.495148 187.005939,207.493029 C189.070296,207.491676 190.95467,208.251858 192.392574,209.506149 L192.392004,209.506716 L183.685148,223.225881 L160.092471,223.026474 L153.238481,211.652791 L151.380355,209.09365 L151.379786,209.092517 Z" id="Stroke-31" stroke="#39393C" stroke-width="5" stroke-linejoin="round" transform="translate(171.886180, 215.019180) rotate(-20.000000) translate(-171.886180, -215.019180) "></path>
                    <path d="M166.885875,246.203713 C166.885875,246.203713 166.200036,265.896017 178.487464,278.467446 C198.76243,299.210448 225.027018,287.467507 225.027018,287.467507 C225.027018,287.467507 215.16051,304.5929 195.674602,304.60569 C176.188694,304.618452 167.678077,296.045655 163.876463,286.488554 C160.074849,276.930871 158.077444,265.906581 160.435543,258.613997 C162.793074,251.321995 166.885875,246.203713 166.885875,246.203713" id="Fill-33" fill="#EDA340" transform="translate(192.223618, 275.404701) rotate(-20.000000) translate(-192.223618, -275.404701) "></path>
                    <path d="M227.172969,267.797344 C227.159946,287.6816 210.827598,303.812226 190.693035,303.825435 C170.559053,303.838628 154.247809,287.729404 154.260818,267.845149 C154.268476,256.159405 160.898338,246.881354 168.651804,239.186733 C171.116601,236.74045 175.966135,231.054421 178.647482,229.894452 L202.653942,229.878712 C205.034102,230.974103 210.332883,236.845845 212.820072,239.158347 C220.812333,246.58959 227.180612,256.111601 227.172969,267.797344 Z" id="Stroke-35" stroke="#39393C" stroke-width="5" transform="translate(190.716894, 266.852074) rotate(-20.000000) translate(-190.716894, -266.852074) "></path>
                    <path d="M210.904859,252.589945 C211.266666,254.377426 211.568516,256.205305 211.811548,258.060349 L211.812675,258.066303" id="Fill-37" fill="#F5BA5D" transform="translate(211.358767, 255.328124) rotate(-20.000000) translate(-211.358767, -255.328124) "></path>
                    <path d="M210.904859,252.589945 C211.266666,254.377426 211.568516,256.205305 211.811548,258.060349 L211.812675,258.066303" id="Stroke-39" stroke="#FEFEFE" stroke-width="7" stroke-linecap="round" transform="translate(211.358767, 255.328124) rotate(-20.000000) translate(-211.358767, -255.328124) "></path>
                    <path d="M190.278505,237.85275 L198.692296,245.924782 C199.245899,246.565294 199.781097,247.219454 200.29735,247.887263" id="Fill-40" fill="#F5BA5D" transform="translate(195.287927, 242.870006) rotate(-20.000000) translate(-195.287927, -242.870006) "></path>
                    <path d="M190.278505,237.85275 L198.692296,245.924782 C199.245899,246.565294 199.781097,247.219454 200.29735,247.887263" id="Stroke-42" stroke="#FEFEFE" stroke-width="7" stroke-linecap="round" transform="translate(195.287927, 242.870006) rotate(-20.000000) translate(-195.287927, -242.870006) "></path>
                    <path d="M196.880781,257.263701 C196.880781,257.263701 193.644335,255.386031 191.04572,255.387734 C188.447105,255.389439 185.379043,256.972012 185.377001,260.091223 C185.374959,263.210433 191.124752,265.000878 191.124752,265.000878 C191.124752,265.000878 197.765018,266.662663 197.762557,270.422831 C197.760095,274.182999 194.734599,275.467479 191.562513,275.46956 C188.391587,275.471638 184.089964,272.825052 184.089964,272.825052" id="Stroke-43" stroke="#39393C" stroke-width="4" stroke-linecap="round" transform="translate(190.926260, 265.428647) rotate(-20.000000) translate(-190.926260, -265.428647) "></path>
                    <line x1="186.261806" y1="252.381417" x2="186.258818" y2="256.945547" id="Stroke-45" stroke="#39393C" stroke-width="4" stroke-linecap="round" transform="translate(186.260312, 254.663482) rotate(-20.000000) translate(-186.260312, -254.663482) "></line>
                    <line x1="195.0206" y1="275.866327" x2="195.017613" y2="280.430457" id="Stroke-47" stroke="#39393C" stroke-width="4" stroke-linecap="round" transform="translate(195.019107, 278.148392) rotate(-20.000000) translate(-195.019107, -278.148392) "></line>
                </g>
                <g id="编组" transform="translate(167.000000, 0.000000)">
                    <path d="M277.845513,97.1428873 C294.911331,97.1428873 308.746083,111.017824 308.746083,128.134217 C308.746083,42.553884 239.573949,0.134216507 154.24649,0.134216507 C68.9182167,0.134216507 -0.25391698,42.553884 -0.25391698,128.134217 C-0.25391698,111.017824 13.5808352,97.1428873 30.6466526,97.1428873 C47.4976623,97.1428873 61.1892094,110.675071 61.5301352,127.494412 L61.5626818,127.494412 C61.9027939,110.675071 75.594341,97.1428873 92.4461644,97.1428873 C109.484317,97.1428873 123.299541,110.973755 123.344293,128.051793 L123.348361,128.051793 C123.392299,110.973755 137.208337,97.1428873 154.24649,97.1428873 C171.311494,97.1428873 185.145432,111.017824 185.145432,128.134217 C185.145432,111.017824 198.980184,97.1428873 216.046002,97.1428873 C233.111005,97.1428873 246.945758,111.017824 246.945758,128.134217 C246.945758,111.017824 260.779696,97.1428873 277.845513,97.1428873" id="Fill-1" fill="#F7D8A8"></path>
                    <path d="M277.845513,97.1428873 C294.911331,97.1428873 308.746083,111.017824 308.746083,128.134217 C308.746083,42.553884 239.573949,0.134216507 154.24649,0.134216507 C68.9182167,0.134216507 -0.25391698,42.553884 -0.25391698,128.134217 C-0.25391698,111.017824 13.5808352,97.1428873 30.6466526,97.1428873 C47.4976623,97.1428873 61.1892094,110.675071 61.5301352,127.494412 L61.5626818,127.494412 C61.9027939,110.675071 75.594341,97.1428873 92.4461644,97.1428873 C109.484317,97.1428873 123.299541,110.973755 123.344293,128.051793 L123.348361,128.051793 C123.392299,110.973755 137.208337,97.1428873 154.24649,97.1428873 C171.311494,97.1428873 185.145432,111.017824 185.145432,128.134217 C185.145432,111.017824 198.980184,97.1428873 216.046002,97.1428873 C233.111005,97.1428873 246.945758,111.017824 246.945758,128.134217 C246.945758,111.017824 260.779696,97.1428873 277.845513,97.1428873 Z" id="Stroke-3" stroke="#756750" stroke-width="7" stroke-linejoin="round"></path>
                    <line x1="-0.25391698" y1="143.134217" x2="136.746083" y2="287.134217" id="Stroke-5" stroke="#756750" stroke-width="7" stroke-linecap="round"></line>
                    <line x1="62.746083" y1="141.134217" x2="133.746083" y2="236.134217" id="Stroke-7" stroke="#756750" stroke-width="7" stroke-linecap="round"></line>
                    <line x1="124.746083" y1="140.134217" x2="150.746083" y2="235.134217" id="Stroke-9" stroke="#756750" stroke-width="7" stroke-linecap="round"></line>
                    <line x1="184.746083" y1="143.134217" x2="166.746083" y2="234.134217" id="Stroke-11" stroke="#756750" stroke-width="7" stroke-linecap="round"></line>
                    <line x1="245.746083" y1="144.134217" x2="181.746083" y2="238.134217" id="Stroke-13" stroke="#756750" stroke-width="7" stroke-linecap="round"></line>
                    <line x1="308.746083" y1="146.134217" x2="180.746083" y2="287.134217" id="Stroke-15" stroke="#756750" stroke-width="7" stroke-linecap="round"></line>
                    <path d="M136.746083,15.1342165 L130.46627,18.4288002 C102.988619,32.8464339 81.2420119,55.9972139 68.746083,84.1342165 L68.746083,84.1342165" id="Stroke-17" stroke="#756750" stroke-width="7" stroke-linecap="round"></path>
                    <path d="M176.746083,15.1342165 L183.025896,18.4288002 C210.503547,32.8464339 232.250154,55.9972139 244.746083,84.1342165 L244.746083,84.1342165" id="Stroke-19" stroke="#756750" stroke-width="7" stroke-linecap="round"></path>
                    <path d="M164.746083,23.1342165 L167.899105,27.3610422 C181.698273,45.8567443 188.657128,68.3258731 187.650365,91.1342165" id="Stroke-21" stroke="#756750" stroke-width="7" stroke-linecap="round"></path>
                    <path d="M149.746083,23.1342165 L146.59304,27.3610422 C132.794618,45.8567443 125.835718,68.3258731 126.841653,91.1342165" id="Stroke-23" stroke="#756750" stroke-width="7" stroke-linecap="round"></path>
                    <path d="M210.746083,346.004991 C210.746083,374.242451 187.912804,397.134217 159.745678,397.134217 C131.579362,397.134217 108.746083,374.242451 108.746083,346.004991 C108.746083,329.410168 118.012396,316.240654 128.85202,305.320804 C132.297895,301.849152 139.076917,293.778983 142.826911,292.134217 L176.410606,292.134217 C179.74132,293.691988 187.159399,302.035336 190.640957,305.321617 C201.828493,315.882106 210.746083,329.410168 210.746083,346.004991" id="Fill-25" fill="#F5BA5D"></path>
                    <path d="M176.252016,292.134217 L142.240951,292.134217 C139.758842,292.134217 137.746083,290.165564 137.746083,287.736881 L137.746083,283.531552 C137.746083,281.103652 139.758842,279.134217 142.240951,279.134217 L176.252016,279.134217 C178.734125,279.134217 180.746083,281.103652 180.746083,283.531552 L180.746083,287.736881 C180.746083,290.165564 178.734125,292.134217 176.252016,292.134217 Z" id="Stroke-27" stroke="#3A393D" stroke-width="7" fill="#D8D8D8"></path>
                    <path d="M129.746083,257.459154 C131.860047,255.401254 134.735497,254.134217 137.903573,254.134217 C142.877413,254.134217 147.120095,257.260403 148.837332,261.66936 C150.659488,257.493107 154.786595,254.575609 159.593219,254.575609 C164.469516,254.575609 168.651542,257.575092 170.431894,261.847408 C172.339298,257.890609 176.34673,255.156956 180.995156,255.156956 C183.964869,255.156956 186.676382,256.269132 188.746083,258.10261 L188.745263,258.103438 L176.232794,278.134217 L142.292979,277.820356 L132.42235,261.200639 L129.746903,257.46081 L129.746083,257.459154 Z" id="Fill-29" fill="#F5BA5D"></path>
                    <path d="M129.746083,257.459154 C131.860047,255.401254 134.735497,254.134217 137.903573,254.134217 C142.877413,254.134217 147.120095,257.260403 148.837332,261.66936 C150.659488,257.493107 154.786595,254.575609 159.593219,254.575609 C164.469516,254.575609 168.651542,257.575092 170.431894,261.847408 C172.339298,257.890609 176.34673,255.156956 180.995156,255.156956 C183.964869,255.156956 186.676382,256.269132 188.746083,258.10261 L188.745263,258.103438 L176.232794,278.134217 L142.292979,277.820356 L132.42235,261.200639 L129.746903,257.46081 L129.746083,257.459154 Z" id="Stroke-31" stroke="#39393C" stroke-width="7" stroke-linejoin="round"></path>
                    <path d="M120.421912,316.134217 C120.421912,316.134217 119.457934,343.773877 137.071101,361.430552 C166.133844,390.564269 203.746083,374.105945 203.746083,374.105945 C203.746083,374.105945 189.628659,398.134217 161.715681,398.134217 C133.802703,398.134217 121.603457,386.093532 116.148794,372.675603 C110.694131,359.256857 107.82257,343.781228 111.193639,333.547464 C114.563894,323.314516 120.421912,316.134217 120.421912,316.134217" id="Fill-33" fill="#EDA340"></path>
                    <path d="M210.746083,346.004991 C210.746083,374.242451 187.912804,397.134217 159.745678,397.134217 C131.579362,397.134217 108.746083,374.242451 108.746083,346.004991 C108.746083,329.410168 118.012396,316.240654 128.85202,305.320804 C132.297895,301.849152 139.076917,293.778983 142.826911,292.134217 L176.410606,292.134217 C179.74132,293.691988 187.159399,302.035336 190.640957,305.321617 C201.828493,315.882106 210.746083,329.410168 210.746083,346.004991 Z" id="Stroke-35" stroke="#39393C" stroke-width="7"></path>
                    <path d="M192.746083,338.134217 C193.144346,340.419068 193.476852,342.755502 193.744842,345.126606 L193.746083,345.134217" id="Fill-37" fill="#F5BA5D"></path>
                    <path d="M192.746083,338.134217 C193.144346,340.419068 193.476852,342.755502 193.744842,345.126606 L193.746083,345.134217" id="Stroke-39" stroke="#FEFEFE" stroke-width="7" stroke-linecap="round"></path>
                    <path d="M169.746083,307.134217 L182.342683,320.005417 C183.171609,321.026622 183.973012,322.069555 184.746083,323.134217" id="Fill-40" fill="#F5BA5D"></path>
                    <path d="M169.746083,307.134217 L182.342683,320.005417 C183.171609,321.026622 183.973012,322.069555 184.746083,323.134217" id="Stroke-42" stroke="#FEFEFE" stroke-width="7" stroke-linecap="round"></path>
                    <path d="M168.508619,333.661553 C168.508619,333.661553 164.008895,331.134217 160.397338,331.134217 C156.785781,331.134217 152.523224,333.259245 152.523224,337.452949 C152.523224,341.646653 160.515921,344.058932 160.515921,344.058932 C160.515921,344.058932 169.746083,346.299018 169.746083,351.354474 C169.746083,356.40993 165.542415,358.134217 161.133847,358.134217 C156.726892,358.134217 150.746083,354.572151 150.746083,354.572151" id="Stroke-43" stroke="#39393C" stroke-width="7" stroke-linecap="round"></path>
                    <line x1="159.246083" y1="323.134217" x2="159.246083" y2="329.134217" id="Stroke-45" stroke="#39393C" stroke-width="7" stroke-linecap="round"></line>
                    <line x1="159.246083" y1="358.134217" x2="159.246083" y2="364.134217" id="Stroke-47" stroke="#39393C" stroke-width="7" stroke-linecap="round"></line>
                </g>
                <g id="编组" transform="translate(389.000000, 243.000000)">
                    <path d="M144.313688,58.2533967 C152.159897,58.2566817 158.523313,64.7895909 158.526678,72.8454305 C158.509854,32.5670006 126.698819,12.5888465 87.4685249,12.5724121 C48.2378562,12.5559978 16.4435005,32.5075227 16.4603182,72.7859526 C16.4569599,64.730113 22.8149209,58.2025297 30.6611294,58.2058146 C38.4085776,58.2090582 44.7060864,64.5806233 44.8661376,72.4967209 L44.8811012,72.4967272 C45.0341652,64.5807607 51.3263533,58.2144664 59.0741757,58.2177101 C66.9076651,58.2209897 73.2620946,64.7331545 73.286027,72.7709506 L73.2878975,72.7709514 C73.3047411,64.7331723 79.6541066,58.2263262 87.487596,58.2296057 C95.3334305,58.2328905 101.696473,64.7657996 101.699838,72.8216392 C101.696473,64.7657996 108.054434,58.2382163 115.900642,58.2415012 C123.746477,58.244786 130.109893,64.7776953 130.113258,72.8335349 C130.109893,64.7776953 136.46748,58.2501118 144.313688,58.2533967" id="Fill-1" fill="#F7D8A8" transform="translate(87.493498, 42.708921) rotate(10.000000) translate(-87.493498, -42.708921) "></path>
                    <path d="M144.313688,58.2533967 C152.159897,58.2566817 158.523313,64.7895909 158.526678,72.8454305 C158.509854,32.5670006 126.698819,12.5888465 87.4685249,12.5724121 C48.2378562,12.5559978 16.4435005,32.5075227 16.4603182,72.7859526 C16.4569599,64.730113 22.8149209,58.2025297 30.6611294,58.2058146 C38.4085776,58.2090582 44.7060864,64.5806233 44.8661376,72.4967209 L44.8811012,72.4967272 C45.0341652,64.5807607 51.3263533,58.2144664 59.0741757,58.2177101 C66.9076651,58.2209897 73.2620946,64.7331545 73.286027,72.7709506 L73.2878975,72.7709514 C73.3047411,64.7331723 79.6541066,58.2263262 87.487596,58.2296057 C95.3334305,58.2328905 101.696473,64.7657996 101.699838,72.8216392 C101.696473,64.7657996 108.054434,58.2382163 115.900642,58.2415012 C123.746477,58.244786 130.109893,64.7776953 130.113258,72.8335349 C130.109893,64.7776953 136.46748,58.2501118 144.313688,58.2533967 Z" id="Stroke-3" stroke="#756750" stroke-width="3" stroke-linejoin="round" transform="translate(87.493498, 42.708921) rotate(10.000000) translate(-87.493498, -42.708921) "></path>
                    <line x1="5.51214905" y1="72.8052517" x2="68.3770226" y2="139.464266" id="Stroke-5" stroke="#756750" stroke-width="3" stroke-linecap="round" transform="translate(36.944586, 106.134759) rotate(10.000000) translate(-36.944586, -106.134759) "></line>
                    <line x1="36.4787274" y1="73.7235799" x2="69.2819527" y2="118.463369" id="Stroke-7" stroke="#756750" stroke-width="3" stroke-linecap="round" transform="translate(52.880340, 96.093475) rotate(10.000000) translate(-52.880340, -96.093475) "></line>
                    <line x1="64.7085172" y1="76.466306" x2="77.4767439" y2="121.197707" id="Stroke-9" stroke="#756750" stroke-width="3" stroke-linecap="round" transform="translate(71.092631, 98.832007) rotate(10.000000) translate(-71.092631, -98.832007) "></line>
                    <line x1="91.1176834" y1="80.121966" x2="82.939086" y2="122.106268" id="Stroke-11" stroke="#756750" stroke-width="3" stroke-linecap="round" transform="translate(87.028385, 101.114117) rotate(10.000000) translate(-87.028385, -101.114117) "></line>
                    <line x1="119.346901" y1="83.7776369" x2="91.1344491" y2="128.491881" id="Stroke-13" stroke="#756750" stroke-width="3" stroke-linecap="round" transform="translate(105.240675, 106.134759) rotate(10.000000) translate(-105.240675, -106.134759) "></line>
                    <line x1="146.662062" y1="87.4360771" x2="88.4058809" y2="153.131606" id="Stroke-15" stroke="#756750" stroke-width="3" stroke-linecap="round" transform="translate(117.533971, 120.283842) rotate(10.000000) translate(-117.533971, -120.283842) "></line>
                    <path d="M82.0145091,17.1403141 L79.0715893,18.664483 C66.1946888,25.3344945 56.005808,36.0491012 50.1539922,49.074158 L50.1539922,49.074158" id="Stroke-17" stroke="#756750" stroke-width="3" stroke-linecap="round" transform="translate(66.084251, 33.107236) rotate(10.000000) translate(-66.084251, -33.107236) "></path>
                    <path d="M99.3138321,25.342566 L102.258026,26.8691996 C115.140503,33.5499956 125.338339,44.2731375 131.201038,57.3030988 L131.201038,57.3030988" id="Stroke-19" stroke="#756750" stroke-width="3" stroke-linecap="round" transform="translate(115.257435, 41.322832) rotate(10.000000) translate(-115.257435, -41.322832) "></path>
                    <path d="M92.9403451,25.3470678 L94.3144528,27.3334545 C100.32822,36.025466 103.363512,46.5829921 102.929499,57.2984327" id="Stroke-21" stroke="#756750" stroke-width="3" stroke-linecap="round" transform="translate(97.955343, 41.322750) rotate(10.000000) translate(-97.955343, -41.322750) "></path>
                    <path d="M86.56678,22.6127287 L85.1943224,24.5979655 C79.1881395,33.2849447 76.1616458,43.8399329 76.6042501,54.5557405" id="Stroke-23" stroke="#756750" stroke-width="3" stroke-linecap="round" transform="translate(81.564275, 38.584235) rotate(10.000000) translate(-81.564275, -38.584235) "></path>
                    <path d="M92.0390598,171.588233 C92.044492,184.598218 81.448111,195.140817 68.3709837,195.135344 C55.2942329,195.129867 44.6890408,184.578392 44.6836048,171.568407 C44.6804129,163.922592 48.9799415,157.856738 54.0103427,152.827688 C55.6094878,151.228846 58.7552256,147.511955 60.4959155,146.754882 L76.0877881,146.76141 C77.634436,147.479777 81.0800265,151.325291 82.6970389,152.840072 C87.893099,157.707834 92.035864,163.942418 92.0390598,171.588233" id="Fill-25" fill="#F5BA5D" transform="translate(68.361332, 170.945113) rotate(10.000000) translate(-68.361332, -170.945113) "></path>
                    <path d="M80.8385809,146.759434 L64.991799,146.7528 C63.8353094,146.752316 62.8971577,145.922566 62.8967303,144.899406 L62.8959901,143.127779 C62.895563,142.104949 63.8330218,141.275655 64.9895114,141.276139 L80.8362933,141.282773 C81.992783,141.283258 82.9305616,142.113337 82.9309889,143.136167 L82.931729,144.907794 C82.9321562,145.930954 81.9950706,146.759918 80.8385809,146.759434 Z" id="Stroke-27" stroke="#3A393D" stroke-width="4" fill="#D8D8D8" transform="translate(72.913860, 144.017787) rotate(10.000000) translate(-72.913860, -144.017787) "></path>
                    <path d="M61.0731703,131.963469 C62.0516343,130.94641 63.3828741,130.320518 64.8498791,130.321132 C67.1530579,130.322096 69.1183135,131.86857 69.9144052,134.048783 C70.7573078,131.98431 72.6677971,130.542639 74.8935454,130.543571 C77.1515564,130.544516 79.0886983,132.028333 79.913988,134.141 C80.7964103,132.185046 82.6515216,130.834248 84.8040145,130.83515 C86.1791656,130.835725 87.4349845,131.386134 88.3937558,132.293045 L88.3933764,132.293454 L82.6035079,142.194661 L66.8873222,142.032902 L62.3132111,133.813856 L61.0735502,131.964288 L61.0731703,131.963469 Z" id="Fill-29" fill="#F5BA5D" transform="translate(74.733463, 136.257897) rotate(10.000000) translate(-74.733463, -136.257897) "></path>
                    <path d="M61.0731703,131.963469 C62.0516343,130.94641 63.3828741,130.320518 64.8498791,130.321132 C67.1530579,130.322096 69.1183135,131.86857 69.9144052,134.048783 C70.7573078,131.98431 72.6677971,130.542639 74.8935454,130.543571 C77.1515564,130.544516 79.0886983,132.028333 79.913988,134.141 C80.7964103,132.185046 82.6515216,130.834248 84.8040145,130.83515 C86.1791656,130.835725 87.4349845,131.386134 88.3937558,132.293045 L88.3933764,132.293454 L82.6035079,142.194661 L66.8873222,142.032902 L62.3132111,133.813856 L61.0735502,131.964288 L61.0731703,131.963469 Z" id="Stroke-31" stroke="#39393C" stroke-width="3" stroke-linejoin="round" transform="translate(74.733463, 136.257897) rotate(10.000000) translate(-74.733463, -136.257897) "></path>
                    <path d="M48.6264538,157.705006 C48.6264538,157.705006 48.1927845,170.319243 56.2161451,178.380902 C69.455154,191.682734 86.5784063,184.178515 86.5784063,184.178515 C86.5784063,184.178515 80.1547469,195.142049 67.444827,195.136729 C54.7349071,195.131406 49.1777961,189.633852 46.6915072,183.509025 C44.2052182,177.383825 42.8947288,170.32038 44.4277637,165.650451 C45.9604277,160.980895 48.6264538,157.705006 48.6264538,157.705006" id="Fill-33" fill="#EDA340" transform="translate(65.174496, 176.420868) rotate(10.000000) translate(-65.174496, -176.420868) "></path>
                    <path d="M92.0390598,171.588233 C92.044492,184.598218 81.448111,195.140817 68.3709837,195.135344 C55.2942329,195.129867 44.6890408,184.578392 44.6836048,171.568407 C44.6804129,163.922592 48.9799415,157.856738 54.0103427,152.827688 C55.6094878,151.228846 58.7552256,147.511955 60.4959155,146.754882 L76.0877881,146.76141 C77.634436,147.479777 81.0800265,151.325291 82.6970389,152.840072 C87.893099,157.707834 92.035864,163.942418 92.0390598,171.588233 Z" id="Stroke-35" stroke="#39393C" stroke-width="3" transform="translate(68.361332, 170.945113) rotate(10.000000) translate(-68.361332, -170.945113) "></path>
                    <path d="M82.9296326,169.577397 C83.2929457,171.067234 83.5963893,172.590677 83.8410887,174.1367 L83.8422207,174.141662" id="Fill-37" fill="#F5BA5D" transform="translate(83.385927, 171.859530) rotate(10.000000) translate(-83.385927, -171.859530) "></path>
                    <path d="M82.9296326,169.577397 C83.2929457,171.067234 83.5963893,172.590677 83.8410887,174.1367 L83.8422207,174.141662" id="Stroke-39" stroke="#FEFEFE" stroke-width="7" stroke-linecap="round" transform="translate(83.385927, 171.859530) rotate(10.000000) translate(-83.385927, -171.859530) "></path>
                    <path d="M73.8226801,156.796347 L79.9432639,162.673175 C80.3460654,163.13941 80.7355033,163.615555 81.1111843,164.101611" id="Fill-40" fill="#F5BA5D" transform="translate(77.466932, 160.448979) rotate(10.000000) translate(-77.466932, -160.448979) "></path>
                    <path d="M73.8226801,156.796347 L79.9432639,162.673175 C80.3460654,163.13941 80.7355033,163.615555 81.1111843,164.101611" id="Stroke-42" stroke="#FEFEFE" stroke-width="7" stroke-linecap="round" transform="translate(77.466932, 160.448979) rotate(10.000000) translate(-77.466932, -160.448979) "></path>
                    <path d="M71.4675251,165.29877 C71.4675251,165.29877 69.5259544,164.10179 67.968017,164.101137 C66.4100796,164.100486 64.5717369,165.105474 64.572566,167.090319 C64.573395,169.075164 68.0217263,170.21832 68.0217263,170.21832 C68.0217263,170.21832 72.0038354,171.280201 72.0048352,173.672906 C72.0058343,176.065611 70.1928153,176.880942 68.2910669,176.880147 C66.3900143,176.87935 63.8093352,175.192374 63.8093352,175.192374" id="Stroke-43" stroke="#39393C" stroke-width="4" stroke-linecap="round" transform="translate(67.907085, 170.490642) rotate(10.000000) translate(-67.907085, -170.490642) "></path>
                    <line x1="68.8155223" y1="161.361924" x2="68.8166661" y2="164.100254" id="Stroke-45" stroke="#39393C" stroke-width="4" stroke-linecap="round" transform="translate(68.816094, 162.731089) rotate(10.000000) translate(-68.816094, -162.731089) "></line>
                    <line x1="66.0836787" y1="178.705961" x2="66.0848226" y2="181.444291" id="Stroke-47" stroke="#39393C" stroke-width="4" stroke-linecap="round" transform="translate(66.084251, 180.075126) rotate(10.000000) translate(-66.084251, -180.075126) "></line>
                </g>
            </g>
        </g>
    </g>
</svg>