<?xml version="1.0" encoding="UTF-8"?>
<svg width="25px" height="21px" viewBox="0 0 25 21" version="1.1" xmlns="http://www.w3.org/2000/svg" xmlns:xlink="http://www.w3.org/1999/xlink">
    <title>编组</title>
    <g id="页面-1" stroke="none" stroke-width="1" fill="none" fill-rule="evenodd" stroke-linecap="round">
        <g id="桌面端-HD" transform="translate(-111.000000, -794.000000)" stroke="#FFFFFF">
            <g id="编组" transform="translate(112.000000, 795.000000)">
                <path d="M12.1585124,13.7183854 L16.1970465,13.7183854 C16.1970465,13.7183854 17.2767978,13.4965005 17.2767978,12.0097602 C17.2767978,10.5231797 16.0025513,10.4565663 16.0025513,10.4565663 L4.93358491,10.4565663 C4.50292818,10.4565663 4.07973409,10.5734991 3.70737925,10.7958632 L0.640699065,12.625894 C0.244090641,12.8626351 0,13.2984176 0,13.7696633 L0,18.0941015 C0,18.6040054 0.546016772,18.914708 0.966723316,18.6442609 L3.64503508,16.9226965 C4.21546092,16.5560833 4.92550038,16.5027287 5.54163491,16.7802046 L9.90075173,18.7421842 C10.812438,19.1525673 11.8632716,19.0691808 12.7025081,18.5195006 L22.3733171,12.1873959 C22.3733171,12.1873959 23.6259529,11.1000164 22.5892673,9.70209391 C21.6915735,8.49139178 20.3217119,9.2139153 20.3217119,9.2139153 L17.2984083,11.3219012" id="Stroke-1"></path>
                <path d="M18.7679729,9.80371601 C19.4070881,7.39275004 18.7196907,4.50643614 16.7823864,2.40478063 C14.4360778,-0.140225179 11.0294688,-0.695646788 8.62445842,0.884176671 L7.97932626,0.839284468 C7.20549053,0.785477503 6.56461425,1.48258018 6.61641854,2.32200068 L6.66646177,3.1305379 C5.66809187,5.16644703 5.8001708,7.78197498 7.00370329,10" id="Stroke-3"></path>
                <path d="M15,4 C15.7455561,4.60705961 16,5 16,5" id="Stroke-5"></path>
                <path d="M11,2.17246305 C11,2.17246305 12.5021857,1.43813463 14,3" id="Stroke-7"></path>
            </g>
        </g>
    </g>
</svg>