<?xml version="1.0" encoding="UTF-8"?>
<svg width="273px" height="300px" viewBox="0 0 273 300" version="1.1" xmlns="http://www.w3.org/2000/svg" xmlns:xlink="http://www.w3.org/1999/xlink">
    <title>矩形</title>
    <g id="页面-1" stroke="none" stroke-width="1" fill="none" fill-rule="evenodd">
        <g id="桌面端-HD" transform="translate(-228.000000, -745.000000)" stroke="#F5BA5D" stroke-width="5">
            <path d="M462,747.5 C465.45178,747.5 468.57678,748.89911 470.838835,751.161165 C473.10089,753.42322 474.5,756.54822 474.5,760 L474.5,760 L474.5,835.67158 C474.5,850.731773 480.823152,865.100049 491.927829,875.273326 C495.862575,878.878046 497.963716,883.736379 498.179992,888.677217 C498.396267,893.618055 496.727676,898.6414 493.122956,902.576145 C492.983484,902.728386 492.841582,902.878382 492.697303,903.026075 L492.697303,903.026075 L491.722759,904.023679 C480.681445,915.326268 474.5,930.499905 474.5,946.30051 L474.5,946.30051 L474.5,1030 C474.5,1033.45178 473.10089,1036.57678 470.838835,1038.83883 C468.57678,1041.10089 465.45178,1042.5 462,1042.5 L462,1042.5 L243,1042.5 C239.54822,1042.5 236.42322,1041.10089 234.161165,1038.83883 C231.89911,1036.57678 230.5,1033.45178 230.5,1030 L230.5,1030 L230.5,760 C230.5,756.54822 231.89911,753.42322 234.161165,751.161165 C236.42322,748.89911 239.54822,747.5 243,747.5 L243,747.5 Z" id="矩形"></path>
        </g>
    </g>
</svg>