<?xml version="1.0" encoding="UTF-8"?>
<svg width="252px" height="124px" viewBox="0 0 252 124" version="1.1" xmlns="http://www.w3.org/2000/svg" xmlns:xlink="http://www.w3.org/1999/xlink">
    <title>Group</title>
    <defs>
        <polygon id="path-1" points="0.697484911 0.694 35.404 0.694 35.404 54.2427756 0.697484911 54.2427756"></polygon>
    </defs>
    <g id="页面-1" stroke="none" stroke-width="1" fill="none" fill-rule="evenodd">
        <g id="桌面端-HD" transform="translate(-101.000000, -154.000000)">
            <g id="Group" transform="translate(101.000000, 154.000000)">
                <g id="编组">
                    <path d="M59,53 C59,55.7615385 45.7926052,58 29.5,58 C13.2078657,58 0,55.7615385 0,53 C0,50.2384615 13.2078657,48 29.5,48 C45.7926052,48 59,50.2384615 59,53" id="Fill-1" fill="#272828"></path>
                    <path d="M23.2960899,5.19758414 L20.7653022,5.03534718 C17.729105,4.84084983 15.2151487,7.36230217 15.4185281,10.3975828 L15.6144268,13.3215886 C10.6370084,22.679903 12.8218174,35.4241544 21.6975746,44.2999659 C30.6327093,53.2346876 43.4904947,55.3933276 52.8655834,50.2854346 L56.1187187,50.5037766 C59.1544483,50.7071572 61.6758852,48.1931856 61.4813891,45.1569698 L61.2719317,41.890256 C66.3970924,32.5132399 64.2426734,19.6404145 55.2995906,10.697277 C46.0951536,1.49278379 32.730556,-0.515775316 23.2960899,5.19758414 Z" id="Fill-3" fill="#F5BA5D"></path>
                    <path d="M15.1047965,19.3260941 C15.1047965,19.3260941 20.8283248,38.6528981 44.7518765,41.6250148 C57.2077548,43.1721246 65,32.8993913 65,32.8993913 L63.5272984,36.5203571 L61.587437,45.3557785 L58.1753426,51.3497049 L47.7066509,54 L40.7620408,54 L29.6059634,49.0751837 L21.2861133,41.9818581 L16.0737901,34.0489568 L13.829361,27.8860741 L13,23.3370318 L13,18 L15.1047965,19.3260941 Z" id="Fill-5" fill="#EDA340"></path>
                    <path d="M19.8250513,7.71597501 C19.1018045,7.71597501 18.4279341,7.99545145 17.9111277,8.51441191 C17.3510582,9.07618779 17.072199,9.8214583 17.1248672,10.6133082 L17.3670467,14.224859 L17.0524485,14.8176878 C12.414358,23.5416814 14.7604427,35.222291 22.7570694,43.2231275 C30.8294066,51.3001849 42.574408,53.6117468 51.3187346,48.8446503 L51.9187755,48.5176535 L55.8726501,48.7830149 C56.6636131,48.8352403 57.4089617,48.5562344 57.970442,47.9963405 C58.5319223,47.4359761 58.8136029,46.6916466 58.7628158,45.8997967 L58.5084097,41.9320781 L58.8357048,41.3340738 C63.6167517,32.5818503 61.3111086,20.8217263 53.2288962,12.735259 C44.9529401,4.45494603 32.6267078,2.27465339 23.9200013,7.54941834 L23.2889238,7.93193408 L20.0065684,7.721621 C19.9459059,7.71785701 19.8852435,7.71597501 19.8250513,7.71597501 M19.431921,46.5504969 C10.1679666,37.2816654 7.40617951,23.6771851 12.58647,13.2194025 L12.433168,10.9280721 C12.2902116,8.79577035 13.0731803,6.70534303 14.5812769,5.19221805 C16.0889032,3.67909308 18.1739983,2.88865466 20.3070591,3.02651088 L22.1372779,3.14366515 C32.621535,-2.75262907 46.9689082,-0.182292703 56.5540445,9.40836013 C65.9176923,18.7769374 68.6329245,32.475988 63.2875757,42.9732925 L63.4554555,45.5991478 C63.5922987,47.7314495 62.8032166,49.8195244 61.2908878,51.3279443 C59.778559,52.8363643 57.6953449,53.6197453 55.5580518,53.477184 L52.9490965,53.3021584 C49.3723636,55.1192258 45.4231916,56 41.4016008,56 C33.633046,56 25.5936264,52.7154461 19.431921,46.5504969 Z" id="Fill-7" fill="#404040"></path>
                    <path d="M49.7599058,21 C48.9788569,21 48.2202233,20.6108151 47.8077816,19.9177722 C47.8077816,19.9177722 47.8077816,19.9182462 47.8077816,19.9182462 C47.8067854,19.9182462 47.4720502,19.4072337 46.6670916,18.6516178 C45.785921,17.8239482 45.7764568,16.4734151 46.6461706,15.6348426 C47.5153864,14.7962701 48.9345244,14.7872634 49.815695,15.614933 C51.0739409,16.7962347 51.6134026,17.6551908 51.7085431,17.8154155 C52.3187375,18.8402848 51.9396698,20.141992 50.8622407,20.722688 C50.5135582,20.9108809 50.1339923,21 49.7599058,21" id="Fill-9" fill="#FCF3F7"></path>
                    <path d="M40.9261248,15 C40.6452307,15 40.3597317,14.9372971 40.0862053,14.8053703 C34.743231,12.2200053 29.896196,14.2917083 29.8473849,14.3132781 C28.7859735,14.7792859 27.5790498,14.2199762 27.1508015,13.0637352 C26.7230135,11.9069925 27.2364511,10.5922386 28.2978625,10.1257292 C28.5617187,10.0103559 34.8394718,7.32667276 41.7683466,10.6790194 C42.814562,11.1856586 43.2856353,12.5189726 42.8210088,13.6586601 C42.4779496,14.4998819 41.7204565,15 40.9261248,15" id="Fill-11" fill="#FCF3F7"></path>
                </g>
                <g id="编组" transform="translate(0.000000, 68.000000)">
                    <path d="M166.432362,39.445732 C169.779362,31.722732 167.809362,23.208732 162.131362,18.894732 L161.627362,17.333732 C161.022362,15.462732 158.908362,14.549732 157.131362,15.393732 L155.420362,16.206732 C148.609362,15.438732 141.466362,19.781732 138.239362,27.228732 C134.990362,34.725732 136.749362,42.970732 142.049362,47.393732 L142.692362,49.401732 C143.291362,51.275732 145.402362,52.193732 147.182362,51.354732 L149.096362,50.452732 C155.953362,51.304732 163.181362,46.948732 166.432362,39.445732" id="Fill-1" fill="#F5BA5D"></path>
                    <path d="M151.617462,17.353032 C151.617462,17.353032 141.494462,25.326032 145.404462,40.377032 C147.439462,48.214032 155.390462,50.477032 155.390462,50.477032 L152.890462,50.444032 L147.181462,51.355032 L142.811462,50.715032 L138.754462,45.057032 L137.106462,40.890032 L137.386462,33.040032 L139.625462,26.383032 L143.101462,21.392032 L146.230462,18.598032 L148.735462,17.032032 L151.906462,15.779032 L151.617462,17.353032 Z" id="Fill-3" fill="#EDA340"></path>
                    <path d="M153.385562,18.346132 C147.801562,18.346132 142.333562,22.220132 139.760562,28.159132 C136.954562,34.634132 138.276562,41.894132 142.974562,45.814132 L143.454562,46.215132 L144.287562,48.820132 C144.420562,49.234132 144.727562,49.421132 144.898562,49.495132 C145.069562,49.570132 145.414562,49.666132 145.808562,49.481132 L148.287562,48.313132 L148.906562,48.389132 C154.985562,49.146132 161.192562,45.146132 164.001562,38.663132 C166.877562,32.028132 165.351562,24.466132 160.373562,20.683132 L159.834562,20.274132 L159.122562,18.070132 C158.989562,17.657132 158.681562,17.471132 158.510562,17.397132 C158.339562,17.323132 157.993562,17.227132 157.600562,17.413132 L155.334562,18.490132 L154.723562,18.421132 C154.278562,18.371132 153.831562,18.346132 153.385562,18.346132 M145.338562,53.893132 C144.603562,53.893132 143.868562,53.744132 143.180562,53.444132 C141.751562,52.823132 140.660562,51.616132 140.185562,50.132132 L139.726562,48.697132 C133.967562,43.484132 132.344562,34.440132 135.808562,26.447132 C139.239562,18.528132 146.887562,13.519132 154.574562,14.083132 L155.752562,13.523132 C157.160562,12.855132 158.787562,12.825132 160.217562,13.443132 C161.647562,14.060132 162.742562,15.264132 163.221562,16.746132 L163.526562,17.689132 C169.629562,22.772132 171.503562,32.184132 167.953562,40.376132 L167.953562,40.376132 C164.485562,48.380132 156.769562,53.382132 149.016562,52.730132 L147.644562,53.377132 C146.915562,53.721132 146.127562,53.893132 145.338562,53.893132" id="Fill-5" fill="#404040"></path>
                    <path d="M158.990707,41.1693261 C158.563707,41.1693261 158.132707,41.0283261 157.774707,40.7393261 C156.941707,40.0663261 156.811707,38.8483261 157.482707,38.0153261 C157.482707,38.0153261 157.481707,38.0153261 157.481707,38.0153261 C157.479707,38.0153261 157.670707,37.7453261 157.897707,37.2103261 C158.317707,36.2253261 159.454707,35.7673261 160.440707,36.1853261 C161.425707,36.6043261 161.883707,37.7423261 161.464707,38.7273261 C161.026707,39.7583261 160.615707,40.3053261 160.499707,40.4483261 C160.116707,40.9223261 159.555707,41.1693261 158.990707,41.1693261" id="Fill-7" fill="#FCF3F7"></path>
                    <path d="M160.710407,34.8168261 C160.683407,34.8168261 160.655407,34.8168261 160.628407,34.8158261 C159.558407,34.7708261 158.728407,33.8678261 158.772407,32.7978261 C158.918407,29.2628261 156.756407,26.8838261 156.734407,26.8598261 C155.998407,26.0848261 156.029407,24.8578261 156.805407,24.1208261 C157.581407,23.3828261 158.808407,23.4148261 159.545407,24.1908261 C159.681407,24.3338261 162.861407,27.7448261 162.645407,32.9588261 C162.602407,34.0008261 161.743407,34.8168261 160.710407,34.8168261" id="Fill-9" fill="#FCF3F7"></path>
                    <path d="M98.374808,29.726 L98.374808,28.652 C97.914808,27.476 97.172808,26.646 96.150808,26.16 C95.126808,25.674 94.027808,25.38 92.852808,25.277 C92.187808,25.482 91.649808,25.712 91.241808,25.968 C90.831808,26.224 90.474808,26.504 90.167808,26.811 C89.860808,27.118 89.579808,27.463 89.323808,27.847 C89.067808,28.23 88.760808,28.627 88.403808,29.036 L88.403808,49.131 C88.403808,50.716 87.930808,51.955 86.984808,52.851 C86.038808,53.745 84.990808,54.257 83.839808,54.385 C82.689808,54.512 81.627808,54.231 80.656808,53.541 C79.685808,52.851 79.173808,51.687 79.123808,50.051 C79.020808,46.115 78.981808,41.641 79.007808,36.629 C79.033808,31.618 79.045808,26.019 79.045808,19.832 C79.045808,18.758 79.364808,17.864 80.004808,17.147 C80.644808,16.432 81.410808,15.946 82.305808,15.69 C83.200808,15.435 84.120808,15.448 85.066808,15.728 C86.012808,16.01 86.792808,16.585 87.406808,17.454 C90.269808,16.023 93.120808,15.575 95.958808,16.112 C98.796808,16.649 101.365808,17.991 103.666808,20.139 C104.688808,19.117 105.787808,18.196 106.964808,17.377 C108.140808,16.56 109.418808,16.023 110.799808,15.767 C112.383808,15.511 113.982808,15.575 115.593808,15.958 C117.204808,16.342 118.699808,16.969 120.080808,17.837 C121.460808,18.707 122.674808,19.781 123.723808,21.059 C124.770808,22.337 125.551808,23.718 126.062808,25.201 C126.318808,26.224 126.446808,27.144 126.446808,27.962 L126.446808,48.824 C126.446808,49.437 126.369808,50.026 126.216808,50.588 C125.755808,51.917 125.027808,52.851 124.030808,53.388 C123.033808,53.924 122.009808,54.116 120.962808,53.963 C119.913808,53.809 119.006808,53.323 118.239808,52.506 C117.472808,51.687 117.088808,50.588 117.088808,49.207 L117.088808,28.576 C116.628808,27.348 115.963808,26.455 115.094808,25.891 C114.224808,25.329 113.330808,25.074 112.410808,25.124 C111.489808,25.175 110.607808,25.508 109.764808,26.121 C108.920808,26.734 108.242808,27.578 107.731808,28.652 L107.731808,48.747 C107.731808,50.128 107.283808,51.278 106.389808,52.199 C105.494808,53.119 104.510808,53.706 103.436808,53.963 C102.362808,54.218 101.352808,54.116 100.406808,53.656 C99.459808,53.196 98.911808,52.275 98.757808,50.894 L98.374808,29.726 Z" id="Fill-11" fill="#FFFFFF"></path>
                    <path d="M208.22,49.6679 C208.067,50.9459 207.593,51.9939 206.801,52.8129 C206.008,53.6289 205.114,54.1419 204.116,54.3459 C203.119,54.5499 202.161,54.4229 201.241,53.9629 C200.32,53.5019 199.655,52.6069 199.246,51.2779 C198.786,49.8469 198.606,48.3519 198.709,46.7919 C198.811,45.2319 198.863,43.7879 198.863,42.4579 C198.863,39.6969 198.875,36.9489 198.901,34.2129 C198.926,31.4779 198.811,28.7289 198.556,25.9679 C198.504,25.8659 198.453,25.7759 198.403,25.6989 C198.351,25.6229 198.249,25.5079 198.095,25.3539 C196.919,25.0469 195.666,25.1239 194.338,25.5839 C193.007,26.0439 191.883,26.6329 190.963,27.3479 C190.144,28.0129 189.339,28.9199 188.547,30.0709 C187.753,31.2219 187.358,32.3339 187.358,33.4079 L187.358,43.9919 C187.358,44.8109 187.383,45.7059 187.434,46.6759 C187.485,47.6479 187.447,48.5939 187.32,49.5139 C187.191,50.4349 186.898,51.2779 186.437,52.0449 C185.977,52.8129 185.235,53.3749 184.213,53.7329 C183.65,53.9369 183.126,54.0129 182.641,53.9629 C182.154,53.9109 181.631,53.7829 181.069,53.5799 C180.148,53.2719 179.483,52.7479 179.074,52.0069 C178.664,51.2669 178.384,50.4729 178.23,49.6289 C178.077,48.7859 178.012,47.9689 178.039,47.1749 C178.064,46.3829 178.077,45.7559 178.077,45.2959 C178.077,44.1209 178.064,42.4189 178.039,40.1949 C178.012,37.9709 178,35.6319 178,33.1769 L178,26.1599 L178,21.0589 C178,19.9349 178.332,19.0009 178.997,18.2589 C179.661,17.5189 180.442,17.0319 181.337,16.8019 C182.231,16.5719 183.178,16.6239 184.175,16.9559 C185.172,17.2889 186.002,17.9659 186.667,18.9879 C188.712,17.6589 190.963,16.7639 193.417,16.3029 C195.871,15.8429 198.184,15.9199 200.358,16.5339 C202.531,17.1469 204.347,18.2969 205.804,19.9849 C207.262,21.6719 208.015,23.9999 208.067,26.9649 C208.067,27.0679 208.092,27.3749 208.143,27.8849 C208.194,28.3969 208.22,29.1119 208.22,30.0329 L208.22,49.6679 Z" id="Fill-13" fill="#F5BA5D"></path>
                    <g transform="translate(216.000000, 0.306200)">
                        <mask id="mask-2" fill="white">
                            <use xlink:href="#path-1"></use>
                        </mask>
                        <g id="Clip-16"></g>
                        <path d="M23.7585,41.0009 C23.8605,40.8479 24.0515,40.6949 24.3335,40.5409 C24.6135,40.3879 24.7555,40.1839 24.7555,39.9269 L24.7555,33.5999 C24.7555,31.5289 24.7295,29.4199 24.6785,27.2719 C23.4515,27.0169 22.1735,26.8639 20.8435,26.8119 C19.5135,26.7619 18.2225,26.8889 16.9705,27.1959 C15.7165,27.5019 14.5665,28.0139 13.5195,28.7299 C12.4705,29.4459 11.6395,30.4679 11.0265,31.7969 C10.7195,32.7699 10.4385,33.7419 10.1825,34.7119 C9.9265,35.6839 9.7865,36.6289 9.7605,37.5499 C9.7345,38.4699 9.8495,39.3779 10.1065,40.2729 C10.3615,41.1679 10.7965,42.0249 11.4095,42.8419 C11.6135,43.0469 11.8575,43.2519 12.1385,43.4559 C12.4195,43.6609 12.9685,44.0189 13.7875,44.5299 C15.6785,44.6829 17.4815,44.5039 19.1955,43.9929 C20.9075,43.4819 22.4285,42.4849 23.7585,41.0009 M34.4195,45.2199 C35.2885,46.7039 35.5825,48.0329 35.3015,49.2079 C35.0205,50.3849 34.4455,51.2669 33.5755,51.8539 C32.7055,52.4409 31.6455,52.6709 30.3935,52.5439 C29.1395,52.4169 27.9255,51.7649 26.7495,50.5879 C25.5225,51.4579 24.2435,52.1349 22.9145,52.6219 C21.5845,53.1069 20.1785,53.5289 18.6965,53.8869 C16.3955,54.3969 14.1825,54.3589 12.0615,53.7719 C9.9395,53.1829 8.0605,52.2249 6.4245,50.8959 C4.7875,49.5659 3.4585,47.9179 2.4365,45.9479 C1.4125,43.9809 0.8505,41.8449 0.7485,39.5439 C0.5955,36.9879 0.7865,34.5339 1.3235,32.1809 C1.8615,29.8299 2.7165,27.6819 3.8935,25.7379 C5.0695,23.7949 6.6165,22.1339 8.5335,20.7529 C10.4515,19.3719 12.7145,18.4009 15.3215,17.8379 C16.8555,17.5309 18.4015,17.3779 19.9625,17.3779 C21.5215,17.3779 23.0685,17.5059 24.6025,17.7609 C24.5505,16.6379 24.5125,15.3449 24.4875,13.8879 C24.4605,12.4309 24.4485,11.0119 24.4485,9.6309 C24.4485,8.2509 24.4995,7.0119 24.6025,5.9119 C24.7045,4.8129 24.8325,4.0319 24.9855,3.5719 C25.3425,2.6519 25.8925,1.9489 26.6345,1.4629 C27.3755,0.9779 28.1555,0.7229 28.9745,0.6959 C29.7915,0.6709 30.5965,0.8759 31.3905,1.3099 C32.1825,1.7449 32.8095,2.3969 33.2695,3.2659 C33.3715,3.5219 33.4995,3.7639 33.6535,3.9939 C33.8065,4.2239 33.8835,4.4679 33.8835,4.7229 C33.9335,11.4219 33.9465,18.0429 33.9215,24.5879 C33.8945,31.1339 33.8835,37.7549 33.8835,44.4529 C34.0865,44.7599 34.2665,45.0159 34.4195,45.2199" id="Fill-15" fill="#F5BA5D" mask="url(#mask-2)"></path>
                    </g>
                    <path d="M29.1937657,44.2221 C30.3697657,44.7851 31.2647657,45.5011 31.8787657,46.3691 C32.4917657,47.2401 32.7857657,48.1211 32.7597657,49.0151 C32.7337657,49.9111 32.4017657,50.7551 31.7627657,51.5471 C31.1237657,52.3391 30.1397657,52.9391 28.8097657,53.3491 C28.2987657,53.5021 27.5827657,53.5911 26.6627657,53.6181 C25.7417657,53.6431 24.4637657,53.6561 22.8277657,53.6561 L16.6147657,53.6561 C14.1097657,53.6561 11.0157657,53.6811 7.33476568,53.7331 C6.41376568,53.7831 5.46776568,53.8091 4.49676568,53.8091 C3.52476568,53.8091 2.68076568,53.4761 1.96476568,52.8121 C1.35176568,52.3011 0.903765682,51.5221 0.623765682,50.4731 C0.341765682,49.4261 0.162765682,48.3261 0.0867656816,47.1751 C0.00976568161,46.0241 -0.0162343184,44.8741 0.00976568161,43.7231 C0.0347656816,42.5731 0.0477656816,41.6141 0.0477656816,40.8471 C0.0477656816,39.3131 0.0597656816,37.5491 0.0867656816,35.5551 C0.111765682,33.5611 0.136765682,31.5281 0.162765682,29.4571 C0.188765682,27.3871 0.201765682,25.3541 0.201765682,23.3601 L0.201765682,18.0681 C0.201765682,15.3581 0.226765682,13.1721 0.277765682,11.5101 C0.328765682,9.8481 0.443765682,8.5451 0.623765682,7.5981 C0.801765682,6.6521 1.09576568,5.9621 1.50576568,5.5271 C1.91376568,5.0941 2.47576568,4.7221 3.19276568,4.4151 C3.80576568,4.1591 4.48376568,4.0701 5.22476568,4.1471 C5.96576568,4.2231 6.65576568,4.4281 7.29676568,4.7601 C7.93476568,5.0941 8.47176568,5.5541 8.90676568,6.1411 C9.34076568,6.7291 9.55876568,7.3811 9.55876568,8.0971 C9.66076568,14.2331 9.66076568,20.3181 9.55876568,26.3511 C9.45576568,32.3851 9.40476568,38.4191 9.40476568,44.4521 C12.6267657,44.4521 15.8347657,44.4141 19.0307657,44.3371 C22.2257657,44.2601 25.4607657,44.1721 28.7337657,44.0691 L29.1937657,44.2221 Z" id="Fill-17" fill="#F5BA5D"></path>
                    <path d="M49.5885605,28.1918 C48.4115605,28.8568 47.5435605,29.6878 46.9805605,30.6848 C46.4175605,31.6818 46.0085605,33.0758 45.7535605,34.8648 C47.0825605,34.4558 48.5785605,34.0208 50.2405605,33.5608 C51.9015605,33.1008 53.4735605,32.6148 54.9575605,32.1038 C56.4395605,31.5928 57.6925605,31.0298 58.7155605,30.4158 C59.7375605,29.8028 60.2495605,29.1388 60.2495605,28.4218 C60.2495605,28.0128 60.1845605,27.6168 60.0575605,27.2338 C59.9295605,26.8498 59.6615605,26.5808 59.2525605,26.4278 C57.8205605,25.9178 56.3385605,25.8148 54.8035605,26.1208 C53.2705605,26.4278 51.9915605,26.8628 50.9695605,27.4248 L49.5885605,28.1918 Z M65.0815605,41.3838 C66.3095605,41.0778 67.3945605,41.0658 68.3415605,41.3458 C69.2875605,41.6278 70.0155605,42.1008 70.5275605,42.7648 C71.0375605,43.4298 71.2685605,44.2478 71.2175605,45.2188 C71.1665605,46.1908 70.7315605,47.2128 69.9135605,48.2868 C69.2485605,49.1568 68.3285605,49.8978 67.1525605,50.5118 C65.9755605,51.1248 64.8765605,51.6108 63.8545605,51.9688 C61.3485605,52.8888 58.9705605,53.5278 56.7215605,53.8858 C54.4705605,54.2428 52.3615605,54.2428 50.3935605,53.8858 C48.4245605,53.5278 46.5845605,52.7858 44.8715605,51.6618 C43.1575605,50.5378 41.5605605,48.9518 40.0775605,46.9068 C39.0545605,45.5258 38.3005605,43.9538 37.8155605,42.1898 C37.3285605,40.4258 37.0605605,38.6228 37.0095605,36.7818 C36.9585605,34.9418 37.1115605,33.1268 37.4695605,31.3368 C37.8275605,29.5468 38.3385605,27.9368 39.0045605,26.5048 C39.8725605,24.7148 41.2535605,23.0798 43.1455605,21.5958 C45.0365605,20.1128 47.1335605,18.9378 49.4355605,18.0678 C51.7355605,17.1988 54.0875605,16.6998 56.4915605,16.5718 C58.8945605,16.4448 61.0165605,16.8158 62.8575605,17.6838 C64.3915605,18.4008 65.7075605,19.4368 66.8075605,20.7908 C67.9065605,22.1458 68.6605605,23.6158 69.0695605,25.2008 C69.4785605,26.7858 69.5175605,28.3838 69.1855605,29.9948 C68.8525605,31.6048 68.0215605,33.0758 66.6925605,34.4048 C65.4135605,35.6838 64.0075605,36.7188 62.4745605,37.5108 C60.9405605,38.3038 59.3545605,38.9948 57.7185605,39.5818 C56.0815605,40.1708 54.4075605,40.6688 52.6945605,41.0778 C50.9815605,41.4868 49.3325605,41.9478 47.7475605,42.4578 C48.8215605,43.6848 50.0485605,44.4648 51.4295605,44.7968 C52.8105605,45.1308 54.2545605,45.1938 55.7625605,44.9888 C57.2705605,44.7848 58.7925605,44.3628 60.3265605,43.7228 C61.8605605,43.0848 63.2915605,42.3818 64.6215605,41.6138 L65.0815605,41.3838 Z" id="Fill-19" fill="#F5BA5D"></path>
                </g>
            </g>
        </g>
    </g>
</svg>