<?xml version="1.0" encoding="UTF-8"?>
<svg width="5818px" height="443px" viewBox="0 0 5818 443" version="1.1" xmlns="http://www.w3.org/2000/svg" xmlns:xlink="http://www.w3.org/1999/xlink">
    <title>Group</title>
    <g id="页面-1" stroke="none" stroke-width="1" fill="none" fill-rule="evenodd">
        <g id="Group">
            <g id="编组-6">
                <path d="M622.996253,181.418966 C622.996253,181.418966 662.572468,165.907528 672.613787,147.809446 C682.656711,129.711364 703.920681,90.4143172 703.920681,90.4143172 C703.920681,90.4143172 711.599336,100.239633 715.733997,99.2041318 C719.868658,98.171441 733.455577,85.245243 733.455577,85.245243 L747.040891,91.966866 L764.76247,76.9710713 L794.888032,86.7949818 C794.888032,86.7949818 865.771141,43.8785996 871.677799,39.2251683 C877.584457,34.570332 881.719118,20.0943954 887.03511,19.0588945 C892.351103,18.0247987 911.254014,30.9509966 911.254014,30.9509966 C911.254014,30.9509966 923.06733,54.220963 930.745986,53.703915 C938.426247,53.1854621 941.970242,34.570332 941.970242,34.570332 C941.970242,34.570332 959.09955,49.0490788 965.596875,56.8062025 C972.095804,64.5619213 979.774459,81.6259076 988.045386,83.6926943 C996.313102,85.7608859 1003.4027,87.3120297 1009.90002,87.8304826 C1016.39735,88.3475305 1025.848,101.214718 1031.75466,100.210127 C1037.66292,99.2041318 1051.8389,95.5847964 1060.10822,97.1373451 C1068.37754,98.6884889 1080.78313,109.030852 1086.68979,109.030852 C1092.59645,109.030852 1102.63777,103.34192 1106.77243,103.858968 C1110.90709,104.376016 1130.40066,126.609076 1142.80465,134.883248 C1155.21023,143.15742 1220.18508,172.112103 1220.18508,172.112103 L1232,199 L610,199 L622.996253,181.418966 Z" id="Fill-1" fill="#3F4751"></path>
                <path d="M2046.99625,252.418966 C2046.99625,252.418966 2086.57247,236.907528 2096.61379,218.809446 C2106.65671,200.711364 2127.92068,161.414317 2127.92068,161.414317 C2127.92068,161.414317 2135.59934,171.239633 2139.734,170.204132 C2143.86866,169.171441 2157.45558,156.245243 2157.45558,156.245243 L2171.04089,162.966866 L2188.76247,147.971071 L2218.88803,157.794982 C2218.88803,157.794982 2289.77114,114.8786 2295.6778,110.225168 C2301.58446,105.570332 2305.71912,91.0943954 2311.03511,90.0588945 C2316.3511,89.0247987 2335.25401,101.950997 2335.25401,101.950997 C2335.25401,101.950997 2347.06733,125.220963 2354.74599,124.703915 C2362.42625,124.185462 2365.97024,105.570332 2365.97024,105.570332 C2365.97024,105.570332 2383.09955,120.049079 2389.59687,127.806203 C2396.0958,135.561921 2403.77446,152.625908 2412.04539,154.692694 C2420.3131,156.760886 2427.4027,158.31203 2433.90002,158.830483 C2440.39735,159.347531 2449.848,172.214718 2455.75466,171.210127 C2461.66292,170.204132 2475.8389,166.584796 2484.10822,168.137345 C2492.37754,169.688489 2504.78313,180.030852 2510.68979,180.030852 C2516.59645,180.030852 2526.63777,174.34192 2530.77243,174.858968 C2534.90709,175.376016 2554.40066,197.609076 2566.80465,205.883248 C2579.21023,214.15742 2644.18508,243.112103 2644.18508,243.112103 L2656,270 L2034,270 L2046.99625,252.418966 Z" id="Fill-1" fill="#3F4751"></path>
                <path d="M1735.99625,162.418966 C1735.99625,162.418966 1775.57247,146.907528 1785.61379,128.809446 C1795.65671,110.711364 1816.92068,71.4143172 1816.92068,71.4143172 C1816.92068,71.4143172 1824.59934,81.2396327 1828.734,80.2041318 C1832.86866,79.171441 1846.45558,66.245243 1846.45558,66.245243 L1860.04089,72.966866 L1877.76247,57.9710713 L1907.88803,67.7949818 C1907.88803,67.7949818 1978.77114,24.8785996 1984.6778,20.2251683 C1990.58446,15.570332 1994.71912,1.09439537 2000.03511,0.0588945113 C2005.3511,-0.975201324 2024.25401,11.9509966 2024.25401,11.9509966 C2024.25401,11.9509966 2036.06733,35.220963 2043.74599,34.703915 C2051.42625,34.1854621 2054.97024,15.570332 2054.97024,15.570332 C2054.97024,15.570332 2072.09955,30.0490788 2078.59687,37.8062025 C2085.0958,45.5619213 2092.77446,62.6259076 2101.04539,64.6926943 C2109.3131,66.7608859 2116.4027,68.3120297 2122.90002,68.8304826 C2129.39735,69.3475305 2138.848,82.2147176 2144.75466,81.2101272 C2150.66292,80.2041318 2164.8389,76.5847964 2173.10822,78.1373451 C2181.37754,79.6884889 2193.78313,90.0308523 2199.68979,90.0308523 C2205.59645,90.0308523 2215.63777,84.3419202 2219.77243,84.8589681 C2223.90709,85.376016 2243.40066,107.609076 2255.80465,115.883248 C2268.21023,124.15742 2333.18508,153.112103 2333.18508,153.112103 L2345,180 L1723,180 L1735.99625,162.418966 Z" id="Fill-1" fill="#3F4751"></path>
                <path d="M3426.99625,187.418966 C3426.99625,187.418966 3466.57247,171.907528 3476.61379,153.809446 C3486.65671,135.711364 3507.92068,96.4143172 3507.92068,96.4143172 C3507.92068,96.4143172 3515.59934,106.239633 3519.734,105.204132 C3523.86866,104.171441 3537.45558,91.245243 3537.45558,91.245243 L3551.04089,97.966866 L3568.76247,82.9710713 L3598.88803,92.7949818 C3598.88803,92.7949818 3669.77114,49.8785996 3675.6778,45.2251683 C3681.58446,40.570332 3685.71912,26.0943954 3691.03511,25.0588945 C3696.3511,24.0247987 3715.25401,36.9509966 3715.25401,36.9509966 C3715.25401,36.9509966 3727.06733,60.220963 3734.74599,59.703915 C3742.42625,59.1854621 3745.97024,40.570332 3745.97024,40.570332 C3745.97024,40.570332 3763.09955,55.0490788 3769.59687,62.8062025 C3776.0958,70.5619213 3783.77446,87.6259076 3792.04539,89.6926943 C3800.3131,91.7608859 3807.4027,93.3120297 3813.90002,93.8304826 C3820.39735,94.3475305 3829.848,107.214718 3835.75466,106.210127 C3841.66292,105.204132 3855.8389,101.584796 3864.10822,103.137345 C3872.37754,104.688489 3884.78313,115.030852 3890.68979,115.030852 C3896.59645,115.030852 3906.63777,109.34192 3910.77243,109.858968 C3914.90709,110.376016 3934.40066,132.609076 3946.80465,140.883248 C3959.21023,149.15742 4024.18508,178.112103 4024.18508,178.112103 L4036,205 L3414,205 L3426.99625,187.418966 Z" id="Fill-1" fill="#3F4751"></path>
                <path d="M4648.99625,231.418966 C4648.99625,231.418966 4688.57247,215.907528 4698.61379,197.809446 C4708.65671,179.711364 4729.92068,140.414317 4729.92068,140.414317 C4729.92068,140.414317 4737.59934,150.239633 4741.734,149.204132 C4745.86866,148.171441 4759.45558,135.245243 4759.45558,135.245243 L4773.04089,141.966866 L4790.76247,126.971071 L4820.88803,136.794982 C4820.88803,136.794982 4891.77114,93.8785996 4897.6778,89.2251683 C4903.58446,84.570332 4907.71912,70.0943954 4913.03511,69.0588945 C4918.3511,68.0247987 4937.25401,80.9509966 4937.25401,80.9509966 C4937.25401,80.9509966 4949.06733,104.220963 4956.74599,103.703915 C4964.42625,103.185462 4967.97024,84.570332 4967.97024,84.570332 C4967.97024,84.570332 4985.09955,99.0490788 4991.59687,106.806203 C4998.0958,114.561921 5005.77446,131.625908 5014.04539,133.692694 C5022.3131,135.760886 5029.4027,137.31203 5035.90002,137.830483 C5042.39735,138.347531 5051.848,151.214718 5057.75466,150.210127 C5063.66292,149.204132 5077.8389,145.584796 5086.10822,147.137345 C5094.37754,148.688489 5106.78313,159.030852 5112.68979,159.030852 C5118.59645,159.030852 5128.63777,153.34192 5132.77243,153.858968 C5136.90709,154.376016 5156.40066,176.609076 5168.80465,184.883248 C5181.21023,193.15742 5246.18508,222.112103 5246.18508,222.112103 L5258,249 L4636,249 L4648.99625,231.418966 Z" id="Fill-1" fill="#3F4751"></path>
                <path d="M4890.99625,172.418966 C4890.99625,172.418966 4930.57247,156.907528 4940.61379,138.809446 C4950.65671,120.711364 4971.92068,81.4143172 4971.92068,81.4143172 C4971.92068,81.4143172 4979.59934,91.2396327 4983.734,90.2041318 C4987.86866,89.171441 5001.45558,76.245243 5001.45558,76.245243 L5015.04089,82.966866 L5032.76247,67.9710713 L5062.88803,77.7949818 C5062.88803,77.7949818 5133.77114,34.8785996 5139.6778,30.2251683 C5145.58446,25.570332 5149.71912,11.0943954 5155.03511,10.0588945 C5160.3511,9.02479868 5179.25401,21.9509966 5179.25401,21.9509966 C5179.25401,21.9509966 5191.06733,45.220963 5198.74599,44.703915 C5206.42625,44.1854621 5209.97024,25.570332 5209.97024,25.570332 C5209.97024,25.570332 5227.09955,40.0490788 5233.59687,47.8062025 C5240.0958,55.5619213 5247.77446,72.6259076 5256.04539,74.6926943 C5264.3131,76.7608859 5271.4027,78.3120297 5277.90002,78.8304826 C5284.39735,79.3475305 5293.848,92.2147176 5299.75466,91.2101272 C5305.66292,90.2041318 5319.8389,86.5847964 5328.10822,88.1373451 C5336.37754,89.6884889 5348.78313,100.030852 5354.68979,100.030852 C5360.59645,100.030852 5370.63777,94.3419202 5374.77243,94.8589681 C5378.90709,95.376016 5398.40066,117.609076 5410.80465,125.883248 C5423.21023,134.15742 5488.18508,163.112103 5488.18508,163.112103 L5500,190 L4878,190 L4890.99625,172.418966 Z" id="Fill-1" fill="#3F4751"></path>
                <path d="M166.046529,120.26519 C166.046529,120.26519 233.901647,133.999334 244.564063,138.872482 C255.22648,143.746629 263.951865,146.848177 283.33748,148.619777 C302.727467,150.391376 325.991517,148.619777 325.991517,148.619777 C325.991517,148.619777 343.440101,155.265523 354.102517,155.709173 C364.767119,156.151823 396.754368,152.606625 410.324517,152.606625 C423.894666,152.606625 476.242604,157.038122 505.324305,157.923422 C534.403821,158.809722 603.229641,155.709173 603.229641,155.709173 C603.229641,155.709173 614.860572,151.720326 630.372125,154.380223 C645.881492,157.038122 712.765908,199.125853 846.539113,198.682204 C980.310131,198.239553 1114.08334,166.784418 1136.37887,165.011819 C1158.6744,163.24022 1179.03072,165.011819 1195.51079,161.467621 C1211.98867,157.923422 1218.77703,151.277676 1233.31569,147.290827 C1247.85435,143.303979 1311.83322,137.986182 1334.12876,133.113034 C1356.42429,128.239887 1359.33421,122.03679 1369.02593,122.03679 C1378.71983,122.03679 1389.38443,137.986182 1410.70926,137.100882 C1432.03409,136.214583 1422.34238,129.126186 1431.06558,127.797236 C1439.78878,126.468287 1451.42408,133.113034 1469.83899,130.898785 C1488.25828,128.683536 1503.76765,116.278342 1511.52233,115.392042 C1519.2792,114.505743 1551.26863,118.049941 1559.02113,115.392042 C1566.77581,112.734143 1561.93105,105.202097 1579.37745,102.544198 C1596.82603,99.8853002 1623,99 1623,99 L1614.98078,309 L0,309 L0,137.100882 L40.621886,115 L57.1930849,90 L69.202293,129.452584 L87.8304153,138.872482 L112.978026,122.03679 L133.47264,102.544198 C139.609321,105.882703 144.211833,108.386582 147.280173,110.055834 C151.450475,112.32458 157.705927,115.727699 166.046529,120.26519 Z" id="Fill-1" fill="#383F49"></path>
                <path d="M4356.04653,120.26519 C4356.04653,120.26519 4423.90165,133.999334 4434.56406,138.872482 C4445.22648,143.746629 4453.95186,146.848177 4473.33748,148.619777 C4492.72747,150.391376 4515.99152,148.619777 4515.99152,148.619777 C4515.99152,148.619777 4533.4401,155.265523 4544.10252,155.709173 C4554.76712,156.151823 4586.75437,152.606625 4600.32452,152.606625 C4613.89467,152.606625 4666.2426,157.038122 4695.32431,157.923422 C4724.40382,158.809722 4793.22964,155.709173 4793.22964,155.709173 C4793.22964,155.709173 4804.86057,151.720326 4820.37213,154.380223 C4835.88149,157.038122 4902.76591,199.125853 5036.53911,198.682204 C5170.31013,198.239553 5304.08334,166.784418 5326.37887,165.011819 C5348.6744,163.24022 5369.03072,165.011819 5385.51079,161.467621 C5401.98867,157.923422 5408.77703,151.277676 5423.31569,147.290827 C5437.85435,143.303979 5501.83322,137.986182 5524.12876,133.113034 C5546.42429,128.239887 5549.33421,122.03679 5559.02593,122.03679 C5568.71983,122.03679 5579.38443,137.986182 5600.70926,137.100882 C5622.03409,136.214583 5612.34238,129.126186 5621.06558,127.797236 C5629.78878,126.468287 5641.42408,133.113034 5659.83899,130.898785 C5678.25828,128.683536 5693.76765,116.278342 5701.52233,115.392042 C5709.2792,114.505743 5741.26863,118.049941 5749.02113,115.392042 C5756.77581,112.734143 5751.93105,105.202097 5769.37745,102.544198 C5786.82603,99.8853002 5818,102.544198 5818,102.544198 L5804.98078,309 L4190,309 L4190,137.100882 L4230.62189,115 L4247.19308,90 L4259.20229,129.452584 L4277.83042,138.872482 L4302.97803,122.03679 L4323.47264,102.544198 C4329.60932,105.882703 4334.21183,108.386582 4337.28017,110.055834 C4341.45047,112.32458 4347.70593,115.727699 4356.04653,120.26519 Z" id="Fill-1" fill="#383F49" transform="translate(5004.000000, 199.500000) scale(-1, 1) translate(-5004.000000, -199.500000) "></path>
                <path d="M1789.07594,120.26519 C1789.07594,120.26519 1856.52255,133.999334 1867.12078,138.872482 C1877.71901,143.746629 1886.39186,146.848177 1905.66077,148.619777 C1924.93402,150.391376 1948.05802,148.619777 1948.05802,148.619777 C1948.05802,148.619777 1965.40156,155.265523 1975.99978,155.709173 C1986.60018,156.151823 2018.39486,152.606625 2031.88331,152.606625 C2045.37177,152.606625 2097.40455,157.038122 2126.31118,157.923422 C2155.21563,158.809722 2223.6271,155.709173 2223.6271,155.709173 C2223.6271,155.709173 2235.18801,151.720326 2250.60618,154.380223 C2266.02217,157.038122 2332.50393,199.125853 2465.47178,198.682204 C2598.43746,198.239553 2731.40532,166.784418 2753.56663,165.011819 C2775.72794,163.24022 2795.9617,165.011819 2812.34256,161.467621 C2828.72124,157.923422 2835.46872,151.277676 2849.91986,147.290827 C2864.371,143.303979 2927.9647,137.986182 2950.12601,133.113034 C2972.28732,128.239887 2975.17972,122.03679 2984.81309,122.03679 C2994.44863,122.03679 3005.04903,137.986182 3026.24548,137.100882 C3047.44193,136.214583 3037.80856,129.126186 3046.47925,127.797236 C3055.14993,126.468287 3066.71518,133.113034 3085.01924,130.898785 C3103.32763,128.683536 3118.74363,116.278342 3126.45163,115.392042 C3134.1618,114.505743 3165.95865,118.049941 3173.66447,115.392042 C3181.37247,112.734143 3176.55687,105.202097 3193.89824,102.544198 C3211.24178,99.8853002 3237.25817,99 3237.25817,99 L3245,309 L1784.25817,309 L1605.25817,157.923422 L1664.40639,115 L1680.87782,90 L1692.81473,129.452584 L1711.33071,138.872482 L1736.32693,122.03679 L1756.69816,102.544198 C1762.79789,105.882703 1767.3727,108.386582 1770.42256,110.055834 C1774.56776,112.32458 1780.78555,115.727699 1789.07594,120.26519 Z" id="Fill-1" fill="#383F49" transform="translate(2425.129086, 199.500000) scale(-1, 1) translate(-2425.129086, -199.500000) "></path>
                <path d="M2769.30506,120.26519 C2769.30506,120.26519 2836.75167,133.999334 2847.3499,138.872482 C2857.94812,143.746629 2866.62098,146.848177 2885.88989,148.619777 C2905.16314,150.391376 2928.28713,148.619777 2928.28713,148.619777 C2928.28713,148.619777 2945.63067,155.265523 2956.2289,155.709173 C2966.8293,156.151823 2998.62397,152.606625 3012.11243,152.606625 C3025.60088,152.606625 3077.63367,157.038122 3106.54029,157.923422 C3135.44474,158.809722 3203.85621,155.709173 3203.85621,155.709173 C3203.85621,155.709173 3215.41712,151.720326 3230.83529,154.380223 C3246.25129,157.038122 3312.73304,199.125853 3445.7009,198.682204 C3578.66658,198.239553 3711.63443,166.784418 3733.79574,165.011819 C3755.95705,163.24022 3776.19082,165.011819 3792.57167,161.467621 C3808.95035,157.923422 3815.69784,151.277676 3830.14898,147.290827 C3844.60012,143.303979 3908.19382,137.986182 3930.35513,133.113034 C3952.51643,128.239887 3955.40884,122.03679 3965.0422,122.03679 C3974.67774,122.03679 3985.27814,137.986182 4006.47459,137.100882 C4027.67105,136.214583 4018.03768,129.126186 4026.70836,127.797236 C4035.37904,126.468287 4046.9443,133.113034 4065.24835,130.898785 C4083.55675,128.683536 4098.97274,116.278342 4106.68074,115.392042 C4114.39091,114.505743 4146.18776,118.049941 4153.89359,115.392042 C4161.60159,112.734143 4156.78599,105.202097 4174.12735,102.544198 C4191.47089,99.8853002 4225.22912,102.544198 4225.22912,102.544198 L4225.22912,309 L2764.48729,309 L2602.8993,153.937573 L2643.27663,131.836691 L2659.74807,106.836691 L2671.68498,146.289275 L2692.43446,130.898785 L2715.19717,138.873481 L2736.92727,102.544198 C2743.02701,105.882703 2747.60181,108.386582 2750.65168,110.055834 C2754.79687,112.32458 2761.01467,115.727699 2769.30506,120.26519 Z" id="Fill-1" fill="#383F49"></path>
                <g id="编组" transform="translate(0.000000, 189.000000)">
                    <polygon id="Fill-1" fill="#3F3A3A" points="39 120 74 120 74 0 39 0"></polygon>
                    <polygon id="Fill-1" fill="#3F3A3A" points="1006 120 1041 120 1041 0 1006 0"></polygon>
                    <polygon id="Fill-1" fill="#3F3A3A" points="1423 120 1458 120 1458 0 1423 0"></polygon>
                    <polygon id="Fill-1" fill="#3F3A3A" points="39 120 74 120 74 0 39 0"></polygon>
                    <polygon id="Fill-2" fill="#3F3A3A" points="478 120 513 120 513 0 478 0"></polygon>
                    <polygon id="Fill-3" fill="#262C33" points="0 56 1440 56 1440 21 0 21"></polygon>
                </g>
                <g id="编组" transform="translate(1384.000000, 189.000000)">
                    <polygon id="Fill-1" fill="#3F3A3A" points="39 120 74 120 74 0 39 0"></polygon>
                    <polygon id="Fill-1" fill="#3F3A3A" points="1006 120 1041 120 1041 0 1006 0"></polygon>
                    <polygon id="Fill-1" fill="#3F3A3A" points="1423 120 1458 120 1458 0 1423 0"></polygon>
                    <polygon id="Fill-1" fill="#3F3A3A" points="39 120 74 120 74 0 39 0"></polygon>
                    <polygon id="Fill-2" fill="#3F3A3A" points="478 120 513 120 513 0 478 0"></polygon>
                    <polygon id="Fill-3" fill="#262C33" points="0 56 1440 56 1440 21 0 21"></polygon>
                </g>
                <g id="编组" transform="translate(2767.000000, 189.000000)">
                    <polygon id="Fill-1" fill="#3F3A3A" points="39 120 74 120 74 0 39 0"></polygon>
                    <polygon id="Fill-1" fill="#3F3A3A" points="1006 120 1041 120 1041 0 1006 0"></polygon>
                    <polygon id="Fill-1" fill="#3F3A3A" points="1423 120 1458 120 1458 0 1423 0"></polygon>
                    <polygon id="Fill-1" fill="#3F3A3A" points="39 120 74 120 74 0 39 0"></polygon>
                    <polygon id="Fill-2" fill="#3F3A3A" points="478 120 513 120 513 0 478 0"></polygon>
                    <polygon id="Fill-3" fill="#262C33" points="0 56 1440 56 1440 21 0 21"></polygon>
                </g>
                <g id="编组" transform="translate(4153.000000, 189.000000)">
                    <polygon id="Fill-1" fill="#3F3A3A" points="39 120 74 120 74 0 39 0"></polygon>
                    <polygon id="Fill-1" fill="#3F3A3A" points="1006 120 1041 120 1041 0 1006 0"></polygon>
                    <polygon id="Fill-1" fill="#3F3A3A" points="1423 120 1458 120 1458 0 1423 0"></polygon>
                    <polygon id="Fill-1" fill="#3F3A3A" points="39 120 74 120 74 0 39 0"></polygon>
                    <polygon id="Fill-2" fill="#3F3A3A" points="478 120 513 120 513 0 478 0"></polygon>
                    <polygon id="Fill-3" fill="#262C33" points="0 56 1440 56 1440 21 0 21"></polygon>
                    <polygon id="Fill-3" fill="#262C33" points="1365 56 1665 56 1665 21 1365 21"></polygon>
                </g>
            </g>
            <rect id="矩形" fill="#474A4F" x="0" y="309" width="5818" height="134"></rect>
        </g>
    </g>
</svg>