<?xml version="1.0" encoding="UTF-8"?>
<svg width="1089px" height="476px" viewBox="0 0 1089 476" version="1.1" xmlns="http://www.w3.org/2000/svg" xmlns:xlink="http://www.w3.org/1999/xlink">
    <title>Group 2</title>
    <g id="页面-1" stroke="none" stroke-width="1" fill="none" fill-rule="evenodd">
        <g id="桌面端-HD" transform="translate(-234.000000, -306.000000)">
            <g id="Group-2" transform="translate(234.000000, 310.000000)">
                <g id="编组-4" transform="translate(343.000000, 0.000000)">
                    <rect id="矩形" stroke="#3F3A3A" stroke-width="11" fill="#6C6C6C" x="52" y="60" width="103" height="77" rx="17"></rect>
                    <rect id="矩形" stroke="#3F3A3A" stroke-width="11" fill="#B1B1B1" x="72" y="60" width="103" height="77" rx="17"></rect>
                    <g id="编组-5" transform="translate(212.000000, 118.459793)" stroke="#3F3A3A" stroke-width="11">
                        <polygon id="矩形" fill="#934242" points="0 17.5402067 28.6057311 17.5402067 42 40.8475009 42 100.540207 0 100.540207"></polygon>
                        <path d="M39.310947,28.3265371 C48.8944391,15.8995178 61.160608,4.318764 76.4990195,2.27373675e-13" id="路径-6" stroke-linecap="round"></path>
                    </g>
                    <rect id="矩形" fill="#969696" x="77" y="82" width="93" height="10"></rect>
                    <path d="M24,118 L163,118 C176.254834,118 187,128.745166 187,142 L187,414 L187,414 L0,414 L0,142 C5.48217835e-15,128.745166 10.745166,118 24,118 Z" id="矩形" stroke="#3F3A3A" stroke-width="7" fill="#934242"></path>
                    <path d="M61,118 L200,118 C213.254834,118 224,128.745166 224,142 L224,414 L224,414 L37,414 L37,142 C37,128.745166 47.745166,118 61,118 Z" id="矩形" stroke="#3F3A3A" stroke-width="7" fill="#C35858"></path>
                    <rect id="矩形" stroke="#3F3A3A" stroke-width="7" fill="#934242" x="7" y="0" width="187" height="77" rx="17"></rect>
                    <rect id="矩形" stroke="#3F3A3A" stroke-width="7" fill="#C35858" x="30" y="0" width="187" height="77" rx="17"></rect>
                    <rect id="矩形" stroke="#3F3A3A" stroke-width="7" fill="#FFFFFF" x="45" y="14" width="158" height="49" rx="8"></rect>
                    <rect id="矩形" stroke="#3F3A3A" stroke-width="7" fill="#969696" x="118" y="160" width="27" height="40" rx="1"></rect>
                    <rect id="矩形" stroke="#3F3A3A" stroke-width="7" fill="#969696" x="158" y="160" width="27" height="40" rx="1"></rect>
                    <rect id="矩形" stroke="#3F3A3A" stroke-width="7" fill="#969696" x="77" y="160" width="27" height="40" rx="1"></rect>
                    <path d="M230,410 C264.912209,393.72062 282.368314,366.278983 282.368314,327.675087 C282.368314,289.071191 268.206608,254.687584 239.883196,224.524265" id="路径-5" stroke="#3F3A3A" stroke-width="21" stroke-linecap="round"></path>
                </g>
                <g id="编组-2" transform="translate(0.000000, 115.000000)">
                    <ellipse id="椭圆形" fill="#2C2C2C" cx="496.5" cy="319.5" rx="90.5" ry="6.5"></ellipse>
                    <ellipse id="椭圆形" fill="#2C2C2C" cx="707.5" cy="332.5" rx="90.5" ry="6.5"></ellipse>
                    <ellipse id="椭圆形" fill="#2C2C2C" cx="974.5" cy="332.5" rx="90.5" ry="6.5"></ellipse>
                    <g id="编组" transform="translate(380.000000, 0.000000)">
                        <path d="M106,259.5 C106,292.360644 86.9724527,319 63.500578,319 C40.0281253,319 21,292.360644 21,259.5 C21,226.639356 40.0281253,200 63.500578,200 C86.9724527,200 127.231831,287.139356 127.231831,320" id="Fill-1" fill="#EFD2AB"></path>
                        <path d="M106,257.5 C106,290.360644 86.9724527,317 63.500578,317 C40.0281253,317 21,290.360644 21,257.5 C21,224.639356 40.0281253,198 63.500578,198 C86.9724527,198 106,224.639356 106,257.5 Z" id="Stroke-3" stroke="#3F3A3A" stroke-width="6" stroke-linecap="round" stroke-linejoin="round"></path>
                        <path d="M25,280 L89.4497734,280 C92.0877016,290.370967 94.7226891,297.037634 97.3547358,300 C99.9867825,302.962366 107.951442,309.295699 121.248713,319 L57.4497734,319 C46.5986275,314.161825 39.0962408,309.151398 34.9426132,303.968719 C30.7889857,298.786039 27.4747813,290.796466 25,280 Z" id="路径-2" fill="#363B42"></path>
                        <path d="M503,290 L567.449773,290 C570.087702,300.370967 572.722689,307.037634 575.354736,310 C577.986782,312.962366 585.951442,319.295699 599.248713,329 L535.449773,329 C524.598628,324.161825 517.096241,319.151398 512.942613,313.968719 C508.788986,308.786039 505.474781,300.796466 503,290 Z" id="路径-2" fill="#363B42"></path>
                        <path d="M166,257.5 C166,290.360644 146.972453,317 123.500578,317 C100.028125,317 81,290.360644 81,257.5 C81,224.639356 100.028125,198 123.500578,198 C146.972453,198 166,224.639356 166,257.5" id="Fill-7" fill="#363B42"></path>
                        <path d="M166,257.5 C166,290.360644 146.972453,317 123.500578,317 C100.028125,317 81,290.360644 81,257.5 C81,224.639356 100.028125,198 123.500578,198 C146.972453,198 166,224.639356 166,257.5 Z" id="Stroke-9" stroke="#3F3A3A" stroke-width="6" stroke-linecap="round" stroke-linejoin="round"></path>
                        <path d="M326,270.5 C326,303.360644 306.972453,330 283.500578,330 C260.028125,330 241,303.360644 241,270.5 C241,237.639356 260.028125,211 283.500578,211 C306.972453,211 326,237.639356 326,270.5" id="Fill-11" fill="#EFD2AB"></path>
                        <path d="M244,290 L308.449773,290 C311.087702,300.370967 313.722689,307.037634 316.354736,310 C318.986782,312.962366 326.951442,319.295699 340.248713,329 L276.449773,329 C265.598628,324.161825 258.096241,319.151398 253.942613,313.968719 C249.788986,308.786039 246.474781,300.796466 244,290 Z" id="路径-2" fill="#363B42"></path>
                        <path d="M326,270.5 C326,303.360644 306.972453,330 283.500578,330 C260.028125,330 241,303.360644 241,270.5 C241,237.639356 260.028125,211 283.500578,211 C306.972453,211 326,237.639356 326,270.5 Z" id="Stroke-13" stroke="#3F3A3A" stroke-width="6" stroke-linecap="round" stroke-linejoin="round"></path>
                        <path d="M542.499711,330 C519.027677,330 500,303.360644 500,270.5 C500,237.639356 519.027677,211 542.499711,211 C565.971745,211 585,237.639356 585,270.5" id="Stroke-25" stroke="#3F3A3A" stroke-width="6" stroke-linecap="round" stroke-linejoin="round"></path>
                        <path d="M157.558312,122.628713 L151.314484,115.760107 C151.314484,115.760107 147.71976,119.194697 138.449036,119.194697 C129.177743,119.194697 118.393002,105.074779 130.312829,93.0548607 C142.232657,81.0343689 160.396312,94.771582 154.34195,107.842074 C148.287588,120.911992 152.449571,112.898139 152.449571,112.898139" id="Fill-27" fill="#FFFFFF"></path>
                        <path d="M157.558312,122.628713 L151.314484,115.760107 C151.314484,115.760107 147.71976,119.194697 138.449036,119.194697 C129.177743,119.194697 118.393002,105.074779 130.312829,93.0548607 C142.232657,81.0343689 160.396312,94.771582 154.34195,107.842074 C148.287588,120.911992 152.449571,112.898139 152.449571,112.898139" id="Stroke-29" stroke="#3F3A3A" stroke-width="6" stroke-linecap="round" stroke-linejoin="round"></path>
                        <path d="M411.231924,110 L116.272015,110 C116.272015,110 104.244,110.573031 95.0807559,119.738083 C85.9169373,128.903136 85.3445575,145.514721 85.3445575,145.514721 L23.6159455,145.514721 C23.6159455,145.514721 4.58847778,151.242735 4.01494972,170.145871 C3.44256987,189.048432 19.4795395,208.524599 22.3425869,218.262108 C25.2067826,228.000191 22.3425869,258.931812 22.3425869,258.931812 L316.157736,258.931812 C316.157736,258.931812 324.748027,213.106551 347.658147,213.106551 C370.567694,213.106551 379.731513,231.436655 379.731513,231.436655 C379.731513,231.436655 388.895331,244.038746 388.895331,258.931812 C388.895331,273.824879 390.040665,287 390.040665,287 L572.171129,287 C572.171129,287 565.870932,211.961063 608.25345,211.961063 C650.635967,211.961063 651.208921,267.524407 651.208921,267.524407 C651.208921,267.524407 652.927209,276.68946 658.082072,280.125924 C663.236361,283.562962 671.827226,282.417474 671.827226,282.417474 C671.827226,282.417474 668.963604,264.087369 671.827226,260.650331 C674.690848,257.213867 685,258.359355 685,258.359355 L677.555043,157.54378 C677.555043,157.54378 676.854639,153.27935 672.018402,149.461056 C667.181591,145.641615 661.073144,146.405273 661.073144,146.405273 L661.327472,126.29349 L516.488387,126.29349 L516.488387,110 L495.742057,110 L411.231924,110 Z" id="Fill-30" fill="#F6BB5E"></path>
                        <path d="M74.1159153,185.5778 L224.980609,184.678724 C234.966129,184.785272 247.637675,192.422308 250.293315,204 L261.673712,241.873841 C263.235049,248.681944 258.997879,255.418754 253.125769,255.462627 L45.8089654,257 C38.4660586,257.054579 36.2921324,248.477466 38.5152621,240.060959 L50,207.198984 C53.8183376,192.746847 61.5092782,185.443048 74.1159153,185.5778 Z" id="Stroke-88" fill="#FAD293"></path>
                        <path d="M411.231924,110 L116.272015,110 C116.272015,110 104.244,110.573031 95.0807559,119.738083 C85.9169373,128.903136 85.3445575,145.514721 85.3445575,145.514721 L23.6159455,145.514721 C23.6159455,145.514721 4.58847778,151.242735 4.01494972,170.145871 C3.44256987,189.048432 19.4795395,208.524599 22.3425869,218.262108 C25.2067826,228.000191 22.3425869,258.931812 22.3425869,258.931812 L316.157736,258.931812 C316.157736,258.931812 324.748027,213.106551 347.658147,213.106551 C370.567694,213.106551 379.731513,231.436655 379.731513,231.436655 C379.731513,231.436655 388.895331,244.038746 388.895331,258.931812 C388.895331,273.824879 390.040665,287 390.040665,287 L572.171129,287 C572.171129,287 565.870932,211.961063 608.25345,211.961063 C650.635967,211.961063 651.208921,267.524407 651.208921,267.524407 C651.208921,267.524407 652.927209,276.68946 658.082072,280.125924 C663.236361,283.562962 671.827226,282.417474 671.827226,282.417474 C671.827226,282.417474 668.963604,264.087369 671.827226,260.650331 C674.690848,257.213867 685,258.359355 685,258.359355 L677.555043,157.54378 C677.555043,157.54378 676.854639,153.27935 672.018402,149.461056 C667.181591,145.641615 661.073144,146.405273 661.073144,146.405273 L661.327472,126.29349 L516.488387,126.29349 L516.488387,110 L495.742057,110 L411.231924,110 Z" id="Stroke-32" stroke="#3F3A3A" stroke-width="6" stroke-linecap="round" stroke-linejoin="round"></path>
                        <path d="M21.4011605,258.187294 C21.4011605,258.187294 0,255.096369 0,274.027634 C0,292.957738 15.4773993,291.991715 15.4773993,291.991715 L309.748528,291.991715 C309.748528,291.991715 311.722923,291.026273 313.124422,288.90137 C314.525347,286.776468 313.824884,259.088838 313.824884,259.088838 L21.4011605,258.187294 Z" id="Fill-34" fill="#C3C3C3"></path>
                        <path d="M21.4011605,258.187294 C21.4011605,258.187294 0,255.096369 0,274.027634 C0,292.957738 15.4773993,291.991715 15.4773993,291.991715 L309.748528,291.991715 C309.748528,291.991715 311.722923,291.026273 313.124422,288.90137 C314.525347,286.776468 313.824884,259.088838 313.824884,259.088838 L21.4011605,258.187294 Z" id="Stroke-36" stroke="#3F3A3A" stroke-width="6" stroke-linecap="round" stroke-linejoin="round"></path>
                        <path d="M685.598132,258.328403 C685.598132,258.328403 699.959964,256.514849 703.55099,261.955511 C707.141448,267.396748 705.724132,286.010507 705.724132,286.010507 C705.724132,286.010507 704.684729,289.828213 700.811263,291.164697 C696.93666,292.501182 679.361147,291.832939 679.361147,291.832939 C679.361147,291.832939 674.920527,291.35587 673.786788,287.537589 C672.653049,283.719883 671.613646,281.237512 671.613646,281.237512 C671.613646,281.237512 669.534272,263.864939 673.030962,260.33313 C676.527083,256.801321 685.598132,258.328403 685.598132,258.328403" id="Fill-38" fill="#C3C3C3"></path>
                        <path d="M685.598132,258.328403 C685.598132,258.328403 699.959964,256.514849 703.55099,261.955511 C707.141448,267.396748 705.724132,286.010507 705.724132,286.010507 C705.724132,286.010507 704.684729,289.828213 700.811263,291.164697 C696.93666,292.501182 679.361147,291.832939 679.361147,291.832939 C679.361147,291.832939 674.920527,291.35587 673.786788,287.537589 C672.653049,283.719883 671.613646,281.237512 671.613646,281.237512 C671.613646,281.237512 669.534272,263.864939 673.030962,260.33313 C676.527083,256.801321 685.598132,258.328403 685.598132,258.328403 Z" id="Stroke-40" stroke="#3F3A3A" stroke-width="6" stroke-linecap="round" stroke-linejoin="round"></path>
                        <path d="M515,127 L665.061593,127 C665.061593,127 673,126.323814 673,119.112608 C673,111.901401 664.293453,111 664.293453,111 L515,111 L515,127 Z" id="Fill-42" fill="#FFFFFF"></path>
                        <path d="M515,127 L665.061593,127 C665.061593,127 673,126.323814 673,119.112608 C673,111.901401 664.293453,111 664.293453,111 L515,111 L515,127 Z" id="Stroke-44" stroke="#3F3A3A" stroke-width="6" stroke-linecap="round" stroke-linejoin="round"></path>
                        <path d="M514.866154,111 L517.351749,145.476167 C517.351749,145.476167 525,151.381048 525,163.571142 C525,175.761809 520.79352,182.809404 520.79352,182.809404 L518.881169,271 L415.824125,271 L418.500611,183.381048 C418.500611,183.381048 422.133846,174.047452 422.133846,163.190238 C422.133846,152.333596 415.059415,144.904523 415.059415,144.904523 L412,111 L514.866154,111 Z" id="Fill-46" fill="#FBCC81"></path>
                        <path d="M514.866154,111 L517.351749,145.476167 C517.351749,145.476167 525,151.381048 525,163.571142 C525,175.761809 520.79352,182.809404 520.79352,182.809404 L518.881169,271 L415.824125,271 L418.500611,183.381048 C418.500611,183.381048 422.133846,174.047452 422.133846,163.190238 C422.133846,152.333596 415.059415,144.904523 415.059415,144.904523 L412,111 L514.866154,111 Z" id="Stroke-48" stroke="#3F3A3A" stroke-width="6" stroke-linecap="round" stroke-linejoin="round"></path>
                        <path d="M161,111 L178.177343,43.8611864 C178.177343,43.8611864 184.2846,24.6237935 199.171363,13.8509923 C214.058126,3.07761262 230.853801,0 230.853801,0 L422.220271,0 C422.220271,0 444.614122,0.962043195 456.574383,13.0173758 C468.534644,25.0727084 470.316143,25.3289833 474.896729,35.0766849 C479.477316,44.8232296 495,109.717469 495,109.717469 L161,111 Z" id="Fill-50" fill="#FFE3B5"></path>
                        <path d="M161,111 L178.177343,43.8611864 C178.177343,43.8611864 184.2846,24.6237935 199.171363,13.8509923 C214.058126,3.07761262 230.853801,0 230.853801,0 L422.220271,0 C422.220271,0 444.614122,0.962043195 456.574383,13.0173758 C468.534644,25.0727084 470.316143,25.3289833 474.896729,35.0766849 C479.477316,44.8232296 495,109.717469 495,109.717469 L161,111 Z" id="Stroke-52" stroke="#3F3A3A" stroke-width="6" stroke-linecap="round" stroke-linejoin="round"></path>
                        <path d="M175.274232,47.511208 C175.274232,47.511208 180.874324,39.1284184 186.984247,35.5723786 C193.093595,32.0157658 199.457284,31 199.457284,31 L367.214902,31 C367.214902,31 381.724963,33.0321046 386.307118,37.350685 C390.889272,41.6686924 395.217086,47.511208 395.217086,47.511208 L411,110 L160,110 L175.274232,47.511208 Z" id="Fill-54" fill="#5B99B8"></path>
                        <path d="M175.274232,47.511208 C175.274232,47.511208 180.874324,39.1284184 186.984247,35.5723786 C193.093595,32.0157658 199.457284,31 199.457284,31 L367.214902,31 C367.214902,31 381.724963,33.0321046 386.307118,37.350685 C390.889272,41.6686924 395.217086,47.511208 395.217086,47.511208 L411,110 L160,110 L175.274232,47.511208 Z" id="Stroke-56" stroke="#3F3A3A" stroke-width="6" stroke-linecap="round" stroke-linejoin="round"></path>
                        <path d="M237,169.774052 C237,169.774052 241.107096,156.983612 249.70448,151.246495 C258.301289,145.509944 263.523489,146.011086 263.523489,146.011086 L517.358009,146.011086 C517.358009,146.011086 525,156.419686 525,164.506968 C525,172.594816 520.796388,182 520.796388,182 L287.340511,182 L237,169.774052 Z" id="Stroke-58" stroke="#3F3A3A" stroke-width="6" stroke-linecap="round" stroke-linejoin="round"></path>
                        <path d="M430.026612,109 L476.762683,108.767711 C478.23025,108.750036 479.292343,107.361133 478.927872,105.938591 L462.486219,41.7406008 C460.34381,33.3763948 452.648905,27.6531568 444.032001,28.0163469 L417.943812,29.1144697 C412.457946,29.3453834 408.709584,34.7561752 410.415766,39.9810957 L427.074963,106.884482 C427.491827,108.159353 428.68661,109.016299 430.026612,109" id="Fill-60" fill="#5B99B8"></path>
                        <path d="M430.026612,109 L476.762683,108.767711 C478.23025,108.750036 479.292343,107.361133 478.927872,105.938591 L462.486219,41.7406008 C460.34381,33.3763948 452.648905,27.6531568 444.032001,28.0163469 L417.943812,29.1144697 C412.457946,29.3453834 408.709584,34.7561752 410.415766,39.9810957 L427.074963,106.884482 C427.491827,108.159353 428.68661,109.016299 430.026612,109 Z" id="Stroke-62" stroke="#3F3A3A" stroke-width="6" stroke-linecap="round" stroke-linejoin="round"></path>
                        <line x1="426.33161" y1="30.5221648" x2="449.495707" y2="110.5707" id="Fill-64" fill="#EFD2AB"></line>
                        <line x1="426.33161" y1="30.5221648" x2="449.495707" y2="110.5707" id="Stroke-66" stroke="#3F3A3A" stroke-width="6" stroke-linecap="round" stroke-linejoin="round"></line>
                        <path d="M422.140079,128.90616 L428.383907,122.122027 C428.383907,122.122027 431.978631,125.51466 441.249355,125.51466 C450.520648,125.51466 461.30539,111.56956 449.385562,99.6978933 C437.465734,87.8262267 419.302079,101.393927 425.356441,114.302027 C431.410803,127.210127 427.248821,119.295493 427.248821,119.295493" id="Fill-67" fill="#FFFFFF"></path>
                        <path d="M422.140079,128.90616 L428.383907,122.122027 C428.383907,122.122027 431.978631,125.51466 441.249355,125.51466 C450.520648,125.51466 461.30539,111.56956 449.385562,99.6978933 C437.465734,87.8262267 419.302079,101.393927 425.356441,114.302027 C431.410803,127.210127 427.248821,119.295493 427.248821,119.295493" id="Stroke-69" stroke="#3F3A3A" stroke-width="6" stroke-linecap="round" stroke-linejoin="round"></path>
                        <path d="M5.60798953,168 L34.388495,168 C34.388495,168 54,175.524235 54,189.275362 C54,203.027075 52.2169792,211.589418 43.8119665,211.589418 C35.4069537,211.589418 28.5304906,214.443337 17.3239983,205.102706 C6.1175061,195.762074 5.60798953,191.870632 3.57049771,185.38392 C1.53300589,178.897208 5.60798953,168 5.60798953,168" id="Fill-70" fill="#848991"></path>
                        <path d="M5.60798953,168 L34.388495,168 C34.388495,168 54,175.524235 54,189.275362 C54,203.027075 52.2169792,211.589418 43.8119665,211.589418 C35.4069537,211.589418 28.5304906,214.443337 17.3239983,205.102706 C6.1175061,195.762074 5.60798953,191.870632 3.57049771,185.38392 C1.53300589,178.897208 5.60798953,168 5.60798953,168 Z" id="Stroke-72" stroke="#3F3A3A" stroke-width="6" stroke-linecap="round" stroke-linejoin="round"></path>
                        <path d="M266.682462,169 C266.682462,169 281.838396,174.938076 285.435033,184.233317 C289.031091,193.528558 290.82941,207.772486 276.958486,212.785813 C263.086404,217.799723 248.701012,205.664431 248.701012,205.664431 C248.701012,205.664431 239.710577,196.627165 237.141716,187.07395 C234.572855,177.520734 237.141716,169 237.141716,169 L266.682462,169 Z" id="Fill-74" fill="#848991"></path>
                        <path d="M237.141716,169 L266.682462,169 C266.682462,169 281.838396,174.938076 285.435033,184.233317 C289.031091,193.528558 290.82941,207.772486 276.958486,212.785813 C263.086404,217.799723 248.701012,205.664431 248.701012,205.664431 C248.701012,205.664431 239.710577,196.627165 237.141716,187.07395 C234.572855,177.520734 237.141716,169 237.141716,169 Z" id="Stroke-76" stroke="#3F3A3A" stroke-width="6" stroke-linecap="round" stroke-linejoin="round"></path>
                        <path d="M47,189.999716 C47,198.836669 39.8369235,206 31.0002841,206 C22.1636448,206 15,198.836669 15,189.999716 C15,181.163331 22.1636448,174 31.0002841,174 C39.8369235,174 47,181.163331 47,189.999716" id="Fill-78" fill="#FAD39F"></path>
                        <path d="M47,189.999716 C47,198.836669 39.8369235,206 31.0002841,206 C22.1636448,206 15,198.836669 15,189.999716 C15,181.163331 22.1636448,174 31.0002841,174 C39.8369235,174 47,181.163331 47,189.999716 Z" id="Stroke-80" stroke="#3F3A3A" stroke-width="6" stroke-linecap="round" stroke-linejoin="round"></path>
                        <path d="M281,188 C281,196.836796 273.836924,204 265.000284,204 C256.163645,204 249,196.836796 249,188 C249,179.163204 256.163645,172 265.000284,172 C273.836924,172 281,179.163204 281,188" id="Fill-82" fill="#FAD39F"></path>
                        <path d="M281,188 C281,196.836796 273.836924,204 265.000284,204 C256.163645,204 249,196.836796 249,188 C249,179.163204 256.163645,172 265.000284,172 C273.836924,172 281,179.163204 281,188 Z" id="Stroke-84" stroke="#3F3A3A" stroke-width="6" stroke-linecap="round" stroke-linejoin="round"></path>
                        <path d="M82.5808702,193.001005 L221.240187,194.225015 C230.066673,194.302766 237.770992,200.182703 240.118389,208.63129 L247.711585,235.961992 C249.091695,240.930067 245.34634,245.846118 240.155813,245.878133 L59.6222184,247 C53.1316132,247.039828 48.490367,240.780854 50.4554549,234.639078 L58.1557435,210.577357 C61.5308812,200.031203 71.4375035,192.902672 82.5808702,193.001005" id="Fill-86" fill="#B4B4B4"></path>
                        <path d="M82.5808702,193.001005 L221.240187,194.225015 C230.066673,194.302766 237.770992,200.182703 240.118389,208.63129 L247.711585,235.961992 C249.091695,240.930067 245.34634,245.846118 240.155813,245.878133 L59.6222184,247 C53.1316132,247.039828 48.490367,240.780854 50.4554549,234.639078 L58.1557435,210.577357 C61.5308812,200.031203 71.4375035,192.902672 82.5808702,193.001005 Z" id="Stroke-88" stroke="#3F3A3A" stroke-width="6" stroke-linecap="round" stroke-linejoin="round"></path>
                        <line x1="66.2253829" y1="185.5778" x2="210.88072" y2="185.5778" id="Fill-90" fill="#EFD2AB"></line>
                        <line x1="66.2253829" y1="185.5778" x2="210.88072" y2="185.5778" id="Stroke-92" stroke="#3F3A3A" stroke-width="6" stroke-linecap="round" stroke-linejoin="round"></line>
                        <path d="M279,227.5 C279,231.642387 275.641957,235 271.500277,235 C267.358043,235 264,231.642387 264,227.5 C264,223.357613 267.358043,220 271.500277,220 C275.641957,220 279,223.357613 279,227.5" id="Fill-93" fill="#EFD2AB"></path>
                        <path d="M279,227.5 C279,231.642387 275.641957,235 271.500277,235 C267.358043,235 264,231.642387 264,227.5 C264,223.357613 267.358043,220 271.500277,220 C275.641957,220 279,223.357613 279,227.5 Z" id="Stroke-95" stroke="#3F3A3A" stroke-width="6" stroke-linecap="round" stroke-linejoin="round"></path>
                        <path d="M41,225.500277 C41,229.642818 37.6419566,233 33.5002773,233 C29.3580434,233 26,229.642818 26,225.500277 C26,221.357737 29.3580434,218 33.5002773,218 C37.6419566,218 41,221.357737 41,225.500277" id="Fill-97" fill="#EFD2AB"></path>
                        <path d="M41,225.500277 C41,229.642818 37.6419566,233 33.5002773,233 C29.3580434,233 26,229.642818 26,225.500277 C26,221.357737 29.3580434,218 33.5002773,218 C37.6419566,218 41,221.357737 41,225.500277 Z" id="Stroke-99" stroke="#3F3A3A" stroke-width="6" stroke-linecap="round" stroke-linejoin="round"></path>
                        <line x1="478.011193" y1="126.58955" x2="502.573693" y2="126.58955" id="Fill-101" fill="#EFD2AB"></line>
                        <line x1="478.011193" y1="126.58955" x2="502.573693" y2="126.58955" id="Stroke-103" stroke="#3F3A3A" stroke-width="6" stroke-linecap="round" stroke-linejoin="round"></line>
                        <path d="M311,221 C311,221 323.319103,208.26409 330.900352,204.892704 C338.481601,201.521317 357.623372,198.150494 371.269278,204.892704 C384.914615,211.635476 387,218.190699 387,218.190699" id="Stroke-104" stroke="#3F3A3A" stroke-width="6" stroke-linecap="round" stroke-linejoin="round"></path>
                        <path d="M570,219 C570,219 582.319103,206.26409 589.900352,202.892704 C597.481601,199.521317 616.623372,196.150494 630.269278,202.892704 C643.914615,209.635476 646,216.190699 646,216.190699" id="Stroke-106" stroke="#3F3A3A" stroke-width="6" stroke-linecap="round" stroke-linejoin="round"></path>
                        <path d="M66.15968,186 C66.15968,186 54,184.5182 54,166.740613 C54,148.963027 73,146 73,146" id="Stroke-108" stroke="#3F3A3A" stroke-width="6" stroke-linecap="round" stroke-linejoin="round"></path>
                        <line x1="78.509425" y1="208.4001" x2="219.727852" y2="208.4001" id="Fill-110" fill="#EFD2AB"></line>
                        <line x1="78.509425" y1="208.4001" x2="219.727852" y2="208.4001" id="Stroke-112" stroke="#3F3A3A" stroke-width="6" stroke-linecap="round" stroke-linejoin="round"></line>
                        <line x1="69.4721434" y1="221.2912" x2="228.837878" y2="221.2912" id="Fill-113" fill="#EFD2AB"></line>
                        <line x1="69.4721434" y1="221.2912" x2="228.837878" y2="221.2912" id="Stroke-115" stroke="#3F3A3A" stroke-width="6" stroke-linecap="round" stroke-linejoin="round"></line>
                        <line x1="64.4218698" y1="233.25605" x2="232.448544" y2="233.25605" id="Fill-116" fill="#EFD2AB"></line>
                        <line x1="64.4218698" y1="233.25605" x2="232.448544" y2="233.25605" id="Stroke-118" stroke="#3F3A3A" stroke-width="6" stroke-linecap="round" stroke-linejoin="round"></line>
                        <line x1="144.25835" y1="196.36749" x2="144.25835" y2="246.581047" id="Fill-119" fill="#EFD2AB"></line>
                        <line x1="144.25835" y1="196.36749" x2="144.25835" y2="246.581047" id="Stroke-121" stroke="#3F3A3A" stroke-width="6" stroke-linecap="round" stroke-linejoin="round"></line>
                        <path d="M393,270.5 C393,303.360644 373.972004,330 350.500289,330 C327.027996,330 308,303.360644 308,270.5 C308,237.639356 327.027996,211 350.500289,211 C373.972004,211 393,237.639356 393,270.5" id="Fill-122" fill="#363B42"></path>
                        <path d="M393,270.5 C393,303.360644 373.972004,330 350.500289,330 C327.027996,330 308,303.360644 308,270.5 C308,237.639356 327.027996,211 350.500289,211 C373.972004,211 393,237.639356 393,270.5 Z" id="Stroke-124" stroke="#3F3A3A" stroke-width="6" stroke-linecap="round" stroke-linejoin="round"></path>
                        <path d="M653,270.5 C653,303.360644 633.524017,330 609.500578,330 C585.475983,330 566,303.360644 566,270.5 C566,237.639356 585.475983,211 609.500578,211 C633.524017,211 653,237.639356 653,270.5" id="Fill-126" fill="#363B42"></path>
                        <path d="M653,270.5 C653,303.360644 633.524017,330 609.500578,330 C585.475983,330 566,303.360644 566,270.5 C566,237.639356 585.475983,211 609.500578,211 C633.524017,211 653,237.639356 653,270.5 Z" id="Stroke-128" stroke="#3D3A39" stroke-width="6" stroke-linecap="round" stroke-linejoin="round"></path>
                        <line x1="350.769895" y1="330.5002" x2="283.538641" y2="330.5002" id="Fill-130" fill="#EFD2AB"></line>
                        <line x1="350.769895" y1="330.5002" x2="283.538641" y2="330.5002" id="Stroke-132" stroke="#3F3A3A" stroke-width="6" stroke-linecap="round" stroke-linejoin="round"></line>
                        <line x1="608.958712" y1="328.5002" x2="542.149404" y2="328.5002" id="Fill-133" fill="#EFD2AB"></line>
                        <line x1="609.809308" y1="330" x2="543" y2="330" id="Stroke-135" stroke="#3F3A3A" stroke-width="6" stroke-linecap="round" stroke-linejoin="round"></line>
                        <line x1="127.584163" y1="328.5002" x2="60.3523322" y2="328.5002" id="Fill-136" fill="#EFD2AB"></line>
                        <line x1="125.231831" y1="318" x2="58" y2="318" id="Stroke-138" stroke="#3F3A3A" stroke-width="6" stroke-linecap="round" stroke-linejoin="round"></line>
                        <path d="M377,271 C377,293.643915 365.359431,312 351.000286,312 C336.640569,312 325,293.643915 325,271 C325,248.356085 336.640569,230 351.000286,230 C365.359431,230 377,248.356085 377,271" id="Fill-139" fill="#FEFEFE"></path>
                        <path d="M377,271 C377,293.643915 365.359431,312 351.000286,312 C336.640569,312 325,293.643915 325,271 C325,248.356085 336.640569,230 351.000286,230 C365.359431,230 377,248.356085 377,271 Z" id="Stroke-141" stroke="#3F3A3A" stroke-width="6" stroke-linecap="round" stroke-linejoin="round"></path>
                        <path d="M362,270.5 C362,280.165358 357.075176,288 351,288 C344.92539,288 340,280.165358 340,270.5 C340,260.834642 344.92539,253 351,253 C357.075176,253 362,260.834642 362,270.5" id="Fill-143" fill="#33383F"></path>
                        <path d="M636,269 C636,291.643915 624.359559,310 610.000573,310 C595.640441,310 584,291.643915 584,269 C584,246.356085 595.640441,228 610.000573,228 C624.359559,228 636,246.356085 636,269" id="Fill-145" fill="#FEFEFE"></path>
                        <path d="M636,269 C636,291.643915 624.359559,310 610.000573,310 C595.640441,310 584,291.643915 584,269 C584,246.356085 595.640441,228 610.000573,228 C624.359559,228 636,246.356085 636,269 Z" id="Stroke-147" stroke="#3F3A3A" stroke-width="6" stroke-linecap="round" stroke-linejoin="round"></path>
                        <path d="M621,269.5 C621,279.165358 616.075616,287 610.000283,287 C603.92495,287 599,279.165358 599,269.5 C599,259.834642 603.92495,252 610.000283,252 C616.075616,252 621,259.834642 621,269.5" id="Fill-149" fill="#33383F"></path>
                    </g>
                    <path d="M403.83108,179.16702 L422.782772,196.36749 L305.908171,339 L305.918219,339.021372 C305.9726,339.180281 306,339.339837 306,339.5 C306,347.508129 237.499567,354 153,354 C68.5004333,354 2.27373675e-13,347.508129 2.27373675e-13,339.5 C2.27373675e-13,337.266991 5.32613255,335.151877 14.8401205,333.262532 L403.83108,179.16702 Z" id="形状结合" fill="#FAD39F" opacity="0.1"></path>
                    <path d="M632.83108,182 L651.782772,199.20047 L534.908171,341.83298 L534.918219,341.854351 C534.9726,342.013261 535,342.172817 535,342.33298 C535,350.341109 466.499567,356.83298 382,356.83298 C297.500433,356.83298 229,350.341109 229,342.33298 C229,340.099971 234.326133,337.984857 243.84012,336.095512 L632.83108,182 Z" id="形状结合" fill="#FAD39F" opacity="0.1"></path>
                </g>
            </g>
        </g>
    </g>
</svg>