<?xml version="1.0" encoding="UTF-8"?>
<svg width="55px" height="51px" viewBox="0 0 55 51" version="1.1" xmlns="http://www.w3.org/2000/svg" xmlns:xlink="http://www.w3.org/1999/xlink">
    <title>编组 9</title>
    <g id="页面-1" stroke="none" stroke-width="1" fill="none" fill-rule="evenodd">
        <g id="桌面端-HD" transform="translate(-346.000000, -801.000000)">
            <g id="编组-9" transform="translate(346.000000, 801.000000)">
                <path d="M5,-2.84217094e-14 L43.9417114,-2.84217094e-14 C46.7031352,-2.89289747e-14 48.9417114,2.23857625 48.9417114,5 L48.9417114,19 C48.9417114,22.3137085 46.2554199,25 42.9417114,25 L15.7375262,25 C12.5377569,25 9.45038562,26.1800851 7.06640048,28.3143623 L3.33401934,31.655799 C2.51106088,32.3925576 1.24666042,32.3226787 0.509901885,31.4997203 C0.181551561,31.1329533 -1.59269256e-14,30.6579731 -1.42108547e-14,30.1657009 L-1.42108547e-14,5 C-1.45490316e-14,2.23857625 2.23857625,-2.79144441e-14 5,-2.84217094e-14 Z" id="矩形" fill="#FFDEAA"></path>
                <path d="M21,18 L50,18 C52.7614237,18 55,20.2385763 55,23 L55,30.0424127 C55,33.3561212 52.3137085,36.0424127 49,36.0424127 L28.6982173,36.0424127 C25.474966,36.0424127 22.3666508,37.2398445 19.976467,39.4023363 L19.3418077,39.9765372 C18.5227205,40.7175971 17.2579713,40.6543435 16.5169113,39.8352562 C16.1842203,39.4675356 16,38.9893333 16,38.4934485 L16,23 C16,20.2385763 18.2385763,18 21,18 Z" id="矩形备份-9" fill="#FFD798" transform="translate(35.500000, 30.500000) scale(-1, 1) translate(-35.500000, -30.500000) "></path>
                <rect id="矩形" fill="#F5BA5D" x="11" y="9" width="29" height="6" rx="3"></rect>
                <rect id="矩形备份-10" fill="#F5BA5D" transform="translate(34.500000, 26.500000) scale(-1, 1) translate(-34.500000, -26.500000) " x="24" y="24" width="21" height="5" rx="2.5"></rect>
                <rect id="矩形" fill="#1D2126" transform="translate(33.500000, 30.500000) rotate(45.000000) translate(-33.500000, -30.500000) " x="20" y="28" width="27" height="5" rx="2.5"></rect>
                <rect id="矩形备份-5" fill="#1D2126" transform="translate(17.500000, 30.500000) scale(-1, 1) rotate(45.000000) translate(-17.500000, -30.500000) " x="4" y="28" width="27" height="5" rx="2.5"></rect>
                <rect id="矩形备份-8" fill="#1D2126" transform="translate(25.500000, 36.313708) scale(-1, 1) rotate(90.000000) translate(-25.500000, -36.313708) " x="11" y="33.8137085" width="29" height="5" rx="2.5"></rect>
            </g>
        </g>
    </g>
</svg>