<?xml version="1.0" encoding="UTF-8"?>
<svg width="25px" height="20px" viewBox="0 0 25 20" version="1.1" xmlns="http://www.w3.org/2000/svg" xmlns:xlink="http://www.w3.org/1999/xlink">
    <title>twitter</title>
    <g id="页面-1" stroke="none" stroke-width="1" fill="none" fill-rule="evenodd" opacity="0.5">
        <g id="桌面端-HD" transform="translate(-691.000000, -1495.000000)" fill="#A5A5A5" fill-rule="nonzero">
            <g id="twitter" transform="translate(691.000000, 1495.000000)">
                <path d="M24.9959396,2.37223726 C24.2880732,3.39367274 23.4313248,4.26375975 22.4256944,4.98249829 C22.4365221,5.12784615 22.441936,5.34653468 22.441936,5.63856389 C22.441936,6.99336604 22.2409453,8.34483451 21.8389638,9.69296931 C21.4369823,11.0411041 20.826566,12.3352335 20.0077148,13.5753576 C19.1888636,14.8154816 18.2136863,15.9122579 17.0821829,16.8656866 C15.9506795,17.8191152 14.5863787,18.579858 12.9892805,19.1479148 C11.3921824,19.7159716 9.68477615,20 7.86706188,20 C5.0017595,20 2.37940554,19.2445911 0,17.7337734 C0.369498133,17.7751109 0.781630665,17.7957796 1.2363976,17.7957796 C3.61580316,17.7957796 5.73601863,17.0770411 7.59704401,15.639564 C6.48719614,15.6182285 5.49307021,15.2821949 4.61466623,14.6314632 C3.73626225,13.9807314 3.13329002,13.1499817 2.80574954,12.139214 C3.15494557,12.1912191 3.47774889,12.2172217 3.77415948,12.2172217 C4.22892642,12.2172217 4.67827946,12.1598827 5.1222186,12.0452045 C3.93792972,11.8051805 2.95733852,11.2244558 2.18044501,10.3030303 C1.4035515,9.38160482 1.01510474,8.31149781 1.01510474,7.09270927 L1.01510474,7.03070306 C1.73379891,7.42674267 2.50595527,7.64009734 3.33157381,7.67076706 C2.63318174,7.21205452 2.0782578,6.61332798 1.666802,5.87458744 C1.25534619,5.13584689 1.04894156,4.33376669 1.0475881,3.46834682 C1.0475881,2.55092174 1.28038546,1.7021702 1.74598018,0.922092204 C3.02501218,2.47424742 4.58218288,3.71637163 6.41749228,4.64846484 C8.25280168,5.58055804 10.216691,6.09860985 12.3091603,6.20262025 C12.225245,5.80658064 12.1832873,5.42120877 12.1832873,5.04650465 C12.1832873,3.65036505 12.6827189,2.46024604 13.6815819,1.47614762 C14.680445,0.492049208 15.8884197,0 17.3055059,0 C18.7862054,0 20.0341075,0.53138647 21.0492123,1.59415941 C22.2023713,1.37547087 23.2865032,0.969430263 24.3016079,0.376037599 C23.9104542,1.57349068 23.1599535,2.50091675 22.0501056,3.15831581 C23.0340805,3.05430541 24.0173786,2.79361268 25,2.37623761 L24.9959396,2.37223726 Z" id="路径"></path>
            </g>
        </g>
    </g>
</svg>