<?xml version="1.0" encoding="UTF-8"?>
<svg width="62px" height="64px" viewBox="0 0 62 64" version="1.1" xmlns="http://www.w3.org/2000/svg" xmlns:xlink="http://www.w3.org/1999/xlink">
    <title>编组</title>
    <defs>
        <polygon id="path-1" points="0.0002 0.697 61.303 0.697 61.303 62 0.0002 62"></polygon>
    </defs>
    <g id="页面-1" stroke="none" stroke-width="1" fill="none" fill-rule="evenodd">
        <g id="桌面端-HD" transform="translate(-131.000000, -501.000000)">
            <g id="编组-2" transform="translate(100.000000, 474.000000)">
                <g id="编组" transform="translate(31.000000, 27.000000)">
                    <g transform="translate(0.000000, 0.303300)">
                        <mask id="mask-2" fill="white">
                            <use xlink:href="#path-1"></use>
                        </mask>
                        <g id="Clip-2"></g>
                        <path d="M61.3032,31.348 C61.3032,48.277 47.5802,62 30.6522,62 C13.7232,62 0.0002,48.277 0.0002,31.348 C0.0002,14.419 13.7232,0.697 30.6522,0.697 C47.5802,0.697 61.3032,14.419 61.3032,31.348" id="Fill-1" fill="#259B76" mask="url(#mask-2)"></path>
                    </g>
                    <polygon id="Fill-3" fill="#FEFEFE" points="45.0371 16.4559 16.0131 16.4559 16.0131 23.4639 27.0211 23.4639 27.0211 33.7629 34.0281 33.7629 34.0281 23.4639 45.0371 23.4639"></polygon>
                    <path d="M49.1069,32.1767 C49.1069,29.8837 40.8169,28.0257 30.5919,28.0257 C20.3659,28.0257 12.0759,29.8837 12.0759,32.1767 C12.0759,34.1957 18.5039,35.8777 27.0219,36.2507 L27.0219,51.0347 L34.0279,51.0347 L34.0279,36.2567 C42.6119,35.8957 49.1069,34.2057 49.1069,32.1767 M30.5919,34.8597 C21.4849,34.8597 14.1019,33.4177 14.1019,31.6397 C14.1019,29.8627 21.4849,28.4207 30.5919,28.4207 C39.6979,28.4207 47.0809,29.8627 47.0809,31.6397 C47.0809,33.4177 39.6979,34.8597 30.5919,34.8597" id="Fill-5" fill="#FEFEFE"></path>
                </g>
            </g>
        </g>
    </g>
</svg>