<?xml version="1.0" encoding="UTF-8"?>
<svg width="25px" height="20px" viewBox="0 0 25 20" version="1.1" xmlns="http://www.w3.org/2000/svg" xmlns:xlink="http://www.w3.org/1999/xlink">
    <title>icon_twitter_hover</title>
    <defs>
        <filter id="filter-1">
            <feColorMatrix in="SourceGraphic" type="matrix" values="0 0 0 0 1.000000 0 0 0 0 1.000000 0 0 0 0 1.000000 0 0 0 1.000000 0"></feColorMatrix>
        </filter>
    </defs>
    <g id="Page-1" stroke="none" stroke-width="1" fill="none" fill-rule="evenodd">
        <g filter="url(#filter-1)" id="icon_twitter_hover">
            <g>
                <path d="M25,2.4 C24.3,3.4 23.4,4.3 22.4,5 C22.4,5.1 22.4,5.4 22.4,5.7 C22.4,7.1 22.2,8.4 21.8,9.8 C21.4,11.2 20.8,12.4 20,13.7 C19.2,15 18.2,16 17.1,17 C16,18 14.6,18.7 13,19.3 C11.4,19.9 9.7,20 7.9,20 C5,20 2.4,19.2 0,17.7 C0.4,17.7 0.8,17.8 1.2,17.8 C3.6,17.8 5.7,17.1 7.6,15.6 C6.5,15.6 5.5,15.2 4.6,14.6 C3.7,14 3.1,13.1 2.8,12.1 C3.1,12.2 3.5,12.2 3.8,12.2 C4.3,12.2 4.7,12.1 5.1,12 C3.9,11.8 2.9,11.2 2.2,10.3 C1.4,9.4 1,8.3 1,7.1 L1,7 C1.7,7.4 2.5,7.6 3.3,7.6 C2.6,7.2 2.1,6.6 1.7,5.9 C1.3,5.2 1,4.3 1,3.5 C1,2.6 1.2,1.7 1.7,1 C3,2.5 4.6,3.7 6.4,4.6 C8.2,5.5 10.2,6.1 12.3,6.2 C12.2,5.8 12.2,5.4 12.2,5 C12.2,3.6 12.7,2.4 13.7,1.4 C14.7,0.4 15.9,0 17.3,0 C18.8,0 20,0.5 21,1.6 C22.2,1.4 23.2,1 24.3,0.4 C23.9,1.6 23.2,2.5 22,3.2 C23,3.1 24,2.8 25,2.4 L25,2.4 Z" id="路径_8_" fill="#FFFFFF" fill-rule="nonzero"></path>
            </g>
        </g>
    </g>
</svg>