<?xml version="1.0" encoding="UTF-8"?>
<svg width="63px" height="63px" viewBox="0 0 63 63" version="1.1" xmlns="http://www.w3.org/2000/svg" xmlns:xlink="http://www.w3.org/1999/xlink">
    <title>编组</title>
    <defs>
        <polygon id="path-1" points="0 0.679337349 62.3205108 0.679337349 62.3205108 62.9999241 0 62.9999241"></polygon>
    </defs>
    <g id="页面-1" stroke="none" stroke-width="1" fill="none" fill-rule="evenodd">
        <g id="桌面端-HD" transform="translate(-130.000000, -642.000000)">
            <g id="编组" transform="translate(130.000000, 642.000000)">
                <g>
                    <mask id="mask-2" fill="white">
                        <use xlink:href="#path-1"></use>
                    </mask>
                    <g id="Clip-2"></g>
                    <path d="M62.3205108,31.8399723 C62.3205108,49.0495988 48.3701855,62.9999241 31.160559,62.9999241 C13.9509325,62.9999241 -0.000151807229,49.0495988 -0.000151807229,31.8399723 C-0.000151807229,14.6303458 13.9509325,0.679261446 31.160559,0.679261446 C48.3701855,0.679261446 62.3205108,14.6303458 62.3205108,31.8399723" id="Fill-1" fill="#EC8F24" mask="url(#mask-2)"></path>
                </g>
                <path d="M45.0545067,25.4612822 C44.0612377,23.6014547 42.411554,22.2442832 40.4114816,21.6403343 L39.2610641,21.2938063 L40.8716487,15.818663 L36.7399203,14.5719236 L35.1300876,20.0485901 L31.6028923,18.9838731 L33.2134769,13.5087298 L32.2239674,13.209421 L28.2147999,12 L26.662864,17.2786504 L21.776973,15.8041926 L20.3979758,20.4948878 L25.2838668,21.968584 L20.2648883,39.0390891 L15.3789972,37.5653929 L14,42.2553264 L18.8851391,43.7282611 L17.5760692,48.1836218 L18.5648268,48.4829306 L22.5739943,49.69159 L23.941713,45.0389749 L27.4779311,46.1052151 L26.1094606,50.7585918 L30.2238951,52 L31.5916137,47.3466233 L32.7495504,47.6961977 C33.4773962,47.9163001 34.2323108,48.0282554 34.9917367,48.029017 C36.2729861,48.029017 37.541453,47.7068601 38.7001415,47.0716856 C40.5362982,46.0656119 41.8754444,44.3946612 42.4717065,42.3680433 C43.0987969,40.2355629 42.7890112,38.0459626 41.7927346,36.2432551 C43.6018226,35.2866853 45.04398,33.6210659 45.6710704,31.4885855 C46.2673325,29.461206 46.0477757,27.3203481 45.0545067,25.4612822 M41.1633885,27.5937625 C41.5934793,28.3949658 41.6897234,29.3363036 41.4310674,30.2090973 C40.8972135,32.0239904 39.0039119,33.0612898 37.2121178,32.5220769 L37.2121178,32.5220769 L28.5200741,29.8991261 L30.4554824,23.3135698 L39.148278,25.935759 C40.0114672,26.1939415 40.7370573,26.7902744 41.1633885,27.5937625 M38.2317035,41.0900783 C37.977559,41.9636336 37.388064,42.6985777 36.5955541,43.1296434 C35.8045481,43.5660403 34.8744392,43.6635251 34.0127539,43.4015346 L25.3199583,40.7793454 L27.2568705,34.1937892 L35.9489142,36.8159784 L35.9496661,36.8159784 C37.7414602,37.3567145 38.7655574,39.273662 38.2317035,41.0900783" id="Fill-3" fill="#FEFEFE"></path>
            </g>
        </g>
    </g>
</svg>