<?xml version="1.0" encoding="utf-8"?>
<!-- Generator: Adobe Illustrator 25.2.3, SVG Export Plug-In . SVG Version: 6.00 Build 0)  -->
<svg version="1.1" id="图层_1" xmlns="http://www.w3.org/2000/svg" xmlns:xlink="http://www.w3.org/1999/xlink" x="0px" y="0px"
	 viewBox="0 0 200 200" style="enable-background:new 0 0 200 200;" xml:space="preserve">
<style type="text/css">
	.st0{fill:#F5BA5D;}
</style>
<path class="st0" d="M188.4,49.1c-6.5,2.8-13.5,4.8-20.8,5.6c7.5-4.5,13.2-11.5,15.9-19.9c-6.9,4.1-14.7,7.1-22.9,8.7
	c-6.6-7-16-11.4-26.3-11.4c-20,0-36,16.2-36,36c0,2.8,0.3,5.6,0.9,8.3c-29.9-1.6-56.6-15.8-74.3-37.7c-3.1,5.4-4.9,11.5-4.9,18.2
	c0,12.5,6.4,23.5,16.1,30C30,86.7,24.4,85,19.6,82.4v0.4c0,17.5,12.4,32,28.9,35.4c-3,0.8-6.2,1.2-9.5,1.2c-2.3,0-4.6-0.2-6.8-0.6
	c4.6,14.3,17.9,24.7,33.7,25c-12.4,9.7-27.9,15.4-44.8,15.4c-3,0-5.8-0.1-8.7-0.4c16,10.3,34.9,16.2,55.4,16.2
	c66.3,0,102.6-54.9,102.6-102.6c0-1.6,0-3.1-0.1-4.7C177.3,62.6,183.5,56.2,188.4,49.1z"/>
</svg>
