<svg xmlns="http://www.w3.org/2000/svg" viewBox="0 0 249.4 68.91"><defs><style>.cls-1{fill:none;stroke:#fff;stroke-linecap:round;stroke-linejoin:round;stroke-width:10px;}.cls-2{fill:#fff;}</style></defs><g id="图层_2" data-name="图层 2"><g id="Layer_1" data-name="Layer 1"><polyline class="cls-1" points="26.96 63.91 26.96 6.83 5 31.56"/><polyline class="cls-1" points="53.57 6.83 53.57 63.91 75.53 39.17"/><path class="cls-2" d="M126.84,18.78h-9.07V16.73a9.68,9.68,0,0,0-1.47-5.38c-1-1.52-2.63-2.27-4.94-2.27a5.76,5.76,0,0,0-3,.71,6.13,6.13,0,0,0-1.87,1.78,7.67,7.67,0,0,0-1,2.63,17.9,17.9,0,0,0-.26,3.07,29.9,29.9,0,0,0,.13,3.11,5.88,5.88,0,0,0,.67,2.23,4.89,4.89,0,0,0,1.56,1.69,14.12,14.12,0,0,0,2.8,1.42l6.94,2.76a17.19,17.19,0,0,1,4.9,2.72,11.83,11.83,0,0,1,2.93,3.6,16.66,16.66,0,0,1,1.34,4.85,47.62,47.62,0,0,1,.35,6.19,32.24,32.24,0,0,1-.8,7.43,15.56,15.56,0,0,1-2.58,5.83A12.83,12.83,0,0,1,118.57,63a17.42,17.42,0,0,1-7.39,1.42A16.17,16.17,0,0,1,105,63.28a14.71,14.71,0,0,1-4.9-3.2,15.69,15.69,0,0,1-3.24-4.76,14.35,14.35,0,0,1-1.21-5.92V46h9.08v2.84a7.42,7.42,0,0,0,1.47,4.5q1.47,2,4.94,2a7.88,7.88,0,0,0,3.6-.67,4.81,4.81,0,0,0,2-1.91,7.09,7.09,0,0,0,.84-3c.09-1.16.14-2.45.14-3.87a38.1,38.1,0,0,0-.18-4.1,7.16,7.16,0,0,0-.71-2.58,5.05,5.05,0,0,0-1.65-1.6,21.36,21.36,0,0,0-2.71-1.34L106,33.64q-5.88-2.4-7.88-6.36a22,22,0,0,1-2-9.92,22.81,22.81,0,0,1,1-6.77,15.54,15.54,0,0,1,2.93-5.52,13.54,13.54,0,0,1,4.77-3.69A15.83,15.83,0,0,1,111.71,0a15.08,15.08,0,0,1,6.19,1.25,15.75,15.75,0,0,1,4.85,3.29,13.74,13.74,0,0,1,4.09,9.79Z"/><path class="cls-2" d="M180.69.53l-9.43,63.38h-8.55l-6.94-41.12h-.18l-6.85,41.12h-8.55L130.76.53h9.61l4.54,40.23h.18L152.21.53h6.94l7.39,41.21h.18L171.08.53Z"/><path class="cls-2" d="M179.62,63.91,193.77.53h7.57l14.15,63.38h-9.08l-2.67-13.62H191.37L188.7,63.91Zm22.43-22.17-4.45-23h-.18l-4.45,23Z"/><path class="cls-2" d="M219.94,63.91V.53h13.62a20.35,20.35,0,0,1,6.59,1A12.82,12.82,0,0,1,245.31,5a13.64,13.64,0,0,1,3.2,5.83,36.69,36.69,0,0,1,.89,9,44.4,44.4,0,0,1-.49,7.21,14.91,14.91,0,0,1-2.09,5.52,13.39,13.39,0,0,1-5,4.85,16.88,16.88,0,0,1-8.19,1.73H229V63.91ZM229,9.08V30.62h4.36a9.32,9.32,0,0,0,4.27-.8,5.11,5.11,0,0,0,2.23-2.23,8.07,8.07,0,0,0,.84-3.29c.09-1.31.14-2.76.14-4.36s0-2.9-.09-4.23a9.25,9.25,0,0,0-.8-3.52,5.1,5.1,0,0,0-2.14-2.31,8.51,8.51,0,0,0-4.09-.8Z"/></g></g></svg>