<?xml version="1.0" encoding="utf-8"?>
<!-- Generator: Adobe Illustrator 25.2.3, SVG Export Plug-In . SVG Version: 6.00 Build 0)  -->
<svg version="1.1" id="图层_1" xmlns="http://www.w3.org/2000/svg" xmlns:xlink="http://www.w3.org/1999/xlink" x="0px" y="0px"
	 viewBox="0 0 55 54" style="enable-background:new 0 0 55 54;" xml:space="preserve">
<style type="text/css">
	.st0{filter:url(#Adobe_OpacityMaskFilter);}
	.st1{fill-rule:evenodd;clip-rule:evenodd;fill:#FFFFFF;}
	.st2{mask:url(#mask-2_1_);fill-rule:evenodd;clip-rule:evenodd;fill:#FFDEAA;}
	.st3{fill:none;stroke:#F5BA5D;stroke-width:3;stroke-linecap:round;stroke-miterlimit:10;}
	.st4{filter:url(#Adobe_OpacityMaskFilter_1_);}
	.st5{mask:url(#mask-4_1_);fill-rule:evenodd;clip-rule:evenodd;fill:#F5BA5D;}
	.st6{fill:none;stroke:#1D2126;stroke-width:3;stroke-linecap:round;}
</style>
<g id="页面-1">
	<g id="桌面端-HD" transform="translate(-256.000000, -791.000000)">
		<g id="编组-8" transform="translate(256.000000, 791.500000)">
			<g id="编组">
				<g transform="translate(6.000000, 0.500000)">
					<g id="Clip-2">
					</g>
					<defs>
						<filter id="Adobe_OpacityMaskFilter" filterUnits="userSpaceOnUse" x="0.9" y="0.7" width="36.4" height="14.7">
							<feColorMatrix  type="matrix" values="1 0 0 0 0  0 1 0 0 0  0 0 1 0 0  0 0 0 1 0"/>
						</filter>
					</defs>
					<mask maskUnits="userSpaceOnUse" x="0.9" y="0.7" width="36.4" height="14.7" id="mask-2_1_">
						<g class="st0">
							<polygon id="path-1_1_" class="st1" points="0.9,0.7 37.3,0.7 37.3,14.9 0.9,14.9 							"/>
						</g>
					</mask>
					<path id="Fill-1" class="st2" d="M35,0.7H3.1c-1.2,0-2.2,1-2.2,2.2v12c0,1.2,1,0,2.2,0H35c1.2,0,2.2,1.2,2.2,0v-12
						C37.3,1.7,36.3,0.7,35,0.7"/>
				</g>
				<path id="Stroke-3" class="st3" d="M48.1,44.5H39v-22h9.1c2.7,0,4.9,2.2,4.9,5v12.1C53,42.3,50.8,44.5,48.1,44.5z"/>
				<line id="Stroke-5" class="st3" x1="46" y1="29.5" x2="46" y2="37.5"/>
				<g transform="translate(0.000000, 13.500000)">
					<g id="Clip-8">
					</g>
					<defs>
						<filter id="Adobe_OpacityMaskFilter_1_" filterUnits="userSpaceOnUse" x="0" y="0.9" width="48.8" height="38.1">
							<feColorMatrix  type="matrix" values="1 0 0 0 0  0 1 0 0 0  0 0 1 0 0  0 0 0 1 0"/>
						</filter>
					</defs>
					<mask maskUnits="userSpaceOnUse" x="0" y="0.9" width="48.8" height="38.1" id="mask-4_1_">
						<g class="st4">
							<polygon id="path-3_1_" class="st1" points="0,0.9 48.8,0.9 48.8,39 0,39 							"/>
						</g>
					</mask>
					<path id="Fill-7" class="st5" d="M48.8,8.5V2.8c0-1.1-0.9-2-1.9-2H3.4C1.5,0.9,0,2.4,0,4.3v31.2C0,37.5,1.5,39,3.4,39h43.5
						c1.1,0,1.9-0.9,1.9-1.9v-5.7h-7.3V8.5H48.8z"/>
				</g>
			</g>
			<g id="编组_1_">
				<g transform="translate(12.000000, 23.500000)">
					<path id="Stroke-1" class="st6" d="M11.1,4.1l2.5-2.5c1.5-1.5,3.8-1.5,5.3,0c1.5,1.5,1.5,3.8,0,5.3l-4.6,4.6
						c-1.5,1.5-3.8,1.5-5.3,0"/>
					<path id="Stroke-3_1_" class="st6" d="M9.8,15.7l-2.9,2.9c-1.5,1.5-3.8,1.5-5.3,0s-1.5-3.8,0-5.3l4.6-4.6
						c1.5-1.5,3.8-1.5,5.3,0"/>
				</g>
			</g>
		</g>
	</g>
</g>
</svg>
