<?xml version="1.0" encoding="UTF-8"?>
<svg width="55px" height="54px" viewBox="0 0 55 54" version="1.1" xmlns="http://www.w3.org/2000/svg" xmlns:xlink="http://www.w3.org/1999/xlink">
    <title>编组 8</title>
    <defs>
        <polygon id="path-1" points="0.870623529 0.70325 37.2576235 0.70325 37.2576235 14.851025 0.870623529 14.851025"></polygon>
        <polygon id="path-3" points="0 0.8892 48.8468182 0.8892 48.8468182 38.9990824 0 38.9990824"></polygon>
        <filter id="filter-5">
            <feColorMatrix in="SourceGraphic" type="matrix" values="0 0 0 0 0.960784 0 0 0 0 0.729412 0 0 0 0 0.364706 0 0 0 1.000000 0"></feColorMatrix>
        </filter>
    </defs>
    <g id="页面-1" stroke="none" stroke-width="1" fill="none" fill-rule="evenodd">
        <g id="桌面端-HD" transform="translate(-256.000000, -791.000000)">
            <g id="编组-8" transform="translate(256.000000, 791.500000)">
                <g id="编组">
                    <g transform="translate(6.000000, 0.500000)">
                        <mask id="mask-2" fill="white">
                            <use xlink:href="#path-1"></use>
                        </mask>
                        <g id="Clip-2"></g>
                        <path d="M35.0392118,0.703025 L3.09132941,0.703025 C1.86627059,0.703025 0.870623529,1.677275 0.870623529,2.881025 L0.870623529,12.673025 C0.870623529,13.874525 1.86627059,14.851025 3.09132941,14.851025 L35.0392118,14.851025 C36.2642706,14.851025 37.2576235,13.874525 37.2576235,12.673025 L37.2576235,2.881025 C37.2576235,1.677275 36.2642706,0.703025 35.0392118,0.703025" id="Fill-1" fill="#FFDEAA" mask="url(#mask-2)"></path>
                    </g>
                    <path d="M48.1198354,44.5 L39,44.5 L39,22.5 L48.1198354,22.5 C50.8147855,22.5 53,24.7245672 53,27.4630161 L53,39.5369839 C53,42.2799406 50.8147855,44.5 48.1198354,44.5 Z" id="Stroke-3" stroke="#1D2126" stroke-width="4"></path>
                    <line x1="46" y1="29.5" x2="46" y2="37.5" id="Stroke-5" stroke="#1D2126" stroke-width="3" stroke-linecap="round"></line>
                    <g transform="translate(0.000000, 13.500000)">
                        <mask id="mask-4" fill="white">
                            <use xlink:href="#path-3"></use>
                        </mask>
                        <g id="Clip-8"></g>
                        <path d="M48.8468182,8.54696471 L48.8468182,2.84149412 C48.8468182,1.76325882 47.9809091,0.8892 46.9127273,0.8892 L3.41045455,0.8892 C1.52636364,0.8892 -0.000909090909,2.43084706 -0.000909090909,4.33037647 L-0.000909090909,35.5579059 C-0.000909090909,37.4597294 1.52636364,38.9990824 3.41045455,38.9990824 L46.9127273,38.9990824 C47.9809091,38.9990824 48.8468182,38.1273176 48.8468182,37.0490824 L48.8468182,31.3160824 L41.5672727,31.3160824 L41.5672727,8.54696471 L48.8468182,8.54696471 Z" id="Fill-7" fill="#1D2126" mask="url(#mask-4)"></path>
                    </g>
                </g>
                <g filter="url(#filter-5)" id="编组" stroke-linecap="round">
                    <g transform="translate(12.000000, 23.500000)">
                        <path d="M11.0636,4.0981 L13.5626,1.6001 C15.0286,0.1331 17.4056,0.1331 18.8716,1.6001 C20.3376,3.0661 20.3376,5.4431 18.8716,6.9091 L14.2396,11.5411 C12.7726,13.0071 10.3966,13.0071 8.9306,11.5411" id="Stroke-1" stroke="#1D2126" stroke-width="3"></path>
                        <path d="M9.7897,15.7065 L6.9087,18.5875 C5.4427,20.0535 3.0657,20.0535 1.5997,18.5875 C0.1337,17.1215 0.1337,14.7435 1.5997,13.2775 L6.2317,8.6455 C7.6977,7.1805 10.0747,7.1805 11.5407,8.6455" id="Stroke-3" stroke="#1D2126" stroke-width="3"></path>
                    </g>
                </g>
            </g>
        </g>
    </g>
</svg>