<?xml version="1.0" encoding="utf-8"?>
<!-- Generator: Adobe Illustrator 25.2.0, SVG Export Plug-In . SVG Version: 6.00 Build 0)  -->
<svg version="1.1" id="图层_1" xmlns="http://www.w3.org/2000/svg" xmlns:xlink="http://www.w3.org/1999/xlink" x="0px" y="0px"
	 viewBox="0 0 24 24" style="enable-background:new 0 0 24 24;" xml:space="preserve">
<style type="text/css">
	.st0{fill:#FFFFFF;}
</style>
<g id="页面-1">
	<g id="桌面端-HD" transform="translate(-824.000000, -1493.000000)">
		<g id="logo-github" transform="translate(824.000000, 1493.000000)">
			<path id="路径" class="st0" d="M12,0C5.4,0,0,5.5,0,12.3c0,5.4,3.4,10,8.2,11.7c0.1,0,0.1,0,0.2,0C8.9,24,9,23.7,9,23.4
				c0-0.3,0-1.1,0-2.1c-0.4,0.1-0.9,0.1-1.2,0.1c-2.3,0-2.8-1.8-2.8-1.8c-0.5-1.4-1.3-1.8-1.3-1.8c-1-0.7,0-0.8,0.1-0.8h0
				c1.2,0.1,1.8,1.3,1.8,1.3c0.6,1,1.4,1.3,2.1,1.3c0.6,0,1.1-0.2,1.4-0.3c0.1-0.8,0.4-1.3,0.8-1.6c-2.7-0.3-5.5-1.4-5.5-6.1
				c0-1.3,0.5-2.4,1.2-3.3C5.4,8.1,5,6.8,5.7,5.1c0,0,0.1,0,0.3,0c0.4,0,1.4,0.2,3,1.3c1-0.3,2-0.4,3-0.4c1,0,2,0.1,3,0.4
				c1.6-1.1,2.6-1.3,3-1.3c0.2,0,0.3,0,0.3,0c0.7,1.7,0.2,2.9,0.1,3.3c0.8,0.9,1.2,2,1.2,3.3c0,4.7-2.8,5.8-5.5,6.1
				c0.4,0.4,0.8,1.1,0.8,2.3c0,1.6,0,3,0,3.4c0,0.3,0.2,0.6,0.6,0.6c0.1,0,0.1,0,0.2,0c4.8-1.6,8.2-6.2,8.2-11.7C24,5.5,18.6,0,12,0
				z"/>
		</g>
	</g>
</g>
</svg>
