<?xml version="1.0" encoding="utf-8"?>
<!-- Generator: Adobe Illustrator 25.2.3, SVG Export Plug-In . SVG Version: 6.00 Build 0)  -->
<svg version="1.1" id="图层_1" xmlns="http://www.w3.org/2000/svg" xmlns:xlink="http://www.w3.org/1999/xlink" x="0px" y="0px"
	 viewBox="0 0 55 51" style="enable-background:new 0 0 55 51;" xml:space="preserve">
<style type="text/css">
	.st0{fill-rule:evenodd;clip-rule:evenodd;fill:#FFDEAA;}
	.st1{fill-rule:evenodd;clip-rule:evenodd;fill:#FFD798;}
	.st2{fill-rule:evenodd;clip-rule:evenodd;fill:#F5BA5D;}
	.st3{fill-rule:evenodd;clip-rule:evenodd;fill:#FFFFFF;}
</style>
<g id="页面-1">
	<g id="桌面端-HD" transform="translate(-346.000000, -801.000000)">
		<g id="编组-9" transform="translate(346.000000, 801.000000)">
			<path id="矩形" class="st0" d="M5,0h38.9c2.8,0,5,2.2,5,5v14c0,3.3-2.7,6-6,6H15.7c-3.2,0-6.3,1.2-8.7,3.3l-3.7,3.3
				c-0.8,0.7-2.1,0.7-2.8-0.2C0.2,31.1,0,30.7,0,30.2V5C0,2.2,2.2,0,5,0z"/>
			<path id="矩形备份-9" class="st1" d="M50,18H21c-2.8,0-5,2.2-5,5v7c0,3.3,2.7,6,6,6h20.3c3.2,0,6.3,1.2,8.7,3.4l0.6,0.6
				c0.8,0.7,2.1,0.7,2.8-0.1c0.3-0.4,0.5-0.8,0.5-1.3V23C55,20.2,52.8,18,50,18z"/>
			<path id="矩形_1_" class="st2" d="M14,9h23c1.7,0,3,1.3,3,3l0,0c0,1.7-1.3,3-3,3H14c-1.7,0-3-1.3-3-3l0,0C11,10.3,12.3,9,14,9z
				"/>
			<path id="矩形备份-10" class="st2" d="M42.5,24h-16c-1.4,0-2.5,1.1-2.5,2.5l0,0c0,1.4,1.1,2.5,2.5,2.5h16
				c1.4,0,2.5-1.1,2.5-2.5l0,0C45,25.1,43.9,24,42.5,24z"/>
			<path id="矩形_2_" class="st3" d="M27.5,21L43,36.5c1,1,1,2.6,0,3.5l0,0c-1,1-2.6,1-3.5,0L24,24.5c-1-1-1-2.6,0-3.5l0,0
				C24.9,20,26.5,20,27.5,21z"/>
			<path id="矩形备份-5" class="st3" d="M23.5,21L8,36.5c-1,1-1,2.6,0,3.5l0,0c1,1,2.6,1,3.5,0L27,24.5c1-1,1-2.6,0-3.5l0,0
				C26.1,20,24.5,20,23.5,21z"/>
			<path id="矩形备份-8" class="st3" d="M23,24.3v24c0,1.4,1.1,2.5,2.5,2.5l0,0c1.4,0,2.5-1.1,2.5-2.5v-24
				c0-1.4-1.1-2.5-2.5-2.5l0,0C24.1,21.8,23,22.9,23,24.3z"/>
		</g>
	</g>
</g>
</svg>
