<?xml version="1.0" encoding="UTF-8"?>
<svg width="62px" height="62px" viewBox="0 0 62 62" version="1.1" xmlns="http://www.w3.org/2000/svg" xmlns:xlink="http://www.w3.org/1999/xlink">
    <title>编组</title>
    <defs>
        <polygon id="path-1" points="6.96629214e-05 0.560786517 61.4392135 0.560786517 61.4392135 62 6.96629214e-05 62"></polygon>
    </defs>
    <g id="页面-1" stroke="none" stroke-width="1" fill="none" fill-rule="evenodd">
        <g id="桌面端-HD" transform="translate(-131.000000, -1062.000000)">
            <g id="编组" transform="translate(131.000000, 1062.000000)">
                <g>
                    <mask id="mask-2" fill="white">
                        <use xlink:href="#path-1"></use>
                    </mask>
                    <g id="Clip-2"></g>
                    <path d="M61.4392831,31.2801843 C61.4392831,48.2458921 47.6857326,62.0001393 30.7193281,62.0001393 C13.7536202,62.0001393 6.96629214e-05,48.2458921 6.96629214e-05,31.2801843 C6.96629214e-05,14.3144764 13.7536202,0.560229213 30.7193281,0.560229213 C47.6857326,0.560229213 61.4392831,14.3144764 61.4392831,31.2801843" id="Fill-1" fill="#FEFEFE" mask="url(#mask-2)"></path>
                </g>
                <path d="M40,20.5003464 C40,25.7469822 35.9704169,30 31,30 C26.0295831,30 22,25.7469822 22,20.5003464 C22,15.2537107 26.0295831,11 31,11 C35.9704169,11 40,15.2537107 40,20.5003464" id="Fill-3" fill="#7BB4E2"></path>
                <path d="M50,31.0003449 C50,35.9705713 45.9705713,40 41.0003449,40 C36.0301184,40 32,35.9705713 32,31.0003449 C32,26.0294287 36.0301184,22 41.0003449,22 C45.9705713,22 50,26.0294287 50,31.0003449" id="Fill-5" fill="#4D88C7"></path>
                <path d="M40,41.9996551 C40,46.9698816 35.9704169,51 31,51 C26.0295831,51 22,46.9698816 22,41.9996551 C22,37.0294287 26.0295831,33 31,33 C35.9704169,33 40,37.0294287 40,41.9996551" id="Fill-7" fill="#2D6AB3"></path>
                <path d="M29,32 C29,36.9704169 24.9704169,41 20,41 C15.0295831,41 11,36.9704169 11,32 C11,27.0295831 15.0295831,23 20,23 C24.9704169,23 29,27.0295831 29,32" id="Fill-9" fill="#295CA9"></path>
            </g>
        </g>
    </g>
</svg>