<?xml version="1.0" encoding="UTF-8"?>
<svg width="30px" height="30px" viewBox="0 0 30 30" version="1.1" xmlns="http://www.w3.org/2000/svg" xmlns:xlink="http://www.w3.org/1999/xlink">
    <title>编组</title>
    <g id="页面-1" stroke="none" stroke-width="1" fill="none" fill-rule="evenodd">
        <g id="桌面端-HD" transform="translate(-731.000000, -282.000000)">
            <g id="编组-4" transform="translate(575.000000, 115.078262)">
                <g id="编组" transform="translate(171.000000, 181.921738) rotate(-90.000000) translate(-171.000000, -181.921738) translate(156.000000, 166.921738)">
                    <path d="M6.65275523,2.75553639 L5.26330316,2.66646512 C3.59637137,2.55968226 2.21616006,3.94400903 2.32781933,5.61043763 L2.4353716,7.21577411 C-0.297328714,12.3536723 0.902174251,19.3505162 5.775139,24.2235107 C10.6807031,29.1288481 17.7398795,30.3139838 22.886987,27.5096504 L24.673022,27.6295244 C26.3396971,27.7411844 27.7240154,26.3609646 27.6172332,24.6940226 L27.502237,22.9005327 C30.3160507,17.752367 29.1332325,10.6849335 24.2233047,5.77497564 C19.1698882,0.721528353 11.8324621,-0.381209978 6.65275523,2.75553639 Z" id="Fill-3" fill="#F5BA5D"></path>
                    <path d="M2.63335196,11.199883 C2.63335196,11.199883 5.71525181,21.4001407 18.5971643,22.9687578 C25.3041756,23.785288 29.5,18.3635676 29.5,18.3635676 L28.7070069,20.2746329 L27.6624661,24.937772 L25.8251845,28.1012331 L20.1881967,29.5 L16.4487912,29.5 L10.4416726,26.9007914 L5.96175334,23.1570918 L3.15511773,18.9702828 L1.94657902,15.7176502 L1.5,13.3167668 L1.5,10.5 L2.63335196,11.199883 Z" id="Fill-5" fill="#EDA340"></path>
                    <path d="M5.26342034,4.13355804 C4.8759667,4.13355804 4.5149647,4.28327756 4.23810413,4.5612921 C3.93806688,4.86224346 3.78867806,5.26149552 3.81689315,5.68570083 L3.94663217,7.62046018 L3.7780974,7.93804704 C1.29340605,12.611615 2.55023715,18.8690845 6.83414431,23.1552469 C11.1586107,27.4822419 17.4505757,28.7205786 22.1350364,26.1667769 L22.4564869,25.9916001 L24.574634,26.133758 C24.9983642,26.1617359 25.3976581,26.0122684 25.6984511,25.7123253 C25.9992441,25.4121301 26.1501444,25.0133821 26.122937,24.5891768 L25.9866481,22.4636133 L26.1619847,22.1432538 C28.7232599,17.4545627 27.4880939,11.1544962 23.1583372,6.82246017 C18.7247893,2.38657823 12.1214506,1.21856431 7.45714357,4.04433126 L7.11906634,4.2492504 L5.36066163,4.13658268 C5.32816389,4.13456625 5.29566616,4.13355804 5.26342034,4.13355804 M5.05281485,24.9377662 C0.0899820822,19.9723208 -1.38954669,12.6842063 1.38560893,7.08182277 L1.30348287,5.85432433 C1.22689905,4.71201983 1.64634659,3.59214805 2.45425546,2.78154539 C3.2619124,1.97094272 4.37892766,1.54749357 5.5216388,1.62134512 L6.50211317,1.68410633 C12.1186795,-1.47462271 19.8047723,-0.0976568053 24.9396667,5.04019293 C29.9559066,10.0590736 31.4104952,17.3978507 28.5469155,23.0214067 L28.6368511,24.4281149 C28.71016,25.5704194 28.2874375,26.6890309 27.4772613,27.497113 C26.6670852,28.3051952 25.5510776,28.7248635 24.4060992,28.6484915 L23.0084446,28.5547277 C21.0923377,29.5281567 18.9767098,30 16.8222861,30 C12.6605604,30 8.35372844,28.2404175 5.05281485,24.9377662 Z" id="Fill-7" fill="#404040"></path>
                    <path d="M20.8799529,12 C20.4894284,12 20.1101116,11.8054076 19.9038908,11.4588861 C19.9038908,11.4588861 19.9038908,11.4591231 19.9038908,11.4591231 C19.9033927,11.4591231 19.7360251,11.2036169 19.3335458,10.8258089 C18.8929605,10.4119741 18.8882284,9.73670756 19.3230853,9.31742131 C19.7576932,8.89813507 20.4672622,8.89363171 20.9078475,9.30746652 C21.5369704,9.89811735 21.8067013,10.3275954 21.8542715,10.4077078 C22.1593688,10.9201424 21.9698349,11.570996 21.4311204,11.861344 C21.2567791,11.9554405 21.0669962,12 20.8799529,12" id="Fill-9" fill="#FCF3F7"></path>
                    <path d="M16.4630624,7.5 C16.3226153,7.5 16.1798659,7.46864856 16.0431027,7.40268514 C13.3716155,6.11000263 10.948098,7.14585415 10.9236924,7.15663905 C10.3929868,7.38964294 9.78952492,7.10998811 9.57540073,6.53186758 C9.36150677,5.95349625 9.61822557,5.29611929 10.1489312,5.06286459 C10.2808594,5.00517794 13.4197359,3.66333638 16.8841733,5.33950968 C17.407281,5.5928293 17.6428176,6.25948629 17.4105044,6.82933003 C17.2389748,7.24994093 16.8602282,7.5 16.4630624,7.5" id="Fill-11" fill="#FCF3F7"></path>
                </g>
            </g>
        </g>
    </g>
</svg>