<?xml version="1.0" encoding="UTF-8"?>
<svg width="166px" height="146px" viewBox="0 0 166 146" version="1.1" xmlns="http://www.w3.org/2000/svg" xmlns:xlink="http://www.w3.org/1999/xlink">
    <title>编组 3</title>
    <defs>
        <linearGradient x1="53.2620139%" y1="45.5893185%" x2="48.7125212%" y2="53.3231482%" id="linearGradient-1">
            <stop stop-color="#000000" stop-opacity="0.25" offset="0%"></stop>
            <stop stop-color="#000000" stop-opacity="0" offset="100%"></stop>
        </linearGradient>
    </defs>
    <g id="页面-1" stroke="none" stroke-width="1" fill="none" fill-rule="evenodd">
        <g id="桌面端-HD" transform="translate(-638.000000, -148.000000)">
            <g id="编组-3" transform="translate(638.000000, 150.000000)">
                <polygon id="矩形" fill="url(#linearGradient-1)" points="29.8885248 104 122 119.589176 97.8946138 144 0 127.324667"></polygon>
                <g id="资源-10" transform="translate(17.000000, 0.000000)">
                    <polyline id="路径" stroke="#735F35" stroke-width="4" fill="#997739" fill-rule="nonzero" stroke-linejoin="round" points="15 28 0 66 15 59.2056668"></polyline>
                    <polygon id="路径" stroke="#735F35" stroke-width="4" fill="#997739" fill-rule="nonzero" stroke-linejoin="round" points="15 29.0961414 47.2799395 0 135 13.1159733 107.757109 43"></polygon>
                    <polygon id="路径" fill="#CBB086" fill-rule="nonzero" stroke-linejoin="round" points="15 103.094091 15 30 104 43.9059087 104 117"></polygon>
                    <path d="M15,58 C15,58 24.7298737,76.7833307 41.4202777,84.3741104 C62.7944033,94.0970267 104,101.748458 104,101.748458 L104,117 L15,103.003479 L15,58 Z" id="路径" fill="#C2A065" fill-rule="nonzero"></path>
                    <polygon id="路径" stroke="#756036" stroke-width="3" fill="#CBB086" fill-rule="nonzero" stroke-linejoin="round" points="104.304208 117 104 42.9090974 135 13 135 86.1492658"></polygon>
                    <polygon id="路径" stroke="#756036" stroke-width="3" fill="#CBB086" fill-rule="nonzero" stroke-linejoin="round" points="147 51.3658704 117.475019 80 105 41.6341296 134.520369 13"></polygon>
                    <polygon id="路径" stroke="#756036" stroke-width="4" stroke-linejoin="round" points="104 117 15 103.094091 15 30 104 43.9059087"></polygon>
                    <path d="M72.7718825,62.8464381 C67.1293986,55.1397504 57.5841968,52.1367837 50.0091622,55.1582872 L48.175355,54.7458427 C47.1279798,54.5119072 46.0291146,54.733818 45.1594964,55.3548814 C44.2898782,55.9759449 43.7337371,56.9360056 43.6331555,57.9897882 L43.4309664,60.1215238 C38.6865779,66.2896545 38.7806193,75.7434386 44.2256163,83.1581712 C49.6706132,90.5729038 58.8584577,93.6917257 66.3253447,91.1012035 L68.6763796,91.6341374 C69.7252739,91.8727313 70.8276137,91.6529208 71.6999045,91.0312358 C72.5721953,90.4095508 73.1293139,89.4466588 73.2279833,88.3901919 L73.4630868,86.0128432 C78.3156229,79.8678836 78.259198,70.335318 72.7718825,62.8464381 Z" id="路径" fill="#F6BB5D" fill-rule="nonzero"></path>
                    <path d="M42.9747417,65.1683323 C42.9747417,65.1683323 44.8530425,79.2698314 61.5694604,84.0518426 C70.2950631,86.5424735 77,80.2751405 77,80.2751405 L75.5396096,82.6299188 L73.1469575,88.5576202 L70.0470723,92.3433791 L62.2812859,93 L57.3306544,92.212055 L49.9276693,87.5024984 L44.8025258,81.6155528 L41.9919633,75.5021861 L41.0734788,70.9737664 L41,67.7133042 L41.6061998,64 L42.9747417,65.1683323 Z" id="路径" fill="#EEA440" fill-rule="nonzero"></path>
                    <path d="M72.7718825,63.8453012 C67.1293986,56.1396039 57.5841968,53.1370231 50.0091622,56.1581384 L48.175355,55.7457469 C47.1278187,55.510246 46.0281079,55.731488 45.1580719,56.3527701 C44.2880358,56.9740521 43.7322487,57.9349806 43.6331555,58.9892755 L43.4309664,61.1207372 C38.6865779,67.2880751 38.7806193,76.7267434 44.2256163,84.1590576 C49.6706132,91.5913718 58.8537556,94.6912584 66.3253447,92.0964355 L68.6763796,92.6339345 C69.7252739,92.8724978 70.8276137,92.6527156 71.6999045,92.0311104 C72.5721953,91.4095053 73.1293139,90.4467371 73.2279833,89.3904059 L73.4630868,87.0087292 C78.3156229,80.8599256 78.259198,71.3332187 72.7718825,63.8453012 Z" id="路径" stroke="#3A393C" stroke-width="3"></path>
                    <path d="M67,67 C67.4022939,67.3072937 67.7382344,67.6432341 68,68" id="路径" stroke="#FDF4F8" stroke-width="4" stroke-linecap="round"></path>
                    <path d="M54,62.1817797 C57.1231506,61.6488307 60.3338575,62.2974721 63,64" id="路径" stroke="#FDF4F8" stroke-width="4" stroke-linecap="round"></path>
                    <line x1="48" y1="0" x2="48" y2="34" id="路径" stroke="#735F35" stroke-width="4" fill="#997739" fill-rule="nonzero" stroke-linejoin="round"></line>
                </g>
            </g>
        </g>
    </g>
</svg>