<?xml version="1.0" encoding="UTF-8"?>
<svg width="42px" height="37px" viewBox="0 0 42 37" version="1.1" xmlns="http://www.w3.org/2000/svg" xmlns:xlink="http://www.w3.org/1999/xlink">
    <title>编组</title>
    <g id="页面-1" stroke="none" stroke-width="1" fill="none" fill-rule="evenodd">
        <g id="桌面端-HD" transform="translate(-28.000000, -23.000000)">
            <g id="编组" transform="translate(28.000000, 23.000000)">
                <path d="M38,33.5 C38,35.4330769 29.4935424,37 19,37 C8.50676096,37 0,35.4330769 0,33.5 C0,31.5669231 8.50676096,30 19,30 C29.4935424,30 38,31.5669231 38,33.5" id="Fill-1" fill="#272828"></path>
                <path d="M35.5409196,6.62764986 C29.7655866,0.671801274 21.3799567,-0.627854616 15.4602917,3.06902503 L13.8723465,2.96404817 C11.9672816,2.83819695 10.3898972,4.46972493 10.5175078,6.43373006 L10.6404247,8.32573377 C7.51733861,14.3811137 8.88819914,22.6273941 14.4573017,28.3705662 C20.0636607,34.1518567 28.1312908,35.5486237 34.0136994,32.2435165 L36.0548823,32.3847966 C37.9596538,32.5163959 39.5417319,30.8897083 39.4196951,28.9250981 L39.2882709,26.8113421 C42.504058,20.7438611 41.1522657,12.4143859 35.5409196,6.62764986" id="Fill-3" fill="#F5BA5D"></path>
                <path d="M9.33573623,11.8103908 C9.33573623,11.8103908 12.9679753,23.6212155 28.1502293,25.437509 C36.0549213,26.382965 41,20.1051836 41,20.1051836 L40.0654009,22.317996 L38.834335,27.7174202 L36.6689674,31.3803752 L30.0253746,33 L25.6182182,33 L18.5383998,29.9903901 L13.258495,25.6555799 L9.95067446,20.8076958 L8.52632527,17.0414897 L8,14.2615194 L8,11 L9.33573623,11.8103908 Z" id="Fill-5" fill="#EDA340"></path>
                <path d="M13.1406571,4.96026965 C12.6886278,4.96026965 12.2674588,5.13993308 11.9444548,5.47355052 C11.5944114,5.83469215 11.4201244,6.31379462 11.453042,6.822841 L11.6044042,9.14455221 L11.4077803,9.52565645 C8.50897372,15.133938 9.97527667,22.6429014 14.9731684,27.7862963 C20.0183791,32.9786903 27.359005,34.4646944 32.8242091,31.4001323 L33.1992347,31.1899201 L35.6704063,31.3605096 C36.1647582,31.3940831 36.6306011,31.2147221 36.9815263,30.8547903 C37.3324514,30.4945561 37.5085018,30.0160585 37.4767599,29.5070122 L37.3177561,26.9563359 L37.5223155,26.5719046 C40.5104698,20.9454752 39.0694429,13.3853955 34.0180601,8.1869522 C28.8455875,2.86389388 21.1416924,1.46227718 15.7000008,4.85319751 L15.3055774,5.09910048 L13.2541052,4.96389921 C13.2161912,4.9614795 13.1782772,4.96026965 13.1406571,4.96026965 M12.8949507,29.9253194 C7.1049791,23.9667849 5.37886219,15.2210476 8.61654375,8.49818733 L8.52073001,7.0251892 C8.43138223,5.6544238 8.92073769,4.31057766 9.86329803,3.33785446 C10.8055645,2.36513126 12.1087489,1.85699228 13.4419119,1.94561414 L14.5857987,2.0209276 C21.1384594,-1.76954726 30.1055676,-0.117188166 36.0962778,6.04823151 C41.9485577,12.0708883 43.6455778,20.8774209 40.3047348,27.6256881 L40.4096597,29.3137379 C40.4951867,30.6845033 40.0020104,32.0268371 39.0568049,32.9965356 C38.1115994,33.9662342 36.8095906,34.4698362 35.4737824,34.3781897 L33.8431853,34.2656733 C31.6077273,35.433788 29.1394947,36 26.6260005,36 C21.7706538,36 16.7460165,33.888501 12.8949507,29.9253194 Z" id="Fill-7" fill="#404040"></path>
                <path d="M31.8799529,13 C31.4894284,13 31.1101116,12.8054076 30.9038908,12.4588861 C30.9038908,12.4588861 30.9038908,12.4591231 30.9038908,12.4591231 C30.9033927,12.4591231 30.7360251,12.2036169 30.3335458,11.8258089 C29.8929605,11.4119741 29.8882284,10.7367076 30.3230853,10.3174213 C30.7576932,9.89813507 31.4672622,9.89363171 31.9078475,10.3074665 C32.5369704,10.8981174 32.8067013,11.3275954 32.8542715,11.4077078 C33.1593688,11.9201424 32.9698349,12.570996 32.4311204,12.861344 C32.2567791,12.9554405 32.0669962,13 31.8799529,13" id="Fill-9" fill="#FCF3F7"></path>
                <path d="M26.703828,9 C26.5282692,9 26.3498323,8.96864856 26.1788783,8.90268514 C22.8395194,7.61000263 19.8101225,8.64585415 19.7796156,8.65663905 C19.1162335,8.88964294 18.3619062,8.60998811 18.0942509,8.03186758 C17.8268835,7.45349625 18.147782,6.79611929 18.811164,6.56286459 C18.9760742,6.50517794 22.8996699,5.16333638 27.2302166,6.83950968 C27.8841013,7.0928293 28.1785221,7.75948629 27.8881305,8.32933003 C27.6737185,8.74994093 27.2002853,9 26.703828,9" id="Fill-11" fill="#FCF3F7"></path>
            </g>
        </g>
    </g>
</svg>