<?xml version="1.0" encoding="UTF-8"?>
<svg width="228px" height="266px" viewBox="0 0 228 266" version="1.1" xmlns="http://www.w3.org/2000/svg" xmlns:xlink="http://www.w3.org/1999/xlink">
    <title>形状结合</title>
    <g id="Page-1" stroke="none" stroke-width="1" fill="none" fill-rule="evenodd">
        <g id="onto" fill="#FFFFFF" fill-rule="nonzero">
            <path d="M0,0.15 L41.19,41.32 C75.2234666,14.0799729 121.733187,8.42473972 161.302817,26.7151823 C200.872447,45.0056249 226.698728,84.0970426 228,127.67 L228,131 L228,265.85 L186.81,224.69 C152.776023,251.90009 106.28652,257.537635 66.7353669,239.250839 C27.1842141,220.964043 1.36552555,181.894219 0.05,138.34 L0,135 L0,0.15 Z M28.17,68.15 L28.17,135 C28.1951445,167.04249 45.8731833,196.464335 74.1529249,211.530124 C102.432666,226.595913 136.712761,224.854317 163.32,207 L165.55,205.45 L33.67,73.65 L28.17,68.15 Z M64.68,59 L62.45,60.55 L194.33,192.36 L199.83,197.86 L199.83,131 C199.804856,98.9575102 182.126817,69.5356648 153.847075,54.4698757 C125.567334,39.4040866 91.2872389,41.1456834 64.68,59 Z" id="形状结合"></path>
        </g>
    </g>
</svg>