<?xml version="1.0" encoding="UTF-8"?>
<svg width="46px" height="50px" viewBox="0 0 46 50" version="1.1" xmlns="http://www.w3.org/2000/svg" xmlns:xlink="http://www.w3.org/1999/xlink">
    <title>pingguo</title>
    <g id="页面-1" stroke="none" stroke-width="1" fill="none" fill-rule="evenodd">
        <g id="桌面端-HD" transform="translate(-286.000000, -1671.000000)" fill-rule="nonzero">
            <g id="编组-4备份" transform="translate(257.000000, 1646.283988)">
                <g id="pingguo" transform="translate(29.000000, 24.716012)">
                    <path d="M44,27.1312971 C44,35.6984719 37.9709867,47.0757239 28.6004601,48.8285985 C24.8137781,49.5352261 24.577454,47.1798008 22.5,47.2400559 C20.4390337,47.3003109 20.6588701,49.5516593 16.4819785,48.8724204 C6.38599182,47.2400559 1,35.7258606 1,27.1312971 C1,15.4801584 10.8101994,9 22.5,9 C34.1898006,9 44,15.4801584 44,27.1312971 Z" id="路径" fill="#E24141"></path>
                    <path d="M18.3867084,50 C17.8993499,50 17.3455333,49.9568401 16.7197207,49.8543353 C10.3452926,48.8454721 6.38550445,44.5510597 4.18685288,41.1252408 C1.56730075,37.0412331 0,31.8188825 0,27.1576108 C0,21.3148362 2.39248736,16.383815 6.92270648,12.9040462 C11.0375632,9.74258189 16.7474115,8 23,8 C29.2525885,8 34.9568986,9.74258189 39.0772935,12.9040462 C43.6075126,16.383815 46,21.3094412 46,27.1576108 C46,31.6786127 44.3440886,36.8793834 41.5694679,41.060501 C38.4016374,45.8404624 34.0763304,48.9425819 29.3965808,49.8003854 C26.5665784,50.3183044 25.2152661,49.417341 24.2239345,48.7645472 C23.6867325,48.4084778 23.437515,48.2466281 23.0387672,48.2628131 C22.6898627,48.2736031 22.5126415,48.3922929 22.0529738,48.7321773 C21.155791,49.4065511 20.1810739,50 18.3867084,50 Z M23,10.6057803 C12.8817722,10.6057803 2.66939562,15.7256262 2.66939562,27.1630058 C2.66939562,34.3599229 7.27161088,45.7325626 17.1461594,47.2971098 C19.1675897,47.6154143 19.7546352,47.183815 20.4302914,46.6766859 C21.0117987,46.2450867 21.7317602,45.7055877 22.9612328,45.6732177 C24.2350108,45.6354528 25.0601974,46.1857418 25.7247773,46.628131 C26.5222731,47.1568401 27.1591621,47.5776493 28.9036841,47.2593449 C37.4047676,45.7001927 43.3361425,35.417341 43.3361425,27.1630058 C43.3361425,15.7256262 33.123766,10.6057803 23,10.6057803 Z" id="形状" fill="#3A393C"></path>
                    <path d="M22.5222379,20 C19.8828661,20 16.4070339,18.5158775 15.1523433,16.0346103 C14.807586,15.3505226 15.0675669,14.5099063 15.7344745,14.1562678 C16.4013822,13.8026292 17.2208873,14.0693075 17.5656447,14.7533952 C18.215597,16.0404076 20.5723808,17.2056757 22.5165861,17.2056757 C24.4381844,17.2056757 26.7836646,16.063597 27.4392688,14.8055714 C27.7953296,14.127281 28.6204865,13.8721975 29.2817424,14.2316334 C29.9429983,14.5968666 30.1916757,15.4432802 29.8412666,16.1215706 C28.5752724,18.5506617 25.1276991,20 22.5222379,20 L22.5222379,20 Z" id="路径" fill="#3A393C"></path>
                    <path d="M22.7137928,19 C22.0953906,19 21.5377244,18.5706191 21.4107311,17.9510062 C20.3837417,12.9506211 20.7095071,2.77592457 29.2622303,0.0637591932 C29.9579327,-0.159084054 30.7088497,0.221380027 30.9352291,0.906215371 C31.1616084,1.59648592 30.7751071,2.33023807 30.0794046,2.55308132 C21.6481533,5.23263549 23.9174685,16.9400588 24.022376,17.4346621 C24.1659337,18.1412382 23.702132,18.8315088 22.9788223,18.972824 C22.8904791,18.9945648 22.802136,19 22.7137928,19 L22.7137928,19 Z" id="路径" fill="#3A393C"></path>
                    <path d="M19.0411938,13.5793141 C18.2222691,14.5810599 16.7235835,15.4196 14.9679803,14.7724046 C10.1989485,13.0334189 9.19268815,7.59135025 9,6.03245366 C11.6226999,5.8973868 17.4354592,6.08873151 19.1857099,8.48054037 C20.4970599,10.275804 20.0581591,12.3355735 19.0411938,13.5793141 Z" id="路径" fill="#36B474"></path>
                    <path d="M9,6 C9.25116762,7.75924739 10.4042553,13.0427387 15.3419824,14.7732403 C17.2086144,15.422897 18.8126622,14.5720192 19.6860405,13.5429169 C19.7944992,13.4106859 19.902958,13.2669566 20,13.117478 L9,6 Z" id="路径" fill="#229456"></path>
                    <path d="M20.9843872,8.07426632 C18.0973412,4.37130013 8.82515865,5.03550931 8.43835055,5.06318469 C8.16366074,5.085325 7.98427147,5.2735176 8.00108922,5.50599082 C8.00669513,5.58348189 8.12441934,7.4654079 9.05500115,9.65176313 C10.3219378,12.6240992 12.4858208,14.7108231 15.3224136,15.6905316 C17.3853901,16.4045565 19.5212435,15.862119 20.9059044,14.2790871 C21.0404464,14.124105 21.1637765,13.9525176 21.2871066,13.7809302 C21.8981513,14.0798243 22.2401121,14.6056566 23.3388713,14.8381298 C23.6135611,14.8934806 23.8490095,14.8049194 23.9443101,14.6222618 C23.9667337,14.5724462 23.9835515,14.5115603 23.9835515,14.4506745 C23.9947633,14.1573154 24.078852,13.8307459 23.7200735,13.7587899 C22.8119153,13.5705973 22.2681416,13.1443964 21.7411857,12.8897829 C22.3185949,11.4728033 22.2569298,9.70157882 20.9843872,8.07426632 L20.9843872,8.07426632 Z M18.9606521,12.895318 C18.243095,13.7089742 16.9425229,14.3897886 15.4177141,13.8805616 C11.2861551,12.463582 10.4060265,8.02445063 10.2378491,6.75138303 C12.5138504,6.6406815 17.5535675,6.80119872 19.0783763,8.74401058 C20.2275888,10.2052708 19.8463866,11.882399 18.9606521,12.895318 Z" id="形状" fill="#3A393C"></path>
                    <path d="M21.0141102,27 C20.9595413,27 20.8995156,26.9949545 20.8449467,26.9848635 C13.6309449,25.8143107 11.2572,22.5448356 11.1589761,22.4086075 C10.8643043,21.9847867 10.9898127,21.4247377 11.448191,21.147236 C11.9011124,20.8747797 12.5068267,20.9908259 12.8069553,21.4096012 C12.8506104,21.4651016 14.9242267,24.1795732 21.1832736,25.1937159 C21.7180483,25.2794892 22.0782027,25.7537649 21.9854357,26.2482225 C21.9035824,26.6871799 21.4834023,27 21.0141102,27 L21.0141102,27 Z" id="路径" fill="#FFFFFF"></path>
                    <path d="M8,19 C8,19.5522848 8.44771525,20 9,20 C9.55228475,20 10,19.5522848 10,19 C10,18.6427344 9.8094011,18.3126074 9.5,18.1339746 C9.19059893,17.9553418 8.80940107,17.9553418 8.5,18.1339746 C8.1905989,18.3126074 8,18.6427344 8,19 L8,19 Z" id="路径" fill="#FFFFFF"></path>
                </g>
            </g>
        </g>
    </g>
</svg>