<?xml version="1.0" encoding="utf-8"?>
<!-- Generator: Adobe Illustrator 25.2.3, SVG Export Plug-In . SVG Version: 6.00 Build 0)  -->
<svg version="1.1" id="图层_1" xmlns="http://www.w3.org/2000/svg" xmlns:xlink="http://www.w3.org/1999/xlink" x="0px" y="0px"
	 viewBox="0 0 200 200" style="enable-background:new 0 0 200 200;" xml:space="preserve">
<style type="text/css">
	.st0{fill:#FFE60F;}
	.st1{fill:#3A393C;}
	.st2{fill:#DDC93A;}
	.st3{fill:#FFFFFF;}
</style>
<path class="st0" d="M173.1,92.5c-26.3,7.7-44.2,0.5-60.1-6.9c-14.5-6.8-35.9-20.9-48.8-45.3L45.7,41c1.7,32.3,16.6,71.4,48.4,84.8
	c31.5,13.2,67.1,1.8,91.3-19.2L173.1,92.5L173.1,92.5z"/>
<path class="st1" d="M122.7,135.4L122.7,135.4c-10.5,0-20.7-2-30.1-6c-34.9-14.6-49.2-56.7-50.9-88.2c-0.1-2.2,1.6-4.1,3.8-4.2
	c0,0,0.1,0,0.1,0l18.5-0.6c1.5,0,2.9,0.8,3.7,2.1c13.3,25,35.1,38,47,43.5c10.6,5,22.2,9.8,36.5,9.8c6.7,0,13.5-1,20.8-3.1
	c1.5-0.4,3.1,0,4.1,1.2l12.3,14.1c1.5,1.7,1.3,4.2-0.4,5.6c0,0,0,0,0,0C169.1,126,145.3,135.4,122.7,135.4z M50,44.8
	c2.5,28.7,15.7,64.6,45.7,77.2c8.5,3.5,17.5,5.3,27,5.3c19.5,0,40.1-7.7,57.1-21.3l-8-9.1c-7.1,1.9-13.8,2.8-20.6,2.8
	c-16,0-28.5-5.2-39.9-10.6c-12.4-5.8-35-19.2-49.5-44.8C61.9,44.4,50,44.8,50,44.8z"/>
<path class="st0" d="M45.3,43.7c0,5.3,4.3,9.7,9.7,9.7c5.3,0,9.7-4.3,9.7-9.7c0,0,0,0,0,0c0-5.3-4.3-9.7-9.7-9.7
	S45.3,38.3,45.3,43.7z"/>
<path class="st2" d="M55,57.3c-7.5,0-13.7-6.1-13.7-13.7C41.3,36.1,47.5,30,55,30s13.7,6.1,13.7,13.7C68.7,51.2,62.6,57.3,55,57.3z
	 M55,38c-3.1,0-5.7,2.5-5.7,5.7c0,3.1,2.5,5.7,5.7,5.7c3.1,0,5.7-2.5,5.7-5.7C60.7,40.5,58.1,38,55,38z"/>
<path class="st0" d="M185.9,105.2c-2.1,4.9-7.7,7.2-12.7,5.2c-4.9-2.1-7.2-7.7-5.2-12.7c2.1-4.9,7.7-7.2,12.7-5.2
	S188,100.2,185.9,105.2z"/>
<path class="st1" d="M177,115.1c-1.8,0-3.6-0.4-5.3-1.1c-3.3-1.4-6-4.1-7.4-7.4c-1.4-3.4-1.4-7.1,0-10.5c2.1-5.1,7.1-8.4,12.6-8.4
	c1.8,0,3.6,0.4,5.3,1.1c7,2.9,10.2,10.9,7.3,17.9C187.5,111.8,182.5,115.1,177,115.1L177,115.1z M177,95.8c-2.3,0-4.4,1.4-5.2,3.5
	c-0.6,1.4-0.6,3,0,4.3c0.6,1.4,1.7,2.5,3.1,3.1c2.9,1.2,6.2-0.1,7.4-3c0,0,0,0,0,0c1.2-2.9-0.2-6.2-3-7.4
	C178.5,95.9,177.7,95.8,177,95.8L177,95.8z"/>
<path class="st3" d="M123.2,118.2C89,118.2,72.7,91.5,72,90.3c-1.1-1.9-0.5-4.4,1.4-5.5c0,0,0,0,0,0c1.9-1.1,4.3-0.5,5.5,1.4
	c0.6,1.1,15.6,25.3,46.8,24c2.2-0.1,4.1,1.6,4.2,3.8c0.1,2.2-1.6,4.1-3.8,4.2C125.1,118.2,124.1,118.2,123.2,118.2L123.2,118.2z"/>
<path class="st3" d="M62.7,75.4c0,2.7,2.2,4.8,4.8,4.8s4.8-2.2,4.8-4.8c0,0,0,0,0,0c0-2.7-2.2-4.8-4.8-4.8
	C64.9,70.6,62.7,72.7,62.7,75.4C62.7,75.4,62.7,75.4,62.7,75.4z"/>
<path class="st0" d="M143.5,138.8c-26.9-5.1-45.4-17.6-56.2-31.4c-9.8-12.6-22.5-34.9-23-62.5L47.6,37
	c-13.1,29.6-17.6,71.2,4.7,97.5c22.1,26.1,64.7,30,95.8,22.4L143.5,138.8L143.5,138.8z"/>
<path class="st1" d="M118.8,164.4L118.8,164.4c-29.5,0-54.8-9.9-69.5-27.3C24.8,108.3,31.1,64.3,44,35.4c0.9-2,3.3-2.9,5.3-2
	c0,0,0,0,0.1,0l16.8,7.8c1.4,0.6,2.3,2,2.3,3.5c0.5,28.3,14.1,49.8,22.1,60.1c11.7,15,30.8,25.6,53.8,29.9c1.5,0.3,2.8,1.4,3.1,2.9
	l4.6,18.1c0.5,2.1-0.8,4.3-2.9,4.9c0,0,0,0,0,0C139.5,163.2,129.1,164.4,118.8,164.4L118.8,164.4z M49.7,42.4
	c-10.8,26.7-15.3,64.7,5.7,89.5c13.2,15.5,36.3,24.4,63.4,24.4h0c8.2,0,16.6-0.9,24.5-2.5l-3-11.7c-23.8-5-43.6-16.4-56.1-32.4
	c-8.4-10.8-22.5-33-23.8-62.4C60.5,47.5,49.7,42.4,49.7,42.4z"/>
<path class="st0" d="M45,43.7c0,5.3,4.3,9.7,9.7,9.7c5.3,0,9.7-4.3,9.7-9.7c0,0,0,0,0,0c0-5.3-4.3-9.7-9.7-9.7S45,38.3,45,43.7z"/>
<path class="st1" d="M54.7,57.4c-7.5,0-13.7-6.1-13.7-13.7C41,36.1,47.2,30,54.7,30s13.7,6.1,13.7,13.7
	C68.4,51.2,62.2,57.4,54.7,57.4z M54.7,38c-3.1,0-5.7,2.5-5.7,5.7c0,3.1,2.5,5.7,5.7,5.7c3.1,0,5.7-2.5,5.7-5.7
	C60.4,40.6,57.8,38,54.7,38z"/>
<path class="st0" d="M133.3,148.5c0,5.3,4.3,9.7,9.7,9.7c5.3,0,9.7-4.3,9.7-9.7c0,0,0,0,0,0c0-5.3-4.3-9.7-9.7-9.7
	C137.6,138.8,133.3,143.1,133.3,148.5C133.3,148.5,133.3,148.5,133.3,148.5z"/>
<path class="st1" d="M142.9,162.2c-7.5,0-13.7-6.1-13.7-13.7c0-7.5,6.1-13.7,13.7-13.7c7.5,0,13.7,6.1,13.7,13.7
	C156.6,156,150.5,162.2,142.9,162.2L142.9,162.2z M142.9,142.8c-3.1,0-5.7,2.5-5.7,5.7s2.5,5.7,5.7,5.7c3.1,0,5.7-2.5,5.7-5.7
	S146.1,142.8,142.9,142.8z"/>
<path class="st3" d="M85.8,142.6c-0.6,0-1.1-0.1-1.7-0.4c-32.8-15-35.4-47.9-35.5-49.3c-0.1-2.2,1.5-4.1,3.7-4.3c0,0,0,0,0,0
	c2.2-0.2,4.1,1.5,4.3,3.7c0.1,1.2,2.4,29.6,30.9,42.6c2,0.9,2.9,3.3,2,5.3C88.8,141.7,87.4,142.6,85.8,142.6z"/>
<path class="st3" d="M46.7,77.7c0,2.7,2.2,4.8,4.8,4.8s4.8-2.2,4.8-4.8c0,0,0,0,0,0c0-2.7-2.2-4.8-4.8-4.8S46.7,75,46.7,77.7z"/>
<path class="st0" d="M97.9,165.8c-22.7-15.4-34.6-34.2-39-51.2c-4-15.5-6.7-41,3.8-66.5L50.4,34.3C26.6,56.2,5.9,92.5,15.9,125.6
	c9.9,32.7,47.4,53.3,79,58.7L97.9,165.8z"/>
<path class="st1" d="M94.9,188.2c-0.2,0-0.4,0-0.7-0.1c-17.4-2.9-34.9-9.9-49.2-19.7c-16.7-11.4-28.1-25.8-32.9-41.8
	c-10.9-36.2,12.3-74,35.6-95.4c0.8-0.7,1.8-1.1,2.9-1.1c1.1,0.1,2.1,0.5,2.8,1.3l12.3,13.9c1,1.1,1.3,2.8,0.7,4.2
	c-10.8,26.1-6.9,51.3-3.6,63.9c4.7,18.4,18,35.7,37.4,48.9c1.3,0.9,2,2.4,1.7,4l-3,18.5c-0.2,1.1-0.8,2-1.6,2.6
	C96.5,188,95.7,188.2,94.9,188.2z M50.2,40c-20.5,20.2-39.8,53.3-30.4,84.4c9,29.8,42.8,49.1,71.9,55.1l1.9-11.9
	c-19.8-14.1-33.5-32.5-38.5-52c-3.4-13.3-7.5-39.2,3-66.7L50.2,40z"/>
<path class="st0" d="M83.8,174.5c0,5.3,4.3,9.7,9.7,9.7c5.3,0,9.7-4.3,9.7-9.7c0,0,0,0,0,0c0-5.3-4.3-9.7-9.7-9.7
	C88.1,164.8,83.8,169.1,83.8,174.5C83.8,174.5,83.8,174.5,83.8,174.5z"/>
<path class="st1" d="M93.5,188.1c-7.5,0-13.7-6.1-13.7-13.7s6.1-13.7,13.7-13.7s13.7,6.1,13.7,13.7S101,188.1,93.5,188.1L93.5,188.1
	z M93.5,168.8c-3.1,0-5.7,2.5-5.7,5.7c0,3.1,2.5,5.7,5.7,5.7s5.7-2.5,5.7-5.7C99.1,171.3,96.6,168.8,93.5,168.8z"/>
<path class="st3" d="M45,146.7c-1.1,0-2.2-0.5-3-1.3C17.9,118.5,28.7,87.3,29.1,86c0.7-2.1,3-3.2,5.1-2.4c2.1,0.7,3.2,3,2.4,5.1l0,0
	c-0.4,1.2-9.5,28.1,11.4,51.4c1.5,1.6,1.3,4.2-0.3,5.6C47,146.3,46,146.7,45,146.7z"/>
<path class="st3" d="M50.3,152.4c0,2.7,2.2,4.8,4.8,4.8c2.7,0,4.8-2.2,4.8-4.8c0,0,0,0,0,0c0-2.7-2.2-4.8-4.8-4.8
	C52.5,147.6,50.3,149.7,50.3,152.4C50.3,152.4,50.3,152.4,50.3,152.4z"/>
<path class="st3" d="M93,143.7c0,2.7,2.2,4.8,4.8,4.8s4.8-2.2,4.8-4.8c0-2.7-2.2-4.8-4.8-4.8C95.1,138.9,93,141.1,93,143.7
	C93,143.7,93,143.7,93,143.7z"/>
<path class="st3" d="M135,111.7c0,2.7,2.2,4.8,4.8,4.8s4.8-2.2,4.8-4.8c0,0,0,0,0,0c0-2.7-2.2-4.8-4.8-4.8
	C137.1,106.9,135,109.1,135,111.7C135,111.7,135,111.7,135,111.7z"/>
<path class="st0" d="M79.6,21c-2.7-4.9-7.9-6.6-12.2-4.2c-0.3,0-0.5,0.1-0.8,0.2L33.4,29.2c-2.1,0.7-3.3,3.4-2.7,5.9l3.2,13
	c0.6,2.5,2.8,4,5,3.3L74,39.2c0.3-0.1,0.6-0.3,0.9-0.5c1.3-0.2,2.7-0.8,3.9-1.7C83.2,33.5,82.5,26.3,79.6,21z"/>
<path class="st1" d="M37.6,55.6c-3.6,0-6.8-2.7-7.7-6.5l-3.2-13c-0.1-0.3-0.5-1-0.8-1.4c-0.8-1.3-2-3.2-1.1-5.5
	c0.3-0.8,1.1-2.3,3.2-3l37.2-12.9c0.3-0.1,0.6-0.2,0.8-0.2c1.7-0.8,3.5-1.2,5.3-1.2c4.8,0,9.1,2.7,11.6,7.3c3.6,6.6,4.6,16-1.9,21.1
	c-1.5,1.1-3.1,1.9-4.8,2.4c-0.3,0.2-0.7,0.3-1.1,0.5L40.1,55.2C39.3,55.4,38.5,55.6,37.6,55.6z M34,32.5c0.2,0.5,0.4,1.1,0.6,1.7
	l3.2,13c0,0.1,0.1,0.2,0.1,0.3l34.8-12.1c0.5-0.3,1-0.5,1.6-0.6c0.7-0.1,1.5-0.5,2.1-1c2.5-2,1.9-7.1-0.2-10.9
	c-1.1-2-2.8-3.2-4.6-3.2c-0.7,0-1.4,0.2-2.1,0.6c-0.5,0.3-1,0.4-1.5,0.5C67.8,20.8,34,32.5,34,32.5z"/>
<path class="st0" d="M38,49.8c-3.5,4.5-9.6,4.5-13.8,0.1c-4.2-4.4-4.7-11.7-1.3-16.2c3.5-4.5,9.6-4.5,13.8-0.1
	C40.9,38.1,41.4,45.3,38,49.8z"/>
<path class="st1" d="M31.3,57.2c-3.7,0-7.3-1.6-10-4.6c-5.5-5.9-6.2-15.3-1.5-21.4c2.4-3.1,6-5,9.9-5c3.7,0,7.3,1.6,10,4.6
	c5.5,5.9,6.2,15.3,1.5,21.4C38.7,55.4,35.1,57.2,31.3,57.2z M29.6,34.3c-1.4,0-2.6,0.6-3.5,1.8c-2.3,2.9-1.8,8,1,11
	c1.2,1.3,2.7,2,4.2,2c1.4,0,2.6-0.6,3.5-1.8c2.3-2.9,1.8-8-1-11C32.5,35,31.1,34.3,29.6,34.3z"/>
</svg>
