<?xml version="1.0" encoding="UTF-8"?>
<svg width="35px" height="36px" viewBox="0 0 35 36" version="1.1" xmlns="http://www.w3.org/2000/svg" xmlns:xlink="http://www.w3.org/1999/xlink">
    <title>编组</title>
    <g id="页面-1" stroke="none" stroke-width="1" fill="none" fill-rule="evenodd">
        <g id="桌面端-HD备份" transform="translate(-35.000000, -23.000000)">
            <g id="编组" transform="translate(35.000000, 23.000000)">
                <path d="M28.5409196,6.62764986 C22.7655866,0.671801274 14.3799567,-0.627854616 8.46029169,3.06902503 L6.87234646,2.96404817 C4.96728156,2.83819695 3.38989721,4.46972493 3.51750781,6.43373006 L3.64042468,8.32573377 C0.517338612,14.3811137 1.88819914,22.6273941 7.45730172,28.3705662 C13.0636607,34.1518567 21.1312908,35.5486237 27.0136994,32.2435165 L29.0548823,32.3847966 C30.9596538,32.5163959 32.5417319,30.8897083 32.4196951,28.9250981 L32.2882709,26.8113421 C35.504058,20.7438611 34.1522657,12.4143859 28.5409196,6.62764986" id="Fill-3" fill="#F5BA5D"></path>
                <path d="M2.33573623,11.8103908 C2.33573623,11.8103908 5.96797535,23.6212155 21.1502293,25.437509 C29.0549213,26.382965 34,20.1051836 34,20.1051836 L33.0654009,22.317996 L31.834335,27.7174202 L29.6689674,31.3803752 L23.0253746,33 L18.6182182,33 L11.5383998,29.9903901 L6.258495,25.6555799 L2.95067446,20.8076958 L1.52632527,17.0414897 L1,14.2615194 L1,11 L2.33573623,11.8103908 Z" id="Fill-5" fill="#EDA340"></path>
                <path d="M6.14065706,4.96026965 C5.68862781,4.96026965 5.26745881,5.13993308 4.94445482,5.47355052 C4.59441136,5.83469215 4.4201244,6.31379462 4.453042,6.822841 L4.6044042,9.14455221 L4.4077803,9.52565645 C1.50897372,15.133938 2.97527667,22.6429014 7.97316837,27.7862963 C13.0183791,32.9786903 20.359005,34.4646944 25.8242091,31.4001323 L26.1992347,31.1899201 L28.6704063,31.3605096 C29.1647582,31.3940831 29.6306011,31.2147221 29.9815263,30.8547903 C30.3324514,30.4945561 30.5085018,30.0160585 30.4767599,29.5070122 L30.3177561,26.9563359 L30.5223155,26.5719046 C33.5104698,20.9454752 32.0694429,13.3853955 27.0180601,8.1869522 C21.8455875,2.86389388 14.1416924,1.46227718 8.70000084,4.85319751 L8.30557739,5.09910048 L6.25410524,4.96389921 C6.21619121,4.9614795 6.17827718,4.96026965 6.14065706,4.96026965 M5.89495066,29.9253194 C0.104979096,23.9667849 -1.62113781,15.2210476 1.61654375,8.49818733 L1.52073001,7.0251892 C1.43138223,5.6544238 1.92073769,4.31057766 2.86329803,3.33785446 C3.80556447,2.36513126 5.10874893,1.85699228 6.44191193,1.94561414 L7.5857987,2.0209276 C14.1384594,-1.76954726 23.1055676,-0.117188166 29.0962778,6.04823151 C34.9485577,12.0708883 36.6455778,20.8774209 33.3047348,27.6256881 L33.4096597,29.3137379 C33.4951867,30.6845033 33.0020104,32.0268371 32.0568049,32.9965356 C31.1115994,33.9662342 29.8095906,34.4698362 28.4737824,34.3781897 L26.8431853,34.2656733 C24.6077273,35.433788 22.1394947,36 19.6260005,36 C14.7706538,36 9.74601651,33.888501 5.89495066,29.9253194 Z" id="Fill-7" fill="#404040"></path>
                <path d="M24.8799529,13 C24.4894284,13 24.1101116,12.8054076 23.9038908,12.4588861 C23.9038908,12.4588861 23.9038908,12.4591231 23.9038908,12.4591231 C23.9033927,12.4591231 23.7360251,12.2036169 23.3335458,11.8258089 C22.8929605,11.4119741 22.8882284,10.7367076 23.3230853,10.3174213 C23.7576932,9.89813507 24.4672622,9.89363171 24.9078475,10.3074665 C25.5369704,10.8981174 25.8067013,11.3275954 25.8542715,11.4077078 C26.1593688,11.9201424 25.9698349,12.570996 25.4311204,12.861344 C25.2567791,12.9554405 25.0669962,13 24.8799529,13" id="Fill-9" fill="#FCF3F7"></path>
                <path d="M19.703828,9 C19.5282692,9 19.3498323,8.96864856 19.1788783,8.90268514 C15.8395194,7.61000263 12.8101225,8.64585415 12.7796156,8.65663905 C12.1162335,8.88964294 11.3619062,8.60998811 11.0942509,8.03186758 C10.8268835,7.45349625 11.147782,6.79611929 11.811164,6.56286459 C11.9760742,6.50517794 15.8996699,5.16333638 20.2302166,6.83950968 C20.8841013,7.0928293 21.1785221,7.75948629 20.8881305,8.32933003 C20.6737185,8.74994093 20.2002853,9 19.703828,9" id="Fill-11" fill="#FCF3F7"></path>
            </g>
        </g>
    </g>
</svg>