<?xml version="1.0" encoding="utf-8"?>
<!-- Generator: Adobe Illustrator 25.2.3, SVG Export Plug-In . SVG Version: 6.00 Build 0)  -->
<svg version="1.1" id="图层_1" xmlns="http://www.w3.org/2000/svg" xmlns:xlink="http://www.w3.org/1999/xlink" x="0px" y="0px"
	 viewBox="0 0 200 200" style="enable-background:new 0 0 200 200;" xml:space="preserve">
<style type="text/css">
	.st0{fill:#8DD049;}
	.st1{fill:#599917;}
	.st2{fill:#FFE416;}
	.st3{fill:#3A393C;}
</style>
<path class="st0" d="M100,70.6c5.2,0,10.3,0.7,15.3,2c2.1-6.8,3.2-13.9,3.2-21c0-17.6-6.5-34.7-18.4-47.7
	C83.2,22.5,77.4,48.6,84.8,72.6C89.7,71.2,94.9,70.6,100,70.6z"/>
<path class="st0" d="M99.9,71.1C88.1,49.1,63.4,34,34.8,34c0,0,22.7,13.3,31.2,46.7L99.9,71.1z"/>
<path class="st1" d="M65.9,40.4c5.6,2.4,10.9,5.6,15.7,9.3c0.1-6.1,1.1-12.1,2.8-17.9v-2.5c-9.1-12.8-23-21-38.7-21
	c0,0,12.8,12.8,20,31.9L65.9,40.4z M133.9,40.4c-5.6,2.4-10.9,5.6-15.7,9.3c-0.1-6.1-1.1-12.1-2.8-17.9v-2.5c9.1-12.8,23-21,38.7-21
	c0,0-12.8,12.8-20,31.9L133.9,40.4z"/>
<path class="st0" d="M100.1,71.1c11.8-22,36.5-37.2,65.1-37.2c0,0-22.7,13.3-31.2,46.7L100.1,71.1z"/>
<path class="st2" d="M100,70.6c-31.9,0-57.8,25.9-57.8,57.8V170c0,14.4,11.7,26.1,26.1,26.1l0,0h63.4c14.4,0,26.1-11.7,26.1-26.1
	c0,0,0,0,0,0v-41.6C157.8,96.4,132,70.6,100,70.6z"/>
<path class="st3" d="M100,95.9c-2.2,0-3.9,1.7-3.9,3.9s1.7,3.9,3.9,3.9c2.2,0,3.9-1.7,3.9-3.9c0-1-0.4-2-1.1-2.8
	C102.1,96.3,101.1,95.9,100,95.9z M102.8,154.1c-1.5-1.5-4-1.5-5.5,0c-1.5,1.5-1.5,4,0,5.5c1.5,1.5,4,1.5,5.5,0
	c0.7-0.7,1.1-1.7,1.1-2.8C103.9,155.8,103.5,154.8,102.8,154.1z M73.8,125.8c-1.5-1.5-4-1.5-5.5,0c-1.5,1.5-1.5,4,0,5.5
	c1.5,1.5,4,1.5,5.5,0c0.7-0.7,1.1-1.7,1.1-2.8C74.9,127.5,74.5,126.5,73.8,125.8z M126.6,125.8c-1.5,1.5-1.5,4,0,5.5
	c1.5,1.5,4,1.5,5.5,0c1.5-1.5,1.5-4,0-5.5c-0.7-0.7-1.7-1.1-2.8-1.1C128.3,124.6,127.3,125,126.6,125.8z M129.3,175.6
	c-2.2,0-3.9,1.7-3.9,3.9c0,2.2,1.7,3.9,3.9,3.9c2.2,0,3.9-1.7,3.9-3.9c0-1-0.4-2-1.1-2.8C131.4,176.1,130.4,175.6,129.3,175.6z
	 M71,175.6c-2.2,0-3.9,1.7-3.9,3.9c0,2.2,1.7,3.9,3.9,3.9s3.9-1.7,3.9-3.9c0-1-0.4-2-1.1-2.8C73,176.1,72.1,175.6,71,175.6z"/>
<path class="st3" d="M170.4,33.2c-0.5-1.7-2-2.9-3.8-2.9c-8.6,0-17.2,1.3-25.5,3.8c6.8-13.8,15.7-22.8,15.8-22.9
	c1.5-1.5,1.5-4,0-5.5c-0.7-0.7-1.7-1.2-2.8-1.2c-14.4,0-27.8,6.3-37.8,17.6c-3.3-7.6-7.8-14.6-13.3-20.8C101.5-0.3,99-0.4,97.4,1
	c-0.1,0.1-0.2,0.2-0.3,0.3C91.5,7.5,87,14.5,83.7,22.2c-10-11.4-23.5-17.8-38-17.8c-2.2,0-3.9,1.8-3.9,3.9c0,1,0.4,2,1.1,2.8
	c0.1,0.1,9,9,15.8,22.9c-8.2-2.5-16.8-3.7-25.3-3.7c-2.2,0-3.9,1.8-3.9,3.9c0,1.4,0.8,2.7,2,3.4c0.1,0,5.9,3.4,12.5,10.1
	c1.5,1.5,4,1.5,5.5-0.1c1.5-1.5,1.5-3.9,0-5.4c-1.1-1.1-2.2-2.1-3.2-3.1C65.9,42.3,83.1,52.4,93.2,67c-8.7,1-17,3.7-24.5,8.2
	c-0.9-3.4-2.1-6.8-3.5-10c-1-1.9-3.3-2.7-5.3-1.7c-1.7,0.9-2.5,3-1.9,4.8c1.6,3.7,2.9,7.6,3.7,11.6C47,91.6,38.3,109.5,38.3,128.4
	V170c0,16.6,13.5,30,30,30h63.4c16.6,0,30-13.5,30-30v-41.6c0-18.9-8.7-36.8-23.6-48.5c2.5-11.7,8.3-22.2,17-31.4
	c6.9-7.2,13.2-10.9,13.3-10.9C170.1,36.7,170.8,34.9,170.4,33.2L170.4,33.2z M144.7,13.4c-4.3,5.6-9.8,14.1-13.9,24.5
	c-3.1,1.4-6.1,3-9,4.8c-0.5-4.1-1.3-8.1-2.5-12C126,21.7,134.9,15.7,144.7,13.4z M55.1,13.4C65,15.7,74,21.8,80.6,30.8
	c-1.1,3.9-1.9,7.8-2.4,11.8c-3-1.8-6.1-3.5-9.3-4.9C64.9,27.4,59.4,19,55.1,13.4L55.1,13.4z M85.6,47.8c0.8-13.8,5.8-27,14.4-37.8
	c8.5,10.7,13.5,23.8,14.4,37.5c0,0.1,0,0.2,0,0.2c-3.8,3-7.4,6.4-10.5,10.2V32.7c0-2.2-1.7-3.9-3.9-3.9s-3.9,1.7-3.9,3.9V58
	C93,54.2,89.5,50.8,85.6,47.8L85.6,47.8z M134.7,87.1l-6.2,6.2l-17.8-17.8C119.5,77.3,127.8,81.3,134.7,87.1z M153.9,170
	c0,1.6-0.2,3.3-0.5,4.8l-18.6-18.7l19.2-19.2V170z M129.2,150.7l-23.5-23.5l22.7-22.7l23.5,23.5L129.2,150.7z M76.7,156.2l23.5-23.5
	l23.5,23.5l-23.5,23.5L76.7,156.2z M59.9,92.4l6.5,6.5l-19.3,19.3C49,108.6,53.4,99.7,59.9,92.4z M89.8,75.4L71.9,93.3L65.6,87
	C72.5,81.1,80.9,77.2,89.8,75.4z M46.1,170v-33.3l19.5,19.5L46.7,175C46.3,173.4,46.1,171.7,46.1,170z M48.4,127.9l23.5-23.5
	l22.7,22.7l-23.5,23.5L48.4,127.9z M100.2,121.6L77.5,98.9l22.7-22.7l22.7,22.7L100.2,121.6z M50.1,182.7l21-21L97.4,188l4.2,4.2
	H68.3C61.1,192.2,54.3,188.6,50.1,182.7L50.1,182.7z M131.7,192.2h-19.1c-0.1-0.1-0.2-0.3-0.3-0.4l-6.6-6.6l23.5-23.5l20.8,20.8
	C145.9,188.6,139.1,192.2,131.7,192.2z M152.9,117.8L134,98.9l6.3-6.3C146.7,99.7,151,108.4,152.9,117.8L152.9,117.8z M131.3,75.2
	c-7.5-4.4-15.8-7.2-24.5-8.1c10.1-14.6,27.3-24.8,46.8-27.9C145.7,46.3,135.8,58.2,131.3,75.2L131.3,75.2z"/>
<path class="st3" d="M55.3,59.1c2.2,0,3.9-1.8,3.9-3.9c0-0.8-0.2-1.6-0.7-2.2l0-0.1c-1.2-1.8-3.6-2.3-5.4-1.1
	c-1.8,1.2-2.3,3.6-1.1,5.4c0,0,0,0.1,0.1,0.1l0,0.1C52.8,58.5,54,59.1,55.3,59.1z"/>
</svg>
