<?xml version="1.0" encoding="utf-8"?>
<!-- Generator: Adobe Illustrator 25.2.3, SVG Export Plug-In . SVG Version: 6.00 Build 0)  -->
<svg version="1.1" id="图层_1" xmlns="http://www.w3.org/2000/svg" xmlns:xlink="http://www.w3.org/1999/xlink" x="0px" y="0px"
	 viewBox="0 0 200 200" style="enable-background:new 0 0 200 200;" xml:space="preserve">
<style type="text/css">
	.st0{fill:#DBD36E;}
	.st1{fill:#3A393C;}
	.st2{fill:#FFD58A;}
	.st3{fill:#FFAE39;}
	.st4{fill:#CC7636;}
</style>
<path class="st0" d="M181.9,58.9c0,45-36.5,81.5-81.5,81.5s-81.5-36.5-81.5-81.5H181.9L181.9,58.9z"/>
<path class="st1" d="M100.4,144.1c-47,0-85.2-38.2-85.2-85.2v-3.7h170.4v3.7C185.6,105.8,147.4,144.1,100.4,144.1L100.4,144.1z
	 M22.6,62.6c1.9,41.2,36.1,74.2,77.8,74.2s75.9-32.9,77.8-74.2C178.2,62.6,22.6,62.6,22.6,62.6z"/>
<path class="st2" d="M168.2,62.9c0,37.4-30.4,67.8-67.8,67.8s-67.8-30.4-67.8-67.8L168.2,62.9L168.2,62.9z"/>
<path class="st3" d="M145.7,62.8c0,25-20.3,45.3-45.3,45.3S55.1,87.8,55.1,62.8H145.7z"/>
<path class="st4" d="M64.8,81.1c2.2,1.2,5.8-1.1,8.2-5.2c2.3-4.1,2.4-8.5,0.1-9.7c-2.2-1.2-5.8,1.1-8.2,5.2
	C62.6,75.6,62.6,79.9,64.8,81.1z M88.1,95.8c2.4,0.5,5.1-3,6.1-7.8c1-4.8-0.1-9.1-2.4-9.6c-2.4-0.5-5.1,3-6.1,7.8
	C84.7,91.1,85.8,95.3,88.1,95.8z M106.8,88.3c1,4.8,3.7,8.3,6.1,7.8c2.4-0.5,3.5-4.8,2.5-9.6c-1-4.8-3.7-8.3-6.1-7.8
	C106.9,79.2,105.8,83.5,106.8,88.3z"/>
<path class="st4" d="M128.1,76.3c1.4,2.6,3.5,4.8,5.4,5.4c1.9,0.7,3.5-0.1,4-2.1c0.5-2-0.1-4.9-1.5-7.6c-1.4-2.6-3.5-4.8-5.4-5.4
	s-3.5,0.1-4,2.1C126.1,70.8,126.6,73.6,128.1,76.3z"/>
</svg>
