<?xml version="1.0" encoding="UTF-8"?>
<svg width="50px" height="50px" viewBox="0 0 50 50" version="1.1" xmlns="http://www.w3.org/2000/svg" xmlns:xlink="http://www.w3.org/1999/xlink">
    <title>orange</title>
    <g id="页面-1" stroke="none" stroke-width="1" fill="none" fill-rule="evenodd">
        <g id="桌面端-HD" transform="translate(-287.000000, -1551.000000)" fill-rule="nonzero">
            <g id="编组-4" transform="translate(258.000000, 1526.283988)">
                <g id="orange" transform="translate(29.000000, 24.716012)">
                    <path d="M1,29.5 C1,36.4666789 4.71667888,42.9041558 10.7499999,46.3874953 C16.783321,49.8708349 24.216679,49.8708349 30.2500001,46.3874953 C36.2833211,42.9041558 40,36.4666789 40,29.5 C40,18.7304473 31.2695526,10 20.5,10 C9.73044738,10 1,18.7304473 1,29.5 Z" id="路径" fill="#F37321"></path>
                    <path d="M21.525,8.85714283 C20.9555555,4.97142853 17.6527777,2 13.6666667,2 C12.9833333,2 12.5277778,2.45714286 12.5277778,3.14285713 C12.5277778,3.8285714 12.9833333,4.28571426 13.6666667,4.28571426 C16.4,4.28571426 18.7916667,6.22857139 19.2472222,8.97142856 C8.54166669,9.54285715 0,18.4571428 0,29.4285714 C0,40.7428571 9.225,50 20.5,50 C31.775,50 41,40.7428571 41,29.4285714 C41,18.4571428 32.3444445,9.42857142 21.525,8.85714283 Z M20.5,47.7142857 C10.4777778,47.7142857 2.2777778,39.4857143 2.2777778,29.4285714 C2.2777778,19.3714286 10.4777778,11.1428571 20.5,11.1428571 C30.5222222,11.1428571 38.7222222,19.3714286 38.7222222,29.4285714 C38.7222222,39.4857143 30.5222222,47.7142857 20.5,47.7142857 Z" id="形状" fill="#3A393C"></path>
                    <path d="M31.7560975,15 C34.1707317,18.1045296 35.5505226,21.8989547 35.5505226,26.1533101 C35.5505226,36.271777 27.271777,44.5505226 17.1533101,44.5505227 C12.8989547,44.5505227 9.10452959,43.1707317 6,40.7560976 C9.33449477,45.1254355 14.6236934,48 20.6027875,48 C30.7212544,48 39,39.7212544 39,29.6027875 C39,23.6236934 36.1254355,18.3344948 31.7560975,15 L31.7560975,15 Z" id="路径" fill="#EB5C24"></path>
                    <path d="M29.5,49 C19.1764706,49 10.6882353,40.7647059 10,30.2941176 L10,29 L49,29 L49,30.2941176 C48.3117647,40.7647059 39.8235294,49 29.5,49 Z" id="路径" fill="#FFEDA9"></path>
                    <path d="M29.5,50 C18.225,50 9,41.0473684 9,30.1052631 C9,29.4421053 9.45555556,29 10.1388889,29 L48.8611111,29 C49.5444444,29 50,29.4421053 50,30.1052631 C50,41.0473684 40.775,50 29.5,50 Z M11.2777778,31.2105263 C11.8472223,40.4947368 19.8194445,47.7894737 29.5,47.7894737 C39.1805555,47.7894737 47.1527778,40.4947368 47.7222222,31.2105263 L11.2777778,31.2105263 Z" id="形状" fill="#3A393C"></path>
                    <path d="M20,10 L20,8.87500001 C20,6.85000001 20.7875,4.7125 22.25,3.25000002 C23.7125,1.78750004 25.7375,1 27.7625,1 L28.8875,1 L29,2.12500004 C29,4.15000003 28.2125,6.28750004 26.75,7.75000002 C25.2875,9.2125 23.375,10 21.2375,10 L20,10 Z" id="路径" fill="#90C962"></path>
                    <path d="M21.3296277,11 C20.8846632,11 20.4396987,11 19.9947341,10.8888995 C19.5497696,10.777799 19.104805,10.4444975 19.104805,10.0000955 C18.6598405,7.33368359 19.6610107,4.44507066 21.55211,2.55636218 C23.5544504,0.55655323 26.3354787,-0.332250709 29.0052659,0.112151237 C29.4502304,0.223251747 29.895195,0.55655323 29.895195,1.00095522 C30.3401595,3.66736714 29.3389893,6.55598007 27.44789,8.44468855 C25.8905142,10.111196 23.5544504,11 21.3296277,11 Z M21.2183866,8.77799003 C22.9982447,8.77799003 24.6668617,8.11138707 26.0017553,6.8892816 C27.2254077,5.55607562 27.8928546,3.88956816 27.8928546,2.11196023 C26.1129964,2.11196023 24.4443794,2.7785632 23.1094859,4.00066867 C21.7745923,5.22277414 21.2183866,7.00038211 21.2183866,8.77799003 Z" id="形状" fill="#3A393C"></path>
                    <path d="M22.1147541,7.81355934 C23.8360656,7.81355934 25.5573771,7.10169495 26.9344262,5.7966102 C27.9672131,4.72881357 28.6557377,3.42372883 28.8852459,2 L29,2 C29,3.8983051 28.3114754,5.67796612 27.0491803,7.10169495 C25.5573771,8.28813561 23.8360656,9 22,9 C22,8.64406781 22,8.16949153 22.1147541,7.81355934 Z" id="路径" fill="#71B956"></path>
                    <path d="M45,32 L33,32 L40.7217391,39.6997675 C41.1391304,40.1159712 41.973913,40.1159712 42.2869565,39.5957166 C43.8521739,37.4106474 44.8956522,34.8093746 45,32 L45,32 Z M29,44.9350851 L29,34 L21.3002325,41.7807336 C20.8840288,42.2013138 20.8840288,43.0424742 21.4042834,43.3579094 C23.2771998,44.724795 25.3582181,45.6711004 27.751389,45.9865356 C28.3756945,46.0916806 29,45.5659554 29,44.9350851 Z M31,34 L31,44.9350851 C31,45.5659554 31.6210597,46.0916806 32.2421194,45.9865356 C34.5193384,45.5659554 36.6930474,44.724795 38.5562266,43.3579094 C39.0737764,42.9373292 39.1772863,42.2013138 38.6597365,41.7807336 L31,34 Z M27,32 L15,32 C15.2086956,34.8314035 16.1478261,37.4530735 17.7130435,39.5504094 C18.1304348,40.0747434 18.8608696,40.1796102 19.2782609,39.6552762 L27,32 L27,32 Z" id="形状" fill="#F79433"></path>
                    <path d="M9.12967201,21.2058776 C8.90354946,21.2058776 8.56436557,21.0965545 8.45130432,20.9872315 C7.99905918,20.5499392 7.88599788,19.8940008 8.33824302,19.4567085 C9.92110099,17.5982164 12.0692654,16.0676935 14.4435524,15.0837859 C15.0088588,14.8651398 15.6872265,15.0837859 15.9133491,15.6304013 C16.1394716,16.1770166 15.9133491,16.832955 15.3480426,17.0516011 C13.3129395,17.8168625 11.503959,19.1287393 10.1472236,20.7685853 C9.80803974,21.0965545 9.4688559,21.2058776 9.12967201,21.2058776 L9.12967201,21.2058776 Z M6.07701737,27 L5.85089477,27 C5.28558834,26.8906769 4.8333432,26.2347386 5.05946579,25.6881232 C5.28558834,24.9228618 5.51171093,24.0482772 5.85089477,23.2830158 C6.07701732,22.7364005 6.75538506,22.5177543 7.32069149,22.7364005 C7.88599793,22.9550466 8.22518178,23.610985 7.88599788,24.1576003 C7.54681404,24.8135387 7.32069145,25.4694771 7.2076302,26.2347385 C7.0945689,26.6720308 6.64232376,27 6.07701737,27 L6.07701737,27 Z" id="形状" fill="#F79548"></path>
                    <path d="M29,20 C29,20.3572656 29.1905989,20.6873926 29.5,20.8660254 C29.8094011,21.0446582 30.1905989,21.0446582 30.5,20.8660254 C30.8094011,20.6873926 31,20.3572656 31,20 C31,19.6427344 30.8094011,19.3126074 30.5,19.1339746 C30.1905989,18.9553418 29.8094011,18.9553418 29.5,19.1339746 C29.1905989,19.3126074 29,19.6427344 29,20 Z" id="路径" fill="#EB5C24"></path>
                    <path d="M25,23 C25,23.5522847 25.4477153,24 26,24 C26.5522847,24 27,23.5522847 27,23 C27,22.4477153 26.5522847,22 26,22 C25.4477153,22 25,22.4477153 25,23 L25,23 Z" id="路径" fill="#EB5C24"></path>
                    <path d="M22,20 C22,20.5522847 22.4477153,21 23,21 C23.5522847,21 24,20.5522847 24,20 C24,19.4477153 23.5522847,19 23,19 C22.4477153,19 22,19.4477153 22,20 L22,20 Z" id="路径" fill="#EB5C24"></path>
                </g>
            </g>
        </g>
    </g>
</svg>