<?xml version="1.0" encoding="UTF-8"?>
<svg width="1050px" height="300px" viewBox="0 0 1050 300" version="1.1" xmlns="http://www.w3.org/2000/svg" xmlns:xlink="http://www.w3.org/1999/xlink">
    <title>Group</title>
    <defs>
        <path d="M15,2.27373675e-13 L1035,2.27373675e-13 C1043.28427,2.2585188e-13 1050,6.71572875 1050,15 L1050,285 C1050,293.284271 1043.28427,300 1035,300 L15,300 C6.71572875,300 1.01453063e-15,293.284271 0,285 L0,15 C-1.01453063e-15,6.71572875 6.71572875,2.28895471e-13 15,2.27373675e-13 Z" id="path-1"></path>
        <filter x="-48.1%" y="-44.8%" width="196.3%" height="189.6%" filterUnits="objectBoundingBox" id="filter-3">
            <feOffset dx="0" dy="20" in="SourceAlpha" result="shadowOffsetOuter1"></feOffset>
            <feGaussianBlur stdDeviation="27" in="shadowOffsetOuter1" result="shadowBlurOuter1"></feGaussianBlur>
            <feColorMatrix values="0 0 0 0 0   0 0 0 0 0   0 0 0 0 0  0 0 0 0.15 0" type="matrix" in="shadowBlurOuter1" result="shadowMatrixOuter1"></feColorMatrix>
            <feMerge>
                <feMergeNode in="shadowMatrixOuter1"></feMergeNode>
                <feMergeNode in="SourceGraphic"></feMergeNode>
            </feMerge>
        </filter>
        <path d="M288,0 C291.865993,1.0661854e-15 295,3.13400675 295,7 L295,214 L295,214 C285.611159,214 278,221.611159 278,231 C278,240.388841 285.611159,248 295,248 L295,302 C295,310.284271 288.284271,317 280,317 L15,317 C6.71572875,317 1.01453063e-15,310.284271 0,302 L0,248 L0,248 C9.38884075,248 17,240.388841 17,231 C17,221.611159 9.38884075,214 0,214 L0,7 C-4.73447626e-16,3.13400675 3.13400675,7.10171439e-16 7,0 L288,0 Z" id="path-4"></path>
    </defs>
    <g id="页面-1" stroke="none" stroke-width="1" fill="none" fill-rule="evenodd">
        <g id="桌面端-HD备份" transform="translate(-190.000000, -745.000000)">
            <g id="Group" transform="translate(190.000000, 745.000000)">
                <g id="矩形">
                    <mask id="mask-2" fill="white">
                        <use xlink:href="#path-1"></use>
                    </mask>
                    <use id="蒙版" fill="#F5BA5D" xlink:href="#path-1"></use>
                    <g filter="url(#filter-3)" mask="url(#mask-2)">
                        <g transform="translate(644.000000, -107.000000)">
                            <mask id="mask-5" fill="white">
                                <use xlink:href="#path-4"></use>
                            </mask>
                            <use id="蒙版" stroke="none" fill="#1F2227" fill-rule="evenodd" xlink:href="#path-4"></use>
                            <rect id="矩形" stroke="none" fill="#FFFFFF" fill-rule="evenodd" mask="url(#mask-5)" x="-17" y="230" width="371" height="189"></rect>
                        </g>
                    </g>
                </g>
                <g id="编组" transform="translate(665.000000, 150.000000)">
                    <path d="M38,34.5 C38,36.4330769 29.4935424,38 19,38 C8.50676096,38 0,36.4330769 0,34.5 C0,32.5669231 8.50676096,31 19,31 C29.4935424,31 38,32.5669231 38,34.5" id="Fill-1" fill="#272828"></path>
                    <path d="M15.6352207,3.85806941 L13.2987971,3.1618732 C11.3937322,3.02888823 11.3898972,3.79583014 11.5175078,5.87116298 L11.6404247,7.87041307 C8.51733861,14.2690363 9.88819914,22.982749 15.4573017,29.0514672 C21.0636607,35.1604645 29.1312908,36.636406 35.0136994,33.143952 L37.0548823,33.2932404 C38.9596538,33.4322992 40.5417319,31.7134045 40.4196951,29.6374323 L40.2882709,27.4038601 C43.504058,20.9924498 42.1522657,12.1908264 36.5409196,6.07607493 C31.895193,1.01357059 19.7389786,1.14996714 15.6352207,3.85806941 Z" id="Fill-3" fill="#F5BA5D"></path>
                    <path d="M10.3279868,13.782842 C10.3279868,13.782842 13.9069727,25.6523274 28.8666356,27.4776419 C36.6554348,28.4277937 41.5280124,22.1188325 41.5280124,22.1188325 L42,24.3002292 L40.8620656,29.6686583 L38.7612066,34.470753 L31.0272018,35.7451255 L26.1743187,36 L17.7165778,33.5198289 L11.4744767,28.3029338 L8.90264613,22.7630698 L7,18.867542 L8.21248025,15.4592249 L9.50617101,11 L10.3279868,13.782842 Z" id="Fill-5" fill="#EDA340"></path>
                    <path d="M13.6541771,5.2240318 C13.1628752,5.2240318 12.7051147,5.41387516 12.3540478,5.76639575 C11.9735923,6.14800009 11.7841631,6.65424905 11.8199406,7.19213858 L11.9844533,9.64540063 L11.7707466,10.0480987 C8.62008929,15.9741519 10.2137858,23.9085818 15.6458985,29.3434073 C21.1294413,34.8300084 29.1078267,36.4002111 35.0478523,33.1620075 L35.4554604,32.9398844 L38.1413294,33.1201397 C38.678631,33.1556155 39.1849467,32.9660917 39.5663605,32.5857658 C39.9477744,32.2051202 40.1391202,31.6995105 40.1046204,31.161621 L39.9318023,28.4664205 L40.154134,28.0602068 C43.4019016,22.1149775 41.8356771,14.126535 36.345426,8.63354189 C30.7235648,3.00887297 22.3503489,1.52783905 16.4358787,5.11089283 L16.0071875,5.37072894 L13.7774817,5.22786702 C13.7362737,5.22531021 13.6950657,5.2240318 13.6541771,5.2240318 M13.4002321,31.5878372 C7.1139773,25.298273 5.23990752,16.0666613 8.75510465,8.97030885 L8.6510783,7.41547749 C8.55407213,5.96855845 9.08537235,4.5500542 10.1087236,3.52329082 C11.1317557,2.49652745 12.5466417,1.96015852 13.9940758,2.05370381 L15.23601,2.13320135 C22.3503274,-1.86785544 32.0860449,-0.12369862 38.5902445,6.38424437 C44.9441484,12.7414932 46.7866273,22.0372776 43.1594264,29.1604485 L43.2733448,30.9422789 C43.3662027,32.3891979 42.8307542,33.8061058 41.804531,34.8296765 C40.7783079,35.8532472 39.3646983,36.3848271 37.9143923,36.2880892 L36.1440298,36.1693218 C33.716961,37.4023318 31.0371657,38 28.3082291,38 C23.0367098,38 17.5813894,35.7711955 13.4002321,31.5878372 Z" id="Fill-7" fill="#404040"></path>
                    <path d="M33.8799529,13 C33.4894284,13 33.1101116,12.8054076 32.9038908,12.4588861 C32.9038908,12.4588861 32.9038908,12.4591231 32.9038908,12.4591231 C32.9033927,12.4591231 32.7360251,12.2036169 32.3335458,11.8258089 C31.8929605,11.4119741 31.8882284,10.7367076 32.3230853,10.3174213 C32.7576932,9.89813507 33.4672622,9.89363171 33.9078475,10.3074665 C34.5369704,10.8981174 34.8067013,11.3275954 34.8542715,11.4077078 C35.1593688,11.9201424 34.9698349,12.570996 34.4311204,12.861344 C34.2567791,12.9554405 34.0669962,13 33.8799529,13" id="Fill-9" fill="#FCF3F7"></path>
                    <path d="M26.703828,10 C26.5282692,10 26.3498323,9.96864856 26.1788783,9.90268514 C22.8395194,8.61000263 19.8101225,9.64585415 19.7796156,9.65663905 C19.1162335,9.88964294 18.3619062,9.60998811 18.0942509,9.03186758 C17.8268835,8.45349625 18.147782,7.79611929 18.811164,7.56286459 C18.9760742,7.50517794 22.8996699,6.16333638 27.2302166,7.83950968 C27.8841013,8.0928293 28.1785221,8.75948629 27.8881305,9.32933003 C27.6737185,9.74994093 27.2002853,10 26.703828,10" id="Fill-11" fill="#FCF3F7"></path>
                </g>
            </g>
        </g>
    </g>
</svg>