<?xml version="1.0" encoding="UTF-8"?>
<svg width="62px" height="62px" viewBox="0 0 62 62" version="1.1" xmlns="http://www.w3.org/2000/svg" xmlns:xlink="http://www.w3.org/1999/xlink">
    <title>Group</title>
    <g id="页面-1" stroke="none" stroke-width="1" fill="none" fill-rule="evenodd">
        <g id="桌面端-HD" transform="translate(-756.000000, -887.000000)">
            <g id="Group" transform="translate(756.000000, 887.000000)">
                <circle id="椭圆形" fill="#F6BB5E" cx="31" cy="31" r="31"></circle>
                <g id="编组" transform="translate(16.000000, 16.000000)">
                    <path d="M23.3939009,5.77497564 C18.5209637,0.721528353 11.4455885,-0.381209978 6.45087112,2.75553639 L5.11104233,2.66646512 C3.50364382,2.55968226 2.17272577,3.94400903 2.28039721,5.61043763 L2.38410833,7.21577411 C-0.250995546,12.3536723 0.905668027,19.3505162 5.60459832,24.2235107 C10.3349637,29.1288481 17.1420266,30.3139838 22.1053089,27.5096504 L23.8275569,27.6295244 C25.4347079,27.7411844 26.7695863,26.3609646 26.6666177,24.6940226 L26.5557285,22.9005327 C29.2690489,17.752367 28.1284742,10.6849335 23.3939009,5.77497564" id="Fill-3" fill="#F5BA5D"></path>
                    <path d="M1.13335196,9.66304705 C1.13335196,9.66304705 4.21525181,19.3264491 17.0971643,20.8125074 C23.8041756,21.5860623 28,16.4496957 28,16.4496957 L27.2070069,18.2601785 L26.1624661,22.6778892 L24.3251845,25.6748524 L18.6881967,27 L14.9487912,27 L8.9416726,24.5375919 L4.46175334,20.990929 L1.65511773,17.0244784 L0.446579021,13.9430371 L0,11.6685159 L0,9 L1.13335196,9.66304705 Z" id="Fill-5" fill="#EDA340"></path>
                    <path d="M5.087973,4.13355804 C4.71343447,4.13355804 4.36446587,4.28327756 4.09683399,4.5612921 C3.80679798,4.86224346 3.66238879,5.26149552 3.68966337,5.68570083 L3.81507777,7.62046018 L3.65216082,7.93804704 C1.25029251,12.611615 2.46522924,18.8690845 6.6063395,23.1552469 C10.786657,27.4822419 16.8688898,28.7205786 21.3972018,26.1667769 L21.7079373,25.9916001 L23.7554795,26.133758 C24.1650854,26.1617359 24.5510695,26.0122684 24.841836,25.7123253 C25.1326026,25.4121301 25.278473,25.0133821 25.2521725,24.5891768 L25.1204265,22.4636133 L25.2899185,22.1432538 C27.7658179,17.4545627 26.5718241,11.1544962 22.3863927,6.82246017 C18.1006297,2.38657823 11.7174023,1.21856431 7.20857212,4.04433126 L6.88176413,4.2492504 L5.18197291,4.13658268 C5.15055843,4.13456625 5.11914395,4.13355804 5.087973,4.13355804 M4.88438769,24.9377662 C0.0869826795,19.9723208 -1.34322847,12.6842063 1.33942197,7.08182277 L1.26003344,5.85432433 C1.18600242,4.71201983 1.59146837,3.59214805 2.37244694,2.78154539 C3.15318199,1.97094272 4.2329634,1.54749357 5.33758417,1.62134512 L6.28537606,1.68410633 C11.7147235,-1.47462271 19.1446132,-0.0976568053 24.1083445,5.04019293 C28.9573764,10.0590736 30.3634787,17.3978507 27.5953517,23.0214067 L27.6822894,24.4281149 C27.7531547,25.5704194 27.3445229,26.6890309 26.5613526,27.497113 C25.7781823,28.3051952 24.699375,28.7248635 23.5925626,28.6484915 L22.2414964,28.5547277 C20.3892597,29.5281567 18.3441528,30 16.2615432,30 C12.2385417,30 8.07527082,28.2404175 4.88438769,24.9377662 Z" id="Fill-7" fill="#404040"></path>
                    <path d="M20.8799529,11 C20.4894284,11 20.1101116,10.8054076 19.9038908,10.4588861 C19.9038908,10.4588861 19.9038908,10.4591231 19.9038908,10.4591231 C19.9033927,10.4591231 19.7360251,10.2036169 19.3335458,9.8258089 C18.8929605,9.41197409 18.8882284,8.73670756 19.3230853,8.31742131 C19.7576932,7.89813507 20.4672622,7.89363171 20.9078475,8.30746652 C21.5369704,8.89811735 21.8067013,9.3275954 21.8542715,9.40770776 C22.1593688,9.92014238 21.9698349,10.570996 21.4311204,10.861344 C21.2567791,10.9554405 21.0669962,11 20.8799529,11" id="Fill-9" fill="#FCF3F7"></path>
                    <path d="M15.9630624,8 C15.8226153,8 15.6798659,7.96864856 15.5431027,7.90268514 C12.8716155,6.61000263 10.448098,7.64585415 10.4236924,7.65663905 C9.89298677,7.88964294 9.28952492,7.60998811 9.07540073,7.03186758 C8.86150677,6.45349625 9.11822557,5.79611929 9.64893124,5.56286459 C9.78085937,5.50517794 12.9197359,4.16333638 16.3841733,5.83950968 C16.907281,6.0928293 17.1428176,6.75948629 16.9105044,7.32933003 C16.7389748,7.74994093 16.3602282,8 15.9630624,8" id="Fill-11" fill="#FCF3F7"></path>
                </g>
            </g>
        </g>
    </g>
</svg>